<?xml version="1.0" encoding="utf-8" standalone="no"?>
<!DOCTYPE svg PUBLIC "-//W3C//DTD SVG 1.1//EN"
  "http://www.w3.org/Graphics/SVG/1.1/DTD/svg11.dtd">
<svg xmlns:xlink="http://www.w3.org/1999/xlink" width="720pt" height="216pt" viewBox="0 0 720 216" xmlns="http://www.w3.org/2000/svg" version="1.1">
 <metadata>
  <rdf:RDF xmlns:dc="http://purl.org/dc/elements/1.1/" xmlns:cc="http://creativecommons.org/ns#" xmlns:rdf="http://www.w3.org/1999/02/22-rdf-syntax-ns#">
   <cc:Work>
    <dc:type rdf:resource="http://purl.org/dc/dcmitype/StillImage"/>
    <dc:date>2024-03-09T22:36:56.498734</dc:date>
    <dc:format>image/svg+xml</dc:format>
    <dc:creator>
     <cc:Agent>
      <dc:title>Matplotlib v3.8.2, https://matplotlib.org/</dc:title>
     </cc:Agent>
    </dc:creator>
   </cc:Work>
  </rdf:RDF>
 </metadata>
 <defs>
  <style type="text/css">*{stroke-linejoin: round; stroke-linecap: butt}</style>
 </defs>
 <g id="figure_1">
  <g id="patch_1">
   <path d="M 0 216 
L 720 216 
L 720 0 
L 0 0 
z
" style="fill: #ffffff"/>
  </g>
  <g id="axes_1">
   <g id="patch_2">
    <path d="M 90 192.24 
L 343.636364 192.24 
L 343.636364 25.92 
L 90 25.92 
z
" style="fill: #ffffff"/>
   </g>
   <g id="patch_3">
    <path d="M 101.528926 192.24 
L 106.140496 192.24 
L 106.140496 192.218402 
L 101.528926 192.218402 
z
" clip-path="url(#p7b2b48c4d2)" style="fill: #1f77b4"/>
   </g>
   <g id="patch_4">
    <path d="M 106.140496 192.24 
L 110.752066 192.24 
L 110.752066 192.196804 
L 106.140496 192.196804 
z
" clip-path="url(#p7b2b48c4d2)" style="fill: #1f77b4"/>
   </g>
   <g id="patch_5">
    <path d="M 110.752066 192.24 
L 115.363636 192.24 
L 115.363636 192.24 
L 110.752066 192.24 
z
" clip-path="url(#p7b2b48c4d2)" style="fill: #1f77b4"/>
   </g>
   <g id="patch_6">
    <path d="M 115.363636 192.24 
L 119.975207 192.24 
L 119.975207 192.13201 
L 115.363636 192.13201 
z
" clip-path="url(#p7b2b48c4d2)" style="fill: #1f77b4"/>
   </g>
   <g id="patch_7">
    <path d="M 119.975207 192.24 
L 124.586777 192.24 
L 124.586777 192.218402 
L 119.975207 192.218402 
z
" clip-path="url(#p7b2b48c4d2)" style="fill: #1f77b4"/>
   </g>
   <g id="patch_8">
    <path d="M 124.586777 192.24 
L 129.198347 192.24 
L 129.198347 192.196804 
L 124.586777 192.196804 
z
" clip-path="url(#p7b2b48c4d2)" style="fill: #1f77b4"/>
   </g>
   <g id="patch_9">
    <path d="M 129.198347 192.24 
L 133.809917 192.24 
L 133.809917 192.175206 
L 129.198347 192.175206 
z
" clip-path="url(#p7b2b48c4d2)" style="fill: #1f77b4"/>
   </g>
   <g id="patch_10">
    <path d="M 133.809917 192.24 
L 138.421488 192.24 
L 138.421488 192.13201 
L 133.809917 192.13201 
z
" clip-path="url(#p7b2b48c4d2)" style="fill: #1f77b4"/>
   </g>
   <g id="patch_11">
    <path d="M 138.421488 192.24 
L 143.033058 192.24 
L 143.033058 192.02402 
L 138.421488 192.02402 
z
" clip-path="url(#p7b2b48c4d2)" style="fill: #1f77b4"/>
   </g>
   <g id="patch_12">
    <path d="M 143.033058 192.24 
L 147.644628 192.24 
L 147.644628 191.916029 
L 143.033058 191.916029 
z
" clip-path="url(#p7b2b48c4d2)" style="fill: #1f77b4"/>
   </g>
   <g id="patch_13">
    <path d="M 147.644628 192.24 
L 152.256198 192.24 
L 152.256198 191.613657 
L 147.644628 191.613657 
z
" clip-path="url(#p7b2b48c4d2)" style="fill: #1f77b4"/>
   </g>
   <g id="patch_14">
    <path d="M 152.256198 192.24 
L 156.867769 192.24 
L 156.867769 191.786441 
L 152.256198 191.786441 
z
" clip-path="url(#p7b2b48c4d2)" style="fill: #1f77b4"/>
   </g>
   <g id="patch_15">
    <path d="M 156.867769 192.24 
L 161.479339 192.24 
L 161.479339 191.678451 
L 156.867769 191.678451 
z
" clip-path="url(#p7b2b48c4d2)" style="fill: #1f77b4"/>
   </g>
   <g id="patch_16">
    <path d="M 161.479339 192.24 
L 166.090909 192.24 
L 166.090909 191.548863 
L 161.479339 191.548863 
z
" clip-path="url(#p7b2b48c4d2)" style="fill: #1f77b4"/>
   </g>
   <g id="patch_17">
    <path d="M 166.090909 192.24 
L 170.702479 192.24 
L 170.702479 191.181696 
L 166.090909 191.181696 
z
" clip-path="url(#p7b2b48c4d2)" style="fill: #1f77b4"/>
   </g>
   <g id="patch_18">
    <path d="M 170.702479 192.24 
L 175.31405 192.24 
L 175.31405 191.268088 
L 170.702479 191.268088 
z
" clip-path="url(#p7b2b48c4d2)" style="fill: #1f77b4"/>
   </g>
   <g id="patch_19">
    <path d="M 175.31405 192.24 
L 179.92562 192.24 
L 179.92562 191.419275 
L 175.31405 191.419275 
z
" clip-path="url(#p7b2b48c4d2)" style="fill: #1f77b4"/>
   </g>
   <g id="patch_20">
    <path d="M 179.92562 192.24 
L 184.53719 192.24 
L 184.53719 191.160098 
L 179.92562 191.160098 
z
" clip-path="url(#p7b2b48c4d2)" style="fill: #1f77b4"/>
   </g>
   <g id="patch_21">
    <path d="M 184.53719 192.24 
L 189.14876 192.24 
L 189.14876 191.397677 
L 184.53719 191.397677 
z
" clip-path="url(#p7b2b48c4d2)" style="fill: #1f77b4"/>
   </g>
   <g id="patch_22">
    <path d="M 189.14876 192.24 
L 193.760331 192.24 
L 193.760331 191.24649 
L 189.14876 191.24649 
z
" clip-path="url(#p7b2b48c4d2)" style="fill: #1f77b4"/>
   </g>
   <g id="patch_23">
    <path d="M 193.760331 192.24 
L 198.371901 192.24 
L 198.371901 190.641745 
L 193.760331 190.641745 
z
" clip-path="url(#p7b2b48c4d2)" style="fill: #1f77b4"/>
   </g>
   <g id="patch_24">
    <path d="M 198.371901 192.24 
L 202.983471 192.24 
L 202.983471 190.209785 
L 198.371901 190.209785 
z
" clip-path="url(#p7b2b48c4d2)" style="fill: #1f77b4"/>
   </g>
   <g id="patch_25">
    <path d="M 202.983471 192.24 
L 207.595041 192.24 
L 207.595041 189.324265 
L 202.983471 189.324265 
z
" clip-path="url(#p7b2b48c4d2)" style="fill: #1f77b4"/>
   </g>
   <g id="patch_26">
    <path d="M 207.595041 192.24 
L 212.206612 192.24 
L 212.206612 187.704412 
L 207.595041 187.704412 
z
" clip-path="url(#p7b2b48c4d2)" style="fill: #1f77b4"/>
   </g>
   <g id="patch_27">
    <path d="M 212.206612 192.24 
L 216.818182 192.24 
L 216.818182 183.341609 
L 212.206612 183.341609 
z
" clip-path="url(#p7b2b48c4d2)" style="fill: #1f77b4"/>
   </g>
   <g id="patch_28">
    <path d="M 216.818182 192.24 
L 221.429752 192.24 
L 221.429752 167.855817 
L 216.818182 167.855817 
z
" clip-path="url(#p7b2b48c4d2)" style="fill: #1f77b4"/>
   </g>
   <g id="patch_29">
    <path d="M 221.429752 192.24 
L 226.041322 192.24 
L 226.041322 33.84 
L 221.429752 33.84 
z
" clip-path="url(#p7b2b48c4d2)" style="fill: #1f77b4"/>
   </g>
   <g id="patch_30">
    <path d="M 226.041322 192.24 
L 230.652893 192.24 
L 230.652893 143.51483 
L 226.041322 143.51483 
z
" clip-path="url(#p7b2b48c4d2)" style="fill: #1f77b4"/>
   </g>
   <g id="patch_31">
    <path d="M 230.652893 192.24 
L 235.264463 192.24 
L 235.264463 153.946681 
L 230.652893 153.946681 
z
" clip-path="url(#p7b2b48c4d2)" style="fill: #1f77b4"/>
   </g>
   <g id="patch_32">
    <path d="M 235.264463 192.24 
L 239.876033 192.24 
L 239.876033 161.505994 
L 235.264463 161.505994 
z
" clip-path="url(#p7b2b48c4d2)" style="fill: #1f77b4"/>
   </g>
   <g id="patch_33">
    <path d="M 239.876033 192.24 
L 244.487603 192.24 
L 244.487603 165.17766 
L 239.876033 165.17766 
z
" clip-path="url(#p7b2b48c4d2)" style="fill: #1f77b4"/>
   </g>
   <g id="patch_34">
    <path d="M 244.487603 192.24 
L 249.099174 192.24 
L 249.099174 169.929228 
L 244.487603 169.929228 
z
" clip-path="url(#p7b2b48c4d2)" style="fill: #1f77b4"/>
   </g>
   <g id="patch_35">
    <path d="M 249.099174 192.24 
L 253.710744 192.24 
L 253.710744 173.860071 
L 249.099174 173.860071 
z
" clip-path="url(#p7b2b48c4d2)" style="fill: #1f77b4"/>
   </g>
   <g id="patch_36">
    <path d="M 253.710744 192.24 
L 258.322314 192.24 
L 258.322314 178.827619 
L 253.710744 178.827619 
z
" clip-path="url(#p7b2b48c4d2)" style="fill: #1f77b4"/>
   </g>
   <g id="patch_37">
    <path d="M 258.322314 192.24 
L 262.933884 192.24 
L 262.933884 181.009021 
L 258.322314 181.009021 
z
" clip-path="url(#p7b2b48c4d2)" style="fill: #1f77b4"/>
   </g>
   <g id="patch_38">
    <path d="M 262.933884 192.24 
L 267.545455 192.24 
L 267.545455 184.162334 
L 262.933884 184.162334 
z
" clip-path="url(#p7b2b48c4d2)" style="fill: #1f77b4"/>
   </g>
   <g id="patch_39">
    <path d="M 267.545455 192.24 
L 272.157025 192.24 
L 272.157025 186.473324 
L 267.545455 186.473324 
z
" clip-path="url(#p7b2b48c4d2)" style="fill: #1f77b4"/>
   </g>
   <g id="patch_40">
    <path d="M 272.157025 192.24 
L 276.768595 192.24 
L 276.768595 187.29405 
L 272.157025 187.29405 
z
" clip-path="url(#p7b2b48c4d2)" style="fill: #1f77b4"/>
   </g>
   <g id="patch_41">
    <path d="M 276.768595 192.24 
L 281.380165 192.24 
L 281.380165 188.913902 
L 276.768595 188.913902 
z
" clip-path="url(#p7b2b48c4d2)" style="fill: #1f77b4"/>
   </g>
   <g id="patch_42">
    <path d="M 281.380165 192.24 
L 285.991736 192.24 
L 285.991736 189.71303 
L 281.380165 189.71303 
z
" clip-path="url(#p7b2b48c4d2)" style="fill: #1f77b4"/>
   </g>
   <g id="patch_43">
    <path d="M 285.991736 192.24 
L 290.603306 192.24 
L 290.603306 190.512157 
L 285.991736 190.512157 
z
" clip-path="url(#p7b2b48c4d2)" style="fill: #1f77b4"/>
   </g>
   <g id="patch_44">
    <path d="M 290.603306 192.24 
L 295.214876 192.24 
L 295.214876 190.81453 
L 290.603306 190.81453 
z
" clip-path="url(#p7b2b48c4d2)" style="fill: #1f77b4"/>
   </g>
   <g id="patch_45">
    <path d="M 295.214876 192.24 
L 299.826446 192.24 
L 299.826446 191.311284 
L 295.214876 191.311284 
z
" clip-path="url(#p7b2b48c4d2)" style="fill: #1f77b4"/>
   </g>
   <g id="patch_46">
    <path d="M 299.826446 192.24 
L 304.438017 192.24 
L 304.438017 191.872833 
L 299.826446 191.872833 
z
" clip-path="url(#p7b2b48c4d2)" style="fill: #1f77b4"/>
   </g>
   <g id="patch_47">
    <path d="M 304.438017 192.24 
L 309.049587 192.24 
L 309.049587 191.916029 
L 304.438017 191.916029 
z
" clip-path="url(#p7b2b48c4d2)" style="fill: #1f77b4"/>
   </g>
   <g id="patch_48">
    <path d="M 309.049587 192.24 
L 313.661157 192.24 
L 313.661157 192.175206 
L 309.049587 192.175206 
z
" clip-path="url(#p7b2b48c4d2)" style="fill: #1f77b4"/>
   </g>
   <g id="patch_49">
    <path d="M 313.661157 192.24 
L 318.272727 192.24 
L 318.272727 192.13201 
L 313.661157 192.13201 
z
" clip-path="url(#p7b2b48c4d2)" style="fill: #1f77b4"/>
   </g>
   <g id="patch_50">
    <path d="M 318.272727 192.24 
L 322.884298 192.24 
L 322.884298 192.218402 
L 318.272727 192.218402 
z
" clip-path="url(#p7b2b48c4d2)" style="fill: #1f77b4"/>
   </g>
   <g id="patch_51">
    <path d="M 322.884298 192.24 
L 327.495868 192.24 
L 327.495868 192.218402 
L 322.884298 192.218402 
z
" clip-path="url(#p7b2b48c4d2)" style="fill: #1f77b4"/>
   </g>
   <g id="patch_52">
    <path d="M 327.495868 192.24 
L 332.107438 192.24 
L 332.107438 192.196804 
L 327.495868 192.196804 
z
" clip-path="url(#p7b2b48c4d2)" style="fill: #1f77b4"/>
   </g>
   <g id="matplotlib.axis_1">
    <g id="xtick_1">
     <g id="line2d_1">
      <path d="M 128.211076 192.24 
L 128.211076 25.92 
" clip-path="url(#p7b2b48c4d2)" style="fill: none; stroke: #b0b0b0; stroke-width: 0.8; stroke-linecap: square"/>
     </g>
     <g id="line2d_2">
      <defs>
       <path id="mac0967aab2" d="M 0 0 
L 0 3.5 
" style="stroke: #000000; stroke-width: 0.8"/>
      </defs>
      <g>
       <use xlink:href="#mac0967aab2" x="128.211076" y="192.24" style="stroke: #000000; stroke-width: 0.8"/>
      </g>
     </g>
     <g id="text_1">
      <!-- −0.2 -->
      <g transform="translate(116.06967 206.838437) scale(0.1 -0.1)">
       <defs>
        <path id="DejaVuSans-2212" d="M 678 2272 
L 4684 2272 
L 4684 1741 
L 678 1741 
L 678 2272 
z
" transform="scale(0.015625)"/>
        <path id="DejaVuSans-30" d="M 2034 4250 
Q 1547 4250 1301 3770 
Q 1056 3291 1056 2328 
Q 1056 1369 1301 889 
Q 1547 409 2034 409 
Q 2525 409 2770 889 
Q 3016 1369 3016 2328 
Q 3016 3291 2770 3770 
Q 2525 4250 2034 4250 
z
M 2034 4750 
Q 2819 4750 3233 4129 
Q 3647 3509 3647 2328 
Q 3647 1150 3233 529 
Q 2819 -91 2034 -91 
Q 1250 -91 836 529 
Q 422 1150 422 2328 
Q 422 3509 836 4129 
Q 1250 4750 2034 4750 
z
" transform="scale(0.015625)"/>
        <path id="DejaVuSans-2e" d="M 684 794 
L 1344 794 
L 1344 0 
L 684 0 
L 684 794 
z
" transform="scale(0.015625)"/>
        <path id="DejaVuSans-32" d="M 1228 531 
L 3431 531 
L 3431 0 
L 469 0 
L 469 531 
Q 828 903 1448 1529 
Q 2069 2156 2228 2338 
Q 2531 2678 2651 2914 
Q 2772 3150 2772 3378 
Q 2772 3750 2511 3984 
Q 2250 4219 1831 4219 
Q 1534 4219 1204 4116 
Q 875 4013 500 3803 
L 500 4441 
Q 881 4594 1212 4672 
Q 1544 4750 1819 4750 
Q 2544 4750 2975 4387 
Q 3406 4025 3406 3419 
Q 3406 3131 3298 2873 
Q 3191 2616 2906 2266 
Q 2828 2175 2409 1742 
Q 1991 1309 1228 531 
z
" transform="scale(0.015625)"/>
       </defs>
       <use xlink:href="#DejaVuSans-2212"/>
       <use xlink:href="#DejaVuSans-30" x="83.789062"/>
       <use xlink:href="#DejaVuSans-2e" x="147.412109"/>
       <use xlink:href="#DejaVuSans-32" x="179.199219"/>
      </g>
     </g>
    </g>
    <g id="xtick_2">
     <g id="line2d_3">
      <path d="M 175.004594 192.24 
L 175.004594 25.92 
" clip-path="url(#p7b2b48c4d2)" style="fill: none; stroke: #b0b0b0; stroke-width: 0.8; stroke-linecap: square"/>
     </g>
     <g id="line2d_4">
      <g>
       <use xlink:href="#mac0967aab2" x="175.004594" y="192.24" style="stroke: #000000; stroke-width: 0.8"/>
      </g>
     </g>
     <g id="text_2">
      <!-- −0.1 -->
      <g transform="translate(162.863188 206.838437) scale(0.1 -0.1)">
       <defs>
        <path id="DejaVuSans-31" d="M 794 531 
L 1825 531 
L 1825 4091 
L 703 3866 
L 703 4441 
L 1819 4666 
L 2450 4666 
L 2450 531 
L 3481 531 
L 3481 0 
L 794 0 
L 794 531 
z
" transform="scale(0.015625)"/>
       </defs>
       <use xlink:href="#DejaVuSans-2212"/>
       <use xlink:href="#DejaVuSans-30" x="83.789062"/>
       <use xlink:href="#DejaVuSans-2e" x="147.412109"/>
       <use xlink:href="#DejaVuSans-31" x="179.199219"/>
      </g>
     </g>
    </g>
    <g id="xtick_3">
     <g id="line2d_5">
      <path d="M 221.798112 192.24 
L 221.798112 25.92 
" clip-path="url(#p7b2b48c4d2)" style="fill: none; stroke: #b0b0b0; stroke-width: 0.8; stroke-linecap: square"/>
     </g>
     <g id="line2d_6">
      <g>
       <use xlink:href="#mac0967aab2" x="221.798112" y="192.24" style="stroke: #000000; stroke-width: 0.8"/>
      </g>
     </g>
     <g id="text_3">
      <!-- 0.0 -->
      <g transform="translate(213.84655 206.838437) scale(0.1 -0.1)">
       <use xlink:href="#DejaVuSans-30"/>
       <use xlink:href="#DejaVuSans-2e" x="63.623047"/>
       <use xlink:href="#DejaVuSans-30" x="95.410156"/>
      </g>
     </g>
    </g>
    <g id="xtick_4">
     <g id="line2d_7">
      <path d="M 268.59163 192.24 
L 268.59163 25.92 
" clip-path="url(#p7b2b48c4d2)" style="fill: none; stroke: #b0b0b0; stroke-width: 0.8; stroke-linecap: square"/>
     </g>
     <g id="line2d_8">
      <g>
       <use xlink:href="#mac0967aab2" x="268.59163" y="192.24" style="stroke: #000000; stroke-width: 0.8"/>
      </g>
     </g>
     <g id="text_4">
      <!-- 0.1 -->
      <g transform="translate(260.640068 206.838437) scale(0.1 -0.1)">
       <use xlink:href="#DejaVuSans-30"/>
       <use xlink:href="#DejaVuSans-2e" x="63.623047"/>
       <use xlink:href="#DejaVuSans-31" x="95.410156"/>
      </g>
     </g>
    </g>
    <g id="xtick_5">
     <g id="line2d_9">
      <path d="M 315.385148 192.24 
L 315.385148 25.92 
" clip-path="url(#p7b2b48c4d2)" style="fill: none; stroke: #b0b0b0; stroke-width: 0.8; stroke-linecap: square"/>
     </g>
     <g id="line2d_10">
      <g>
       <use xlink:href="#mac0967aab2" x="315.385148" y="192.24" style="stroke: #000000; stroke-width: 0.8"/>
      </g>
     </g>
     <g id="text_5">
      <!-- 0.2 -->
      <g transform="translate(307.433586 206.838437) scale(0.1 -0.1)">
       <use xlink:href="#DejaVuSans-30"/>
       <use xlink:href="#DejaVuSans-2e" x="63.623047"/>
       <use xlink:href="#DejaVuSans-32" x="95.410156"/>
      </g>
     </g>
    </g>
   </g>
   <g id="matplotlib.axis_2">
    <g id="ytick_1">
     <g id="line2d_11">
      <path d="M 90 192.24 
L 343.636364 192.24 
" clip-path="url(#p7b2b48c4d2)" style="fill: none; stroke: #b0b0b0; stroke-width: 0.8; stroke-linecap: square"/>
     </g>
     <g id="line2d_12">
      <defs>
       <path id="ma308668017" d="M 0 0 
L -3.5 0 
" style="stroke: #000000; stroke-width: 0.8"/>
      </defs>
      <g>
       <use xlink:href="#ma308668017" x="90" y="192.24" style="stroke: #000000; stroke-width: 0.8"/>
      </g>
     </g>
     <g id="text_6">
      <!-- 0 -->
      <g transform="translate(76.6375 196.039219) scale(0.1 -0.1)">
       <use xlink:href="#DejaVuSans-30"/>
      </g>
     </g>
    </g>
    <g id="ytick_2">
     <g id="line2d_13">
      <path d="M 90 170.641963 
L 343.636364 170.641963 
" clip-path="url(#p7b2b48c4d2)" style="fill: none; stroke: #b0b0b0; stroke-width: 0.8; stroke-linecap: square"/>
     </g>
     <g id="line2d_14">
      <g>
       <use xlink:href="#ma308668017" x="90" y="170.641963" style="stroke: #000000; stroke-width: 0.8"/>
      </g>
     </g>
     <g id="text_7">
      <!-- 1000 -->
      <g transform="translate(57.55 174.441182) scale(0.1 -0.1)">
       <use xlink:href="#DejaVuSans-31"/>
       <use xlink:href="#DejaVuSans-30" x="63.623047"/>
       <use xlink:href="#DejaVuSans-30" x="127.246094"/>
       <use xlink:href="#DejaVuSans-30" x="190.869141"/>
      </g>
     </g>
    </g>
    <g id="ytick_3">
     <g id="line2d_15">
      <path d="M 90 149.043927 
L 343.636364 149.043927 
" clip-path="url(#p7b2b48c4d2)" style="fill: none; stroke: #b0b0b0; stroke-width: 0.8; stroke-linecap: square"/>
     </g>
     <g id="line2d_16">
      <g>
       <use xlink:href="#ma308668017" x="90" y="149.043927" style="stroke: #000000; stroke-width: 0.8"/>
      </g>
     </g>
     <g id="text_8">
      <!-- 2000 -->
      <g transform="translate(57.55 152.843146) scale(0.1 -0.1)">
       <use xlink:href="#DejaVuSans-32"/>
       <use xlink:href="#DejaVuSans-30" x="63.623047"/>
       <use xlink:href="#DejaVuSans-30" x="127.246094"/>
       <use xlink:href="#DejaVuSans-30" x="190.869141"/>
      </g>
     </g>
    </g>
    <g id="ytick_4">
     <g id="line2d_17">
      <path d="M 90 127.44589 
L 343.636364 127.44589 
" clip-path="url(#p7b2b48c4d2)" style="fill: none; stroke: #b0b0b0; stroke-width: 0.8; stroke-linecap: square"/>
     </g>
     <g id="line2d_18">
      <g>
       <use xlink:href="#ma308668017" x="90" y="127.44589" style="stroke: #000000; stroke-width: 0.8"/>
      </g>
     </g>
     <g id="text_9">
      <!-- 3000 -->
      <g transform="translate(57.55 131.245109) scale(0.1 -0.1)">
       <defs>
        <path id="DejaVuSans-33" d="M 2597 2516 
Q 3050 2419 3304 2112 
Q 3559 1806 3559 1356 
Q 3559 666 3084 287 
Q 2609 -91 1734 -91 
Q 1441 -91 1130 -33 
Q 819 25 488 141 
L 488 750 
Q 750 597 1062 519 
Q 1375 441 1716 441 
Q 2309 441 2620 675 
Q 2931 909 2931 1356 
Q 2931 1769 2642 2001 
Q 2353 2234 1838 2234 
L 1294 2234 
L 1294 2753 
L 1863 2753 
Q 2328 2753 2575 2939 
Q 2822 3125 2822 3475 
Q 2822 3834 2567 4026 
Q 2313 4219 1838 4219 
Q 1578 4219 1281 4162 
Q 984 4106 628 3988 
L 628 4550 
Q 988 4650 1302 4700 
Q 1616 4750 1894 4750 
Q 2613 4750 3031 4423 
Q 3450 4097 3450 3541 
Q 3450 3153 3228 2886 
Q 3006 2619 2597 2516 
z
" transform="scale(0.015625)"/>
       </defs>
       <use xlink:href="#DejaVuSans-33"/>
       <use xlink:href="#DejaVuSans-30" x="63.623047"/>
       <use xlink:href="#DejaVuSans-30" x="127.246094"/>
       <use xlink:href="#DejaVuSans-30" x="190.869141"/>
      </g>
     </g>
    </g>
    <g id="ytick_5">
     <g id="line2d_19">
      <path d="M 90 105.847854 
L 343.636364 105.847854 
" clip-path="url(#p7b2b48c4d2)" style="fill: none; stroke: #b0b0b0; stroke-width: 0.8; stroke-linecap: square"/>
     </g>
     <g id="line2d_20">
      <g>
       <use xlink:href="#ma308668017" x="90" y="105.847854" style="stroke: #000000; stroke-width: 0.8"/>
      </g>
     </g>
     <g id="text_10">
      <!-- 4000 -->
      <g transform="translate(57.55 109.647073) scale(0.1 -0.1)">
       <defs>
        <path id="DejaVuSans-34" d="M 2419 4116 
L 825 1625 
L 2419 1625 
L 2419 4116 
z
M 2253 4666 
L 3047 4666 
L 3047 1625 
L 3713 1625 
L 3713 1100 
L 3047 1100 
L 3047 0 
L 2419 0 
L 2419 1100 
L 313 1100 
L 313 1709 
L 2253 4666 
z
" transform="scale(0.015625)"/>
       </defs>
       <use xlink:href="#DejaVuSans-34"/>
       <use xlink:href="#DejaVuSans-30" x="63.623047"/>
       <use xlink:href="#DejaVuSans-30" x="127.246094"/>
       <use xlink:href="#DejaVuSans-30" x="190.869141"/>
      </g>
     </g>
    </g>
    <g id="ytick_6">
     <g id="line2d_21">
      <path d="M 90 84.249817 
L 343.636364 84.249817 
" clip-path="url(#p7b2b48c4d2)" style="fill: none; stroke: #b0b0b0; stroke-width: 0.8; stroke-linecap: square"/>
     </g>
     <g id="line2d_22">
      <g>
       <use xlink:href="#ma308668017" x="90" y="84.249817" style="stroke: #000000; stroke-width: 0.8"/>
      </g>
     </g>
     <g id="text_11">
      <!-- 5000 -->
      <g transform="translate(57.55 88.049036) scale(0.1 -0.1)">
       <defs>
        <path id="DejaVuSans-35" d="M 691 4666 
L 3169 4666 
L 3169 4134 
L 1269 4134 
L 1269 2991 
Q 1406 3038 1543 3061 
Q 1681 3084 1819 3084 
Q 2600 3084 3056 2656 
Q 3513 2228 3513 1497 
Q 3513 744 3044 326 
Q 2575 -91 1722 -91 
Q 1428 -91 1123 -41 
Q 819 9 494 109 
L 494 744 
Q 775 591 1075 516 
Q 1375 441 1709 441 
Q 2250 441 2565 725 
Q 2881 1009 2881 1497 
Q 2881 1984 2565 2268 
Q 2250 2553 1709 2553 
Q 1456 2553 1204 2497 
Q 953 2441 691 2322 
L 691 4666 
z
" transform="scale(0.015625)"/>
       </defs>
       <use xlink:href="#DejaVuSans-35"/>
       <use xlink:href="#DejaVuSans-30" x="63.623047"/>
       <use xlink:href="#DejaVuSans-30" x="127.246094"/>
       <use xlink:href="#DejaVuSans-30" x="190.869141"/>
      </g>
     </g>
    </g>
    <g id="ytick_7">
     <g id="line2d_23">
      <path d="M 90 62.651781 
L 343.636364 62.651781 
" clip-path="url(#p7b2b48c4d2)" style="fill: none; stroke: #b0b0b0; stroke-width: 0.8; stroke-linecap: square"/>
     </g>
     <g id="line2d_24">
      <g>
       <use xlink:href="#ma308668017" x="90" y="62.651781" style="stroke: #000000; stroke-width: 0.8"/>
      </g>
     </g>
     <g id="text_12">
      <!-- 6000 -->
      <g transform="translate(57.55 66.450999) scale(0.1 -0.1)">
       <defs>
        <path id="DejaVuSans-36" d="M 2113 2584 
Q 1688 2584 1439 2293 
Q 1191 2003 1191 1497 
Q 1191 994 1439 701 
Q 1688 409 2113 409 
Q 2538 409 2786 701 
Q 3034 994 3034 1497 
Q 3034 2003 2786 2293 
Q 2538 2584 2113 2584 
z
M 3366 4563 
L 3366 3988 
Q 3128 4100 2886 4159 
Q 2644 4219 2406 4219 
Q 1781 4219 1451 3797 
Q 1122 3375 1075 2522 
Q 1259 2794 1537 2939 
Q 1816 3084 2150 3084 
Q 2853 3084 3261 2657 
Q 3669 2231 3669 1497 
Q 3669 778 3244 343 
Q 2819 -91 2113 -91 
Q 1303 -91 875 529 
Q 447 1150 447 2328 
Q 447 3434 972 4092 
Q 1497 4750 2381 4750 
Q 2619 4750 2861 4703 
Q 3103 4656 3366 4563 
z
" transform="scale(0.015625)"/>
       </defs>
       <use xlink:href="#DejaVuSans-36"/>
       <use xlink:href="#DejaVuSans-30" x="63.623047"/>
       <use xlink:href="#DejaVuSans-30" x="127.246094"/>
       <use xlink:href="#DejaVuSans-30" x="190.869141"/>
      </g>
     </g>
    </g>
    <g id="ytick_8">
     <g id="line2d_25">
      <path d="M 90 41.053744 
L 343.636364 41.053744 
" clip-path="url(#p7b2b48c4d2)" style="fill: none; stroke: #b0b0b0; stroke-width: 0.8; stroke-linecap: square"/>
     </g>
     <g id="line2d_26">
      <g>
       <use xlink:href="#ma308668017" x="90" y="41.053744" style="stroke: #000000; stroke-width: 0.8"/>
      </g>
     </g>
     <g id="text_13">
      <!-- 7000 -->
      <g transform="translate(57.55 44.852963) scale(0.1 -0.1)">
       <defs>
        <path id="DejaVuSans-37" d="M 525 4666 
L 3525 4666 
L 3525 4397 
L 1831 0 
L 1172 0 
L 2766 4134 
L 525 4134 
L 525 4666 
z
" transform="scale(0.015625)"/>
       </defs>
       <use xlink:href="#DejaVuSans-37"/>
       <use xlink:href="#DejaVuSans-30" x="63.623047"/>
       <use xlink:href="#DejaVuSans-30" x="127.246094"/>
       <use xlink:href="#DejaVuSans-30" x="190.869141"/>
      </g>
     </g>
    </g>
   </g>
   <g id="patch_53">
    <path d="M 90 192.24 
L 90 25.92 
" style="fill: none; stroke: #000000; stroke-width: 0.8; stroke-linejoin: miter; stroke-linecap: square"/>
   </g>
   <g id="patch_54">
    <path d="M 343.636364 192.24 
L 343.636364 25.92 
" style="fill: none; stroke: #000000; stroke-width: 0.8; stroke-linejoin: miter; stroke-linecap: square"/>
   </g>
   <g id="patch_55">
    <path d="M 90 192.24 
L 343.636364 192.24 
" style="fill: none; stroke: #000000; stroke-width: 0.8; stroke-linejoin: miter; stroke-linecap: square"/>
   </g>
   <g id="patch_56">
    <path d="M 90 25.92 
L 343.636364 25.92 
" style="fill: none; stroke: #000000; stroke-width: 0.8; stroke-linejoin: miter; stroke-linecap: square"/>
   </g>
   <g id="text_14">
    <!-- Internal -->
    <g transform="translate(193.693807 19.92) scale(0.12 -0.12)">
     <defs>
      <path id="DejaVuSans-49" d="M 628 4666 
L 1259 4666 
L 1259 0 
L 628 0 
L 628 4666 
z
" transform="scale(0.015625)"/>
      <path id="DejaVuSans-6e" d="M 3513 2113 
L 3513 0 
L 2938 0 
L 2938 2094 
Q 2938 2591 2744 2837 
Q 2550 3084 2163 3084 
Q 1697 3084 1428 2787 
Q 1159 2491 1159 1978 
L 1159 0 
L 581 0 
L 581 3500 
L 1159 3500 
L 1159 2956 
Q 1366 3272 1645 3428 
Q 1925 3584 2291 3584 
Q 2894 3584 3203 3211 
Q 3513 2838 3513 2113 
z
" transform="scale(0.015625)"/>
      <path id="DejaVuSans-74" d="M 1172 4494 
L 1172 3500 
L 2356 3500 
L 2356 3053 
L 1172 3053 
L 1172 1153 
Q 1172 725 1289 603 
Q 1406 481 1766 481 
L 2356 481 
L 2356 0 
L 1766 0 
Q 1100 0 847 248 
Q 594 497 594 1153 
L 594 3053 
L 172 3053 
L 172 3500 
L 594 3500 
L 594 4494 
L 1172 4494 
z
" transform="scale(0.015625)"/>
      <path id="DejaVuSans-65" d="M 3597 1894 
L 3597 1613 
L 953 1613 
Q 991 1019 1311 708 
Q 1631 397 2203 397 
Q 2534 397 2845 478 
Q 3156 559 3463 722 
L 3463 178 
Q 3153 47 2828 -22 
Q 2503 -91 2169 -91 
Q 1331 -91 842 396 
Q 353 884 353 1716 
Q 353 2575 817 3079 
Q 1281 3584 2069 3584 
Q 2775 3584 3186 3129 
Q 3597 2675 3597 1894 
z
M 3022 2063 
Q 3016 2534 2758 2815 
Q 2500 3097 2075 3097 
Q 1594 3097 1305 2825 
Q 1016 2553 972 2059 
L 3022 2063 
z
" transform="scale(0.015625)"/>
      <path id="DejaVuSans-72" d="M 2631 2963 
Q 2534 3019 2420 3045 
Q 2306 3072 2169 3072 
Q 1681 3072 1420 2755 
Q 1159 2438 1159 1844 
L 1159 0 
L 581 0 
L 581 3500 
L 1159 3500 
L 1159 2956 
Q 1341 3275 1631 3429 
Q 1922 3584 2338 3584 
Q 2397 3584 2469 3576 
Q 2541 3569 2628 3553 
L 2631 2963 
z
" transform="scale(0.015625)"/>
      <path id="DejaVuSans-61" d="M 2194 1759 
Q 1497 1759 1228 1600 
Q 959 1441 959 1056 
Q 959 750 1161 570 
Q 1363 391 1709 391 
Q 2188 391 2477 730 
Q 2766 1069 2766 1631 
L 2766 1759 
L 2194 1759 
z
M 3341 1997 
L 3341 0 
L 2766 0 
L 2766 531 
Q 2569 213 2275 61 
Q 1981 -91 1556 -91 
Q 1019 -91 701 211 
Q 384 513 384 1019 
Q 384 1609 779 1909 
Q 1175 2209 1959 2209 
L 2766 2209 
L 2766 2266 
Q 2766 2663 2505 2880 
Q 2244 3097 1772 3097 
Q 1472 3097 1187 3025 
Q 903 2953 641 2809 
L 641 3341 
Q 956 3463 1253 3523 
Q 1550 3584 1831 3584 
Q 2591 3584 2966 3190 
Q 3341 2797 3341 1997 
z
" transform="scale(0.015625)"/>
      <path id="DejaVuSans-6c" d="M 603 4863 
L 1178 4863 
L 1178 0 
L 603 0 
L 603 4863 
z
" transform="scale(0.015625)"/>
     </defs>
     <use xlink:href="#DejaVuSans-49"/>
     <use xlink:href="#DejaVuSans-6e" x="29.492188"/>
     <use xlink:href="#DejaVuSans-74" x="92.871094"/>
     <use xlink:href="#DejaVuSans-65" x="132.080078"/>
     <use xlink:href="#DejaVuSans-72" x="193.603516"/>
     <use xlink:href="#DejaVuSans-6e" x="232.966797"/>
     <use xlink:href="#DejaVuSans-61" x="296.345703"/>
     <use xlink:href="#DejaVuSans-6c" x="357.625"/>
    </g>
   </g>
  </g>
  <g id="axes_2">
   <g id="patch_57">
    <path d="M 394.363636 192.24 
L 648 192.24 
L 648 25.92 
L 394.363636 25.92 
z
" style="fill: #ffffff"/>
   </g>
   <g id="patch_58">
    <path d="M 405.892562 192.24 
L 410.504132 192.24 
L 410.504132 192.160721 
L 405.892562 192.160721 
z
" clip-path="url(#p64a16814d3)" style="fill: #1f77b4"/>
   </g>
   <g id="patch_59">
    <path d="M 410.504132 192.24 
L 415.115702 192.24 
L 415.115702 192.180541 
L 410.504132 192.180541 
z
" clip-path="url(#p64a16814d3)" style="fill: #1f77b4"/>
   </g>
   <g id="patch_60">
    <path d="M 415.115702 192.24 
L 419.727273 192.24 
L 419.727273 192.24 
L 415.115702 192.24 
z
" clip-path="url(#p64a16814d3)" style="fill: #1f77b4"/>
   </g>
   <g id="patch_61">
    <path d="M 419.727273 192.24 
L 424.338843 192.24 
L 424.338843 192.22018 
L 419.727273 192.22018 
z
" clip-path="url(#p64a16814d3)" style="fill: #1f77b4"/>
   </g>
   <g id="patch_62">
    <path d="M 424.338843 192.24 
L 428.950413 192.24 
L 428.950413 192.140901 
L 424.338843 192.140901 
z
" clip-path="url(#p64a16814d3)" style="fill: #1f77b4"/>
   </g>
   <g id="patch_63">
    <path d="M 428.950413 192.24 
L 433.561983 192.24 
L 433.561983 192.160721 
L 428.950413 192.160721 
z
" clip-path="url(#p64a16814d3)" style="fill: #1f77b4"/>
   </g>
   <g id="patch_64">
    <path d="M 433.561983 192.24 
L 438.173554 192.24 
L 438.173554 192.121081 
L 433.561983 192.121081 
z
" clip-path="url(#p64a16814d3)" style="fill: #1f77b4"/>
   </g>
   <g id="patch_65">
    <path d="M 438.173554 192.24 
L 442.785124 192.24 
L 442.785124 192.101261 
L 438.173554 192.101261 
z
" clip-path="url(#p64a16814d3)" style="fill: #1f77b4"/>
   </g>
   <g id="patch_66">
    <path d="M 442.785124 192.24 
L 447.396694 192.24 
L 447.396694 192.061622 
L 442.785124 192.061622 
z
" clip-path="url(#p64a16814d3)" style="fill: #1f77b4"/>
   </g>
   <g id="patch_67">
    <path d="M 447.396694 192.24 
L 452.008264 192.24 
L 452.008264 191.903063 
L 447.396694 191.903063 
z
" clip-path="url(#p64a16814d3)" style="fill: #1f77b4"/>
   </g>
   <g id="patch_68">
    <path d="M 452.008264 192.24 
L 456.619835 192.24 
L 456.619835 191.922883 
L 452.008264 191.922883 
z
" clip-path="url(#p64a16814d3)" style="fill: #1f77b4"/>
   </g>
   <g id="patch_69">
    <path d="M 456.619835 192.24 
L 461.231405 192.24 
L 461.231405 191.843604 
L 456.619835 191.843604 
z
" clip-path="url(#p64a16814d3)" style="fill: #1f77b4"/>
   </g>
   <g id="patch_70">
    <path d="M 461.231405 192.24 
L 465.842975 192.24 
L 465.842975 191.843604 
L 461.231405 191.843604 
z
" clip-path="url(#p64a16814d3)" style="fill: #1f77b4"/>
   </g>
   <g id="patch_71">
    <path d="M 465.842975 192.24 
L 470.454545 192.24 
L 470.454545 191.704865 
L 465.842975 191.704865 
z
" clip-path="url(#p64a16814d3)" style="fill: #1f77b4"/>
   </g>
   <g id="patch_72">
    <path d="M 470.454545 192.24 
L 475.066116 192.24 
L 475.066116 191.704865 
L 470.454545 191.704865 
z
" clip-path="url(#p64a16814d3)" style="fill: #1f77b4"/>
   </g>
   <g id="patch_73">
    <path d="M 475.066116 192.24 
L 479.677686 192.24 
L 479.677686 191.546306 
L 475.066116 191.546306 
z
" clip-path="url(#p64a16814d3)" style="fill: #1f77b4"/>
   </g>
   <g id="patch_74">
    <path d="M 479.677686 192.24 
L 484.289256 192.24 
L 484.289256 191.229189 
L 479.677686 191.229189 
z
" clip-path="url(#p64a16814d3)" style="fill: #1f77b4"/>
   </g>
   <g id="patch_75">
    <path d="M 484.289256 192.24 
L 488.900826 192.24 
L 488.900826 190.694054 
L 484.289256 190.694054 
z
" clip-path="url(#p64a16814d3)" style="fill: #1f77b4"/>
   </g>
   <g id="patch_76">
    <path d="M 488.900826 192.24 
L 493.512397 192.24 
L 493.512397 190.832793 
L 488.900826 190.832793 
z
" clip-path="url(#p64a16814d3)" style="fill: #1f77b4"/>
   </g>
   <g id="patch_77">
    <path d="M 493.512397 192.24 
L 498.123967 192.24 
L 498.123967 190.753514 
L 493.512397 190.753514 
z
" clip-path="url(#p64a16814d3)" style="fill: #1f77b4"/>
   </g>
   <g id="patch_78">
    <path d="M 498.123967 192.24 
L 502.735537 192.24 
L 502.735537 191.229189 
L 498.123967 191.229189 
z
" clip-path="url(#p64a16814d3)" style="fill: #1f77b4"/>
   </g>
   <g id="patch_79">
    <path d="M 502.735537 192.24 
L 507.347107 192.24 
L 507.347107 191.268829 
L 502.735537 191.268829 
z
" clip-path="url(#p64a16814d3)" style="fill: #1f77b4"/>
   </g>
   <g id="patch_80">
    <path d="M 507.347107 192.24 
L 511.958678 192.24 
L 511.958678 190.654414 
L 507.347107 190.654414 
z
" clip-path="url(#p64a16814d3)" style="fill: #1f77b4"/>
   </g>
   <g id="patch_81">
    <path d="M 511.958678 192.24 
L 516.570248 192.24 
L 516.570248 190.476036 
L 511.958678 190.476036 
z
" clip-path="url(#p64a16814d3)" style="fill: #1f77b4"/>
   </g>
   <g id="patch_82">
    <path d="M 516.570248 192.24 
L 521.181818 192.24 
L 521.181818 190.575135 
L 516.570248 190.575135 
z
" clip-path="url(#p64a16814d3)" style="fill: #1f77b4"/>
   </g>
   <g id="patch_83">
    <path d="M 521.181818 192.24 
L 525.793388 192.24 
L 525.793388 189.108468 
L 521.181818 189.108468 
z
" clip-path="url(#p64a16814d3)" style="fill: #1f77b4"/>
   </g>
   <g id="patch_84">
    <path d="M 525.793388 192.24 
L 530.404959 192.24 
L 530.404959 187.086847 
L 525.793388 187.086847 
z
" clip-path="url(#p64a16814d3)" style="fill: #1f77b4"/>
   </g>
   <g id="patch_85">
    <path d="M 530.404959 192.24 
L 535.016529 192.24 
L 535.016529 183.340901 
L 530.404959 183.340901 
z
" clip-path="url(#p64a16814d3)" style="fill: #1f77b4"/>
   </g>
   <g id="patch_86">
    <path d="M 535.016529 192.24 
L 539.628099 192.24 
L 539.628099 175.432793 
L 535.016529 175.432793 
z
" clip-path="url(#p64a16814d3)" style="fill: #1f77b4"/>
   </g>
   <g id="patch_87">
    <path d="M 539.628099 192.24 
L 544.239669 192.24 
L 544.239669 158.546306 
L 539.628099 158.546306 
z
" clip-path="url(#p64a16814d3)" style="fill: #1f77b4"/>
   </g>
   <g id="patch_88">
    <path d="M 544.239669 192.24 
L 548.85124 192.24 
L 548.85124 33.84 
L 544.239669 33.84 
z
" clip-path="url(#p64a16814d3)" style="fill: #1f77b4"/>
   </g>
   <g id="patch_89">
    <path d="M 548.85124 192.24 
L 553.46281 192.24 
L 553.46281 143.939099 
L 548.85124 143.939099 
z
" clip-path="url(#p64a16814d3)" style="fill: #1f77b4"/>
   </g>
   <g id="patch_90">
    <path d="M 553.46281 192.24 
L 558.07438 192.24 
L 558.07438 156.643604 
L 553.46281 156.643604 
z
" clip-path="url(#p64a16814d3)" style="fill: #1f77b4"/>
   </g>
   <g id="patch_91">
    <path d="M 558.07438 192.24 
L 562.68595 192.24 
L 562.68595 167.445405 
L 558.07438 167.445405 
z
" clip-path="url(#p64a16814d3)" style="fill: #1f77b4"/>
   </g>
   <g id="patch_92">
    <path d="M 562.68595 192.24 
L 567.297521 192.24 
L 567.297521 173.787748 
L 562.68595 173.787748 
z
" clip-path="url(#p64a16814d3)" style="fill: #1f77b4"/>
   </g>
   <g id="patch_93">
    <path d="M 567.297521 192.24 
L 571.909091 192.24 
L 571.909091 177.137297 
L 567.297521 177.137297 
z
" clip-path="url(#p64a16814d3)" style="fill: #1f77b4"/>
   </g>
   <g id="patch_94">
    <path d="M 571.909091 192.24 
L 576.520661 192.24 
L 576.520661 181.854414 
L 571.909091 181.854414 
z
" clip-path="url(#p64a16814d3)" style="fill: #1f77b4"/>
   </g>
   <g id="patch_95">
    <path d="M 576.520661 192.24 
L 581.132231 192.24 
L 581.132231 185.124685 
L 576.520661 185.124685 
z
" clip-path="url(#p64a16814d3)" style="fill: #1f77b4"/>
   </g>
   <g id="patch_96">
    <path d="M 581.132231 192.24 
L 585.743802 192.24 
L 585.743802 187.998559 
L 581.132231 187.998559 
z
" clip-path="url(#p64a16814d3)" style="fill: #1f77b4"/>
   </g>
   <g id="patch_97">
    <path d="M 585.743802 192.24 
L 590.355372 192.24 
L 590.355372 189.366126 
L 585.743802 189.366126 
z
" clip-path="url(#p64a16814d3)" style="fill: #1f77b4"/>
   </g>
   <g id="patch_98">
    <path d="M 590.355372 192.24 
L 594.966942 192.24 
L 594.966942 190.476036 
L 590.355372 190.476036 
z
" clip-path="url(#p64a16814d3)" style="fill: #1f77b4"/>
   </g>
   <g id="patch_99">
    <path d="M 594.966942 192.24 
L 599.578512 192.24 
L 599.578512 190.912072 
L 594.966942 190.912072 
z
" clip-path="url(#p64a16814d3)" style="fill: #1f77b4"/>
   </g>
   <g id="patch_100">
    <path d="M 599.578512 192.24 
L 604.190083 192.24 
L 604.190083 191.427387 
L 599.578512 191.427387 
z
" clip-path="url(#p64a16814d3)" style="fill: #1f77b4"/>
   </g>
   <g id="patch_101">
    <path d="M 604.190083 192.24 
L 608.801653 192.24 
L 608.801653 191.922883 
L 604.190083 191.922883 
z
" clip-path="url(#p64a16814d3)" style="fill: #1f77b4"/>
   </g>
   <g id="patch_102">
    <path d="M 608.801653 192.24 
L 613.413223 192.24 
L 613.413223 191.962523 
L 608.801653 191.962523 
z
" clip-path="url(#p64a16814d3)" style="fill: #1f77b4"/>
   </g>
   <g id="patch_103">
    <path d="M 613.413223 192.24 
L 618.024793 192.24 
L 618.024793 191.982342 
L 613.413223 191.982342 
z
" clip-path="url(#p64a16814d3)" style="fill: #1f77b4"/>
   </g>
   <g id="patch_104">
    <path d="M 618.024793 192.24 
L 622.636364 192.24 
L 622.636364 192.081441 
L 618.024793 192.081441 
z
" clip-path="url(#p64a16814d3)" style="fill: #1f77b4"/>
   </g>
   <g id="patch_105">
    <path d="M 622.636364 192.24 
L 627.247934 192.24 
L 627.247934 192.140901 
L 622.636364 192.140901 
z
" clip-path="url(#p64a16814d3)" style="fill: #1f77b4"/>
   </g>
   <g id="patch_106">
    <path d="M 627.247934 192.24 
L 631.859504 192.24 
L 631.859504 192.22018 
L 627.247934 192.22018 
z
" clip-path="url(#p64a16814d3)" style="fill: #1f77b4"/>
   </g>
   <g id="patch_107">
    <path d="M 631.859504 192.24 
L 636.471074 192.24 
L 636.471074 192.20036 
L 631.859504 192.20036 
z
" clip-path="url(#p64a16814d3)" style="fill: #1f77b4"/>
   </g>
   <g id="matplotlib.axis_3">
    <g id="xtick_6">
     <g id="line2d_27">
      <path d="M 395.478304 192.24 
L 395.478304 25.92 
" clip-path="url(#p64a16814d3)" style="fill: none; stroke: #b0b0b0; stroke-width: 0.8; stroke-linecap: square"/>
     </g>
     <g id="line2d_28">
      <g>
       <use xlink:href="#mac0967aab2" x="395.478304" y="192.24" style="stroke: #000000; stroke-width: 0.8"/>
      </g>
     </g>
     <g id="text_15">
      <!-- −0.3 -->
      <g transform="translate(383.336898 206.838437) scale(0.1 -0.1)">
       <use xlink:href="#DejaVuSans-2212"/>
       <use xlink:href="#DejaVuSans-30" x="83.789062"/>
       <use xlink:href="#DejaVuSans-2e" x="147.412109"/>
       <use xlink:href="#DejaVuSans-33" x="179.199219"/>
      </g>
     </g>
    </g>
    <g id="xtick_7">
     <g id="line2d_29">
      <path d="M 445.570628 192.24 
L 445.570628 25.92 
" clip-path="url(#p64a16814d3)" style="fill: none; stroke: #b0b0b0; stroke-width: 0.8; stroke-linecap: square"/>
     </g>
     <g id="line2d_30">
      <g>
       <use xlink:href="#mac0967aab2" x="445.570628" y="192.24" style="stroke: #000000; stroke-width: 0.8"/>
      </g>
     </g>
     <g id="text_16">
      <!-- −0.2 -->
      <g transform="translate(433.429222 206.838437) scale(0.1 -0.1)">
       <use xlink:href="#DejaVuSans-2212"/>
       <use xlink:href="#DejaVuSans-30" x="83.789062"/>
       <use xlink:href="#DejaVuSans-2e" x="147.412109"/>
       <use xlink:href="#DejaVuSans-32" x="179.199219"/>
      </g>
     </g>
    </g>
    <g id="xtick_8">
     <g id="line2d_31">
      <path d="M 495.662952 192.24 
L 495.662952 25.92 
" clip-path="url(#p64a16814d3)" style="fill: none; stroke: #b0b0b0; stroke-width: 0.8; stroke-linecap: square"/>
     </g>
     <g id="line2d_32">
      <g>
       <use xlink:href="#mac0967aab2" x="495.662952" y="192.24" style="stroke: #000000; stroke-width: 0.8"/>
      </g>
     </g>
     <g id="text_17">
      <!-- −0.1 -->
      <g transform="translate(483.521546 206.838437) scale(0.1 -0.1)">
       <use xlink:href="#DejaVuSans-2212"/>
       <use xlink:href="#DejaVuSans-30" x="83.789062"/>
       <use xlink:href="#DejaVuSans-2e" x="147.412109"/>
       <use xlink:href="#DejaVuSans-31" x="179.199219"/>
      </g>
     </g>
    </g>
    <g id="xtick_9">
     <g id="line2d_33">
      <path d="M 545.755276 192.24 
L 545.755276 25.92 
" clip-path="url(#p64a16814d3)" style="fill: none; stroke: #b0b0b0; stroke-width: 0.8; stroke-linecap: square"/>
     </g>
     <g id="line2d_34">
      <g>
       <use xlink:href="#mac0967aab2" x="545.755276" y="192.24" style="stroke: #000000; stroke-width: 0.8"/>
      </g>
     </g>
     <g id="text_18">
      <!-- 0.0 -->
      <g transform="translate(537.803714 206.838437) scale(0.1 -0.1)">
       <use xlink:href="#DejaVuSans-30"/>
       <use xlink:href="#DejaVuSans-2e" x="63.623047"/>
       <use xlink:href="#DejaVuSans-30" x="95.410156"/>
      </g>
     </g>
    </g>
    <g id="xtick_10">
     <g id="line2d_35">
      <path d="M 595.8476 192.24 
L 595.8476 25.92 
" clip-path="url(#p64a16814d3)" style="fill: none; stroke: #b0b0b0; stroke-width: 0.8; stroke-linecap: square"/>
     </g>
     <g id="line2d_36">
      <g>
       <use xlink:href="#mac0967aab2" x="595.8476" y="192.24" style="stroke: #000000; stroke-width: 0.8"/>
      </g>
     </g>
     <g id="text_19">
      <!-- 0.1 -->
      <g transform="translate(587.896038 206.838437) scale(0.1 -0.1)">
       <use xlink:href="#DejaVuSans-30"/>
       <use xlink:href="#DejaVuSans-2e" x="63.623047"/>
       <use xlink:href="#DejaVuSans-31" x="95.410156"/>
      </g>
     </g>
    </g>
    <g id="xtick_11">
     <g id="line2d_37">
      <path d="M 645.939924 192.24 
L 645.939924 25.92 
" clip-path="url(#p64a16814d3)" style="fill: none; stroke: #b0b0b0; stroke-width: 0.8; stroke-linecap: square"/>
     </g>
     <g id="line2d_38">
      <g>
       <use xlink:href="#mac0967aab2" x="645.939924" y="192.24" style="stroke: #000000; stroke-width: 0.8"/>
      </g>
     </g>
     <g id="text_20">
      <!-- 0.2 -->
      <g transform="translate(637.988362 206.838437) scale(0.1 -0.1)">
       <use xlink:href="#DejaVuSans-30"/>
       <use xlink:href="#DejaVuSans-2e" x="63.623047"/>
       <use xlink:href="#DejaVuSans-32" x="95.410156"/>
      </g>
     </g>
    </g>
   </g>
   <g id="matplotlib.axis_4">
    <g id="ytick_9">
     <g id="line2d_39">
      <path d="M 394.363636 192.24 
L 648 192.24 
" clip-path="url(#p64a16814d3)" style="fill: none; stroke: #b0b0b0; stroke-width: 0.8; stroke-linecap: square"/>
     </g>
     <g id="line2d_40">
      <g>
       <use xlink:href="#ma308668017" x="394.363636" y="192.24" style="stroke: #000000; stroke-width: 0.8"/>
      </g>
     </g>
     <g id="text_21">
      <!-- 0 -->
      <g transform="translate(381.001136 196.039219) scale(0.1 -0.1)">
       <use xlink:href="#DejaVuSans-30"/>
      </g>
     </g>
    </g>
    <g id="ytick_10">
     <g id="line2d_41">
      <path d="M 394.363636 152.60036 
L 648 152.60036 
" clip-path="url(#p64a16814d3)" style="fill: none; stroke: #b0b0b0; stroke-width: 0.8; stroke-linecap: square"/>
     </g>
     <g id="line2d_42">
      <g>
       <use xlink:href="#ma308668017" x="394.363636" y="152.60036" style="stroke: #000000; stroke-width: 0.8"/>
      </g>
     </g>
     <g id="text_22">
      <!-- 2000 -->
      <g transform="translate(361.913636 156.399579) scale(0.1 -0.1)">
       <use xlink:href="#DejaVuSans-32"/>
       <use xlink:href="#DejaVuSans-30" x="63.623047"/>
       <use xlink:href="#DejaVuSans-30" x="127.246094"/>
       <use xlink:href="#DejaVuSans-30" x="190.869141"/>
      </g>
     </g>
    </g>
    <g id="ytick_11">
     <g id="line2d_43">
      <path d="M 394.363636 112.960721 
L 648 112.960721 
" clip-path="url(#p64a16814d3)" style="fill: none; stroke: #b0b0b0; stroke-width: 0.8; stroke-linecap: square"/>
     </g>
     <g id="line2d_44">
      <g>
       <use xlink:href="#ma308668017" x="394.363636" y="112.960721" style="stroke: #000000; stroke-width: 0.8"/>
      </g>
     </g>
     <g id="text_23">
      <!-- 4000 -->
      <g transform="translate(361.913636 116.759939) scale(0.1 -0.1)">
       <use xlink:href="#DejaVuSans-34"/>
       <use xlink:href="#DejaVuSans-30" x="63.623047"/>
       <use xlink:href="#DejaVuSans-30" x="127.246094"/>
       <use xlink:href="#DejaVuSans-30" x="190.869141"/>
      </g>
     </g>
    </g>
    <g id="ytick_12">
     <g id="line2d_45">
      <path d="M 394.363636 73.321081 
L 648 73.321081 
" clip-path="url(#p64a16814d3)" style="fill: none; stroke: #b0b0b0; stroke-width: 0.8; stroke-linecap: square"/>
     </g>
     <g id="line2d_46">
      <g>
       <use xlink:href="#ma308668017" x="394.363636" y="73.321081" style="stroke: #000000; stroke-width: 0.8"/>
      </g>
     </g>
     <g id="text_24">
      <!-- 6000 -->
      <g transform="translate(361.913636 77.1203) scale(0.1 -0.1)">
       <use xlink:href="#DejaVuSans-36"/>
       <use xlink:href="#DejaVuSans-30" x="63.623047"/>
       <use xlink:href="#DejaVuSans-30" x="127.246094"/>
       <use xlink:href="#DejaVuSans-30" x="190.869141"/>
      </g>
     </g>
    </g>
    <g id="ytick_13">
     <g id="line2d_47">
      <path d="M 394.363636 33.681441 
L 648 33.681441 
" clip-path="url(#p64a16814d3)" style="fill: none; stroke: #b0b0b0; stroke-width: 0.8; stroke-linecap: square"/>
     </g>
     <g id="line2d_48">
      <g>
       <use xlink:href="#ma308668017" x="394.363636" y="33.681441" style="stroke: #000000; stroke-width: 0.8"/>
      </g>
     </g>
     <g id="text_25">
      <!-- 8000 -->
      <g transform="translate(361.913636 37.48066) scale(0.1 -0.1)">
       <defs>
        <path id="DejaVuSans-38" d="M 2034 2216 
Q 1584 2216 1326 1975 
Q 1069 1734 1069 1313 
Q 1069 891 1326 650 
Q 1584 409 2034 409 
Q 2484 409 2743 651 
Q 3003 894 3003 1313 
Q 3003 1734 2745 1975 
Q 2488 2216 2034 2216 
z
M 1403 2484 
Q 997 2584 770 2862 
Q 544 3141 544 3541 
Q 544 4100 942 4425 
Q 1341 4750 2034 4750 
Q 2731 4750 3128 4425 
Q 3525 4100 3525 3541 
Q 3525 3141 3298 2862 
Q 3072 2584 2669 2484 
Q 3125 2378 3379 2068 
Q 3634 1759 3634 1313 
Q 3634 634 3220 271 
Q 2806 -91 2034 -91 
Q 1263 -91 848 271 
Q 434 634 434 1313 
Q 434 1759 690 2068 
Q 947 2378 1403 2484 
z
M 1172 3481 
Q 1172 3119 1398 2916 
Q 1625 2713 2034 2713 
Q 2441 2713 2670 2916 
Q 2900 3119 2900 3481 
Q 2900 3844 2670 4047 
Q 2441 4250 2034 4250 
Q 1625 4250 1398 4047 
Q 1172 3844 1172 3481 
z
" transform="scale(0.015625)"/>
       </defs>
       <use xlink:href="#DejaVuSans-38"/>
       <use xlink:href="#DejaVuSans-30" x="63.623047"/>
       <use xlink:href="#DejaVuSans-30" x="127.246094"/>
       <use xlink:href="#DejaVuSans-30" x="190.869141"/>
      </g>
     </g>
    </g>
   </g>
   <g id="patch_108">
    <path d="M 394.363636 192.24 
L 394.363636 25.92 
" style="fill: none; stroke: #000000; stroke-width: 0.8; stroke-linejoin: miter; stroke-linecap: square"/>
   </g>
   <g id="patch_109">
    <path d="M 648 192.24 
L 648 25.92 
" style="fill: none; stroke: #000000; stroke-width: 0.8; stroke-linejoin: miter; stroke-linecap: square"/>
   </g>
   <g id="patch_110">
    <path d="M 394.363636 192.24 
L 648 192.24 
" style="fill: none; stroke: #000000; stroke-width: 0.8; stroke-linejoin: miter; stroke-linecap: square"/>
   </g>
   <g id="patch_111">
    <path d="M 394.363636 25.92 
L 648 25.92 
" style="fill: none; stroke: #000000; stroke-width: 0.8; stroke-linejoin: miter; stroke-linecap: square"/>
   </g>
   <g id="text_26">
    <!-- External -->
    <g transform="translate(496.287443 19.92) scale(0.12 -0.12)">
     <defs>
      <path id="DejaVuSans-45" d="M 628 4666 
L 3578 4666 
L 3578 4134 
L 1259 4134 
L 1259 2753 
L 3481 2753 
L 3481 2222 
L 1259 2222 
L 1259 531 
L 3634 531 
L 3634 0 
L 628 0 
L 628 4666 
z
" transform="scale(0.015625)"/>
      <path id="DejaVuSans-78" d="M 3513 3500 
L 2247 1797 
L 3578 0 
L 2900 0 
L 1881 1375 
L 863 0 
L 184 0 
L 1544 1831 
L 300 3500 
L 978 3500 
L 1906 2253 
L 2834 3500 
L 3513 3500 
z
" transform="scale(0.015625)"/>
     </defs>
     <use xlink:href="#DejaVuSans-45"/>
     <use xlink:href="#DejaVuSans-78" x="63.183594"/>
     <use xlink:href="#DejaVuSans-74" x="122.363281"/>
     <use xlink:href="#DejaVuSans-65" x="161.572266"/>
     <use xlink:href="#DejaVuSans-72" x="223.095703"/>
     <use xlink:href="#DejaVuSans-6e" x="262.458984"/>
     <use xlink:href="#DejaVuSans-61" x="325.837891"/>
     <use xlink:href="#DejaVuSans-6c" x="387.117188"/>
    </g>
   </g>
  </g>
 </g>
 <defs>
  <clipPath id="p7b2b48c4d2">
   <rect x="90" y="25.92" width="253.636364" height="166.32"/>
  </clipPath>
  <clipPath id="p64a16814d3">
   <rect x="394.363636" y="25.92" width="253.636364" height="166.32"/>
  </clipPath>
 </defs>
</svg>
