<?xml version="1.0" encoding="utf-8" standalone="no"?>
<!DOCTYPE svg PUBLIC "-//W3C//DTD SVG 1.1//EN"
  "http://www.w3.org/Graphics/SVG/1.1/DTD/svg11.dtd">
<svg xmlns:xlink="http://www.w3.org/1999/xlink" width="460.8pt" height="460.8pt" viewBox="0 0 460.8 460.8" xmlns="http://www.w3.org/2000/svg" version="1.1">
 <metadata>
  <rdf:RDF xmlns:dc="http://purl.org/dc/elements/1.1/" xmlns:cc="http://creativecommons.org/ns#" xmlns:rdf="http://www.w3.org/1999/02/22-rdf-syntax-ns#">
   <cc:Work>
    <dc:type rdf:resource="http://purl.org/dc/dcmitype/StillImage"/>
    <dc:date>2024-03-13T19:54:46.853902</dc:date>
    <dc:format>image/svg+xml</dc:format>
    <dc:creator>
     <cc:Agent>
      <dc:title>Matplotlib v3.8.2, https://matplotlib.org/</dc:title>
     </cc:Agent>
    </dc:creator>
   </cc:Work>
  </rdf:RDF>
 </metadata>
 <defs>
  <style type="text/css">*{stroke-linejoin: round; stroke-linecap: butt}</style>
 </defs>
 <g id="figure_1">
  <g id="patch_1">
   <path d="M 0 460.8 
L 460.8 460.8 
L 460.8 0 
L 0 0 
z
" style="fill: #ffffff"/>
  </g>
  <g id="axes_1">
   <g id="PathCollection_1">
    <defs>
     <path id="C0_0_3a6fb749f3" d="M 0 2.5 
C 0.663008 2.5 1.29895 2.236584 1.767767 1.767767 
C 2.236584 1.29895 2.5 0.663008 2.5 -0 
C 2.5 -0.663008 2.236584 -1.29895 1.767767 -1.767767 
C 1.29895 -2.236584 0.663008 -2.5 0 -2.5 
C -0.663008 -2.5 -1.29895 -2.236584 -1.767767 -1.767767 
C -2.236584 -1.29895 -2.5 -0.663008 -2.5 0 
C -2.5 0.663008 -2.236584 1.29895 -1.767767 1.767767 
C -1.29895 2.236584 -0.663008 2.5 0 2.5 
z
"/>
    </defs>
    <use xlink:href="#C0_0_3a6fb749f3" x="174.822842" y="57.950714" style="stroke: #000000; stroke-width: 2"/>
    <use xlink:href="#C0_0_3a6fb749f3" x="222.758081" y="54.353209" style="stroke: #000000; stroke-width: 2"/>
    <use xlink:href="#C0_0_3a6fb749f3" x="270.936291" y="56.586322" style="stroke: #000000; stroke-width: 2"/>
    <use xlink:href="#C0_0_3a6fb749f3" x="109.379134" y="126.094864" style="stroke: #000000; stroke-width: 2"/>
    <use xlink:href="#C0_0_3a6fb749f3" x="154.640702" y="126.039739" style="stroke: #000000; stroke-width: 2"/>
    <use xlink:href="#C0_0_3a6fb749f3" x="223.29613" y="123.184941" style="stroke: #000000; stroke-width: 2"/>
    <use xlink:href="#C0_0_3a6fb749f3" x="293.227493" y="124.70289" style="stroke: #000000; stroke-width: 2"/>
    <use xlink:href="#C0_0_3a6fb749f3" x="340.136197" y="123.363618" style="stroke: #000000; stroke-width: 2"/>
    <use xlink:href="#C0_0_3a6fb749f3" x="94.932129" y="172.917002" style="stroke: #000000; stroke-width: 2"/>
    <use xlink:href="#C0_0_3a6fb749f3" x="145.173719" y="169.942471" style="stroke: #000000; stroke-width: 2"/>
    <use xlink:href="#C0_0_3a6fb749f3" x="223.331286" y="166.135672" style="stroke: #000000; stroke-width: 2"/>
    <use xlink:href="#C0_0_3a6fb749f3" x="302.94899" y="169.261254" style="stroke: #000000; stroke-width: 2"/>
    <use xlink:href="#C0_0_3a6fb749f3" x="350.926845" y="171.89146" style="stroke: #000000; stroke-width: 2"/>
    <use xlink:href="#C0_0_3a6fb749f3" x="92.979219" y="220.755719" style="stroke: #000000; stroke-width: 2"/>
    <use xlink:href="#C0_0_3a6fb749f3" x="140.963232" y="214.377948" style="stroke: #000000; stroke-width: 2"/>
    <use xlink:href="#C0_0_3a6fb749f3" x="223.255428" y="210.8655" style="stroke: #000000; stroke-width: 2"/>
    <use xlink:href="#C0_0_3a6fb749f3" x="306.408688" y="214.152389" style="stroke: #000000; stroke-width: 2"/>
    <use xlink:href="#C0_0_3a6fb749f3" x="352.167999" y="220.244155" style="stroke: #000000; stroke-width: 2"/>
    <use xlink:href="#C0_0_3a6fb749f3" x="93.972405" y="266.129931" style="stroke: #000000; stroke-width: 2"/>
    <use xlink:href="#C0_0_3a6fb749f3" x="143.765165" y="258.309444" style="stroke: #000000; stroke-width: 2"/>
    <use xlink:href="#C0_0_3a6fb749f3" x="223.086592" y="255.959038" style="stroke: #000000; stroke-width: 2"/>
    <use xlink:href="#C0_0_3a6fb749f3" x="304.967355" y="258.413369" style="stroke: #000000; stroke-width: 2"/>
    <use xlink:href="#C0_0_3a6fb749f3" x="350.437513" y="266.220412" style="stroke: #000000; stroke-width: 2"/>
    <use xlink:href="#C0_0_3a6fb749f3" x="22.85549" y="237.593884" style="stroke: #000000; stroke-width: 2"/>
    <use xlink:href="#C0_0_3a6fb749f3" x="115.802403" y="305.280099" style="stroke: #000000; stroke-width: 2"/>
    <use xlink:href="#C0_0_3a6fb749f3" x="155.844471" y="299.026028" style="stroke: #000000; stroke-width: 2"/>
    <use xlink:href="#C0_0_3a6fb749f3" x="222.831111" y="297.832189" style="stroke: #000000; stroke-width: 2"/>
    <use xlink:href="#C0_0_3a6fb749f3" x="292.027322" y="299.070507" style="stroke: #000000; stroke-width: 2"/>
    <use xlink:href="#C0_0_3a6fb749f3" x="328.400754" y="305.156932" style="stroke: #000000; stroke-width: 2"/>
    <use xlink:href="#C0_0_3a6fb749f3" x="419.960493" y="238.996157" style="stroke: #000000; stroke-width: 2"/>
    <use xlink:href="#C0_0_3a6fb749f3" x="132.714017" y="301.061823" style="stroke: #000000; stroke-width: 2"/>
    <use xlink:href="#C0_0_3a6fb749f3" x="174.799636" y="330.915232" style="stroke: #000000; stroke-width: 2"/>
    <use xlink:href="#C0_0_3a6fb749f3" x="222.498531" y="328.973752" style="stroke: #000000; stroke-width: 2"/>
    <use xlink:href="#C0_0_3a6fb749f3" x="269.766407" y="331.170856" style="stroke: #000000; stroke-width: 2"/>
    <use xlink:href="#C0_0_3a6fb749f3" x="312.081649" y="300.949877" style="stroke: #000000; stroke-width: 2"/>
    <use xlink:href="#C0_0_3a6fb749f3" x="143.202933" y="338.121821" style="stroke: #000000; stroke-width: 2"/>
    <use xlink:href="#C0_0_3a6fb749f3" x="180.628231" y="356.497084" style="stroke: #000000; stroke-width: 2"/>
    <use xlink:href="#C0_0_3a6fb749f3" x="222.062619" y="356.883779" style="stroke: #000000; stroke-width: 2"/>
    <use xlink:href="#C0_0_3a6fb749f3" x="263.586347" y="356.101205" style="stroke: #000000; stroke-width: 2"/>
    <use xlink:href="#C0_0_3a6fb749f3" x="301.452588" y="338.525058" style="stroke: #000000; stroke-width: 2"/>
   </g>
   <g id="line2d_1">
    <path d="M 400.482932 243.570018 
L 400.136425 232.543988 
L 399.098272 221.561472 
L 397.372569 210.665814 
L 394.966128 199.900015 
L 391.888445 189.30656 
L 388.151666 178.927259 
L 383.77054 168.803073 
L 378.762355 158.973958 
L 373.146879 149.478705 
L 366.946271 140.354788 
L 360.185003 131.638214 
L 352.889758 123.363383 
L 345.089329 115.562954 
L 336.814498 108.267709 
L 328.097924 101.506441 
L 318.974007 95.305833 
L 309.478754 89.690357 
L 299.649639 84.682172 
L 289.525453 80.301046 
L 279.146152 76.564268 
L 268.552698 73.486585 
L 257.786898 71.080143 
L 246.89124 69.35444 
L 235.908724 68.316287 
L 224.882694 67.96978 
L 213.856664 68.316287 
L 202.874149 69.35444 
L 191.978491 71.080143 
L 181.212691 73.486585 
L 170.619237 76.564268 
L 160.239935 80.301046 
L 150.115749 84.682172 
L 140.286635 89.690357 
L 130.791382 95.305833 
L 121.667464 101.506441 
L 112.95089 108.267709 
L 104.67606 115.562954 
L 96.87563 123.363383 
L 89.580386 131.638214 
L 82.819118 140.354788 
L 76.61851 149.478705 
L 71.003033 158.973958 
L 65.994849 168.803073 
L 61.613722 178.927259 
L 57.876944 189.30656 
L 54.799261 199.900015 
L 52.39282 210.665814 
L 50.667117 221.561472 
L 49.628964 232.543988 
L 49.282457 243.570018 
L 49.628964 254.596048 
L 50.667117 265.578563 
L 52.39282 276.474221 
L 54.799261 287.240021 
L 57.876944 297.833475 
L 61.613722 308.212777 
L 65.994849 318.336963 
L 71.003033 328.166077 
L 76.61851 337.66133 
L 82.819118 346.785248 
L 89.580386 355.501822 
L 96.87563 363.776652 
L 104.67606 371.577082 
L 112.95089 378.872326 
L 121.667464 385.633594 
L 130.791382 391.834202 
L 140.286635 397.449679 
L 150.115749 402.457863 
L 160.239935 406.83899 
L 170.619237 410.575768 
L 181.212691 413.653451 
L 191.978491 416.059893 
L 202.874149 417.785595 
L 213.856664 418.823749 
L 224.882694 419.170255 
L 235.908724 418.823749 
L 246.89124 417.785595 
L 257.786898 416.059893 
L 268.552698 413.653451 
L 279.146152 410.575768 
L 289.525453 406.83899 
L 299.649639 402.457863 
L 309.478754 397.449679 
L 318.974007 391.834202 
L 328.097924 385.633594 
L 336.814498 378.872326 
L 345.089329 371.577082 
L 352.889758 363.776652 
L 360.185003 355.501822 
L 366.946271 346.785248 
L 373.146879 337.66133 
L 378.762355 328.166077 
L 383.77054 318.336963 
L 388.151666 308.212777 
L 391.888445 297.833475 
L 394.966128 287.240021 
L 397.372569 276.474221 
L 399.098272 265.578563 
L 400.136425 254.596048 
L 400.482932 243.570018 
" style="fill: none; stroke: #000000; stroke-linecap: square"/>
   </g>
   <g id="line2d_2">
    <path d="M 188.105066 71.864312 
L 224.882694 41.629745 
L 261.660322 71.864312 
" style="fill: none; stroke: #000000; stroke-linecap: square"/>
   </g>
   <g id="line2d_3">
    <path d="M 50.336058 224.078391 
L 45.770452 216.351981 
L 42.960848 216.071021 
L 38.781562 217.370462 
L 34.567157 224.078391 
L 35.234438 245.50162 
L 32.776034 276.301902 
L 38.044041 289.68264 
L 45.770452 292.176164 
L 53.145662 285.678955 
" style="fill: none; stroke: #000000; stroke-linecap: square"/>
   </g>
   <g id="line2d_4">
    <path d="M 399.42933 224.078391 
L 403.994937 216.351981 
L 406.80454 216.071021 
L 410.983826 217.370462 
L 415.198232 224.078391 
L 414.530951 245.50162 
L 416.989354 276.301902 
L 411.721347 289.68264 
L 403.994937 292.176164 
L 396.619727 285.678955 
" style="fill: none; stroke: #000000; stroke-linecap: square"/>
   </g>
   <g id="text_1">
    <!-- Fp1 (0) -->
    <g transform="translate(179.443901 60.434152) scale(0.09 -0.09)">
     <defs>
      <path id="DejaVuSans-46" d="M 628 4666 
L 3309 4666 
L 3309 4134 
L 1259 4134 
L 1259 2759 
L 3109 2759 
L 3109 2228 
L 1259 2228 
L 1259 0 
L 628 0 
L 628 4666 
z
" transform="scale(0.015625)"/>
      <path id="DejaVuSans-70" d="M 1159 525 
L 1159 -1331 
L 581 -1331 
L 581 3500 
L 1159 3500 
L 1159 2969 
Q 1341 3281 1617 3432 
Q 1894 3584 2278 3584 
Q 2916 3584 3314 3078 
Q 3713 2572 3713 1747 
Q 3713 922 3314 415 
Q 2916 -91 2278 -91 
Q 1894 -91 1617 61 
Q 1341 213 1159 525 
z
M 3116 1747 
Q 3116 2381 2855 2742 
Q 2594 3103 2138 3103 
Q 1681 3103 1420 2742 
Q 1159 2381 1159 1747 
Q 1159 1113 1420 752 
Q 1681 391 2138 391 
Q 2594 391 2855 752 
Q 3116 1113 3116 1747 
z
" transform="scale(0.015625)"/>
      <path id="DejaVuSans-31" d="M 794 531 
L 1825 531 
L 1825 4091 
L 703 3866 
L 703 4441 
L 1819 4666 
L 2450 4666 
L 2450 531 
L 3481 531 
L 3481 0 
L 794 0 
L 794 531 
z
" transform="scale(0.015625)"/>
      <path id="DejaVuSans-20" transform="scale(0.015625)"/>
      <path id="DejaVuSans-28" d="M 1984 4856 
Q 1566 4138 1362 3434 
Q 1159 2731 1159 2009 
Q 1159 1288 1364 580 
Q 1569 -128 1984 -844 
L 1484 -844 
Q 1016 -109 783 600 
Q 550 1309 550 2009 
Q 550 2706 781 3412 
Q 1013 4119 1484 4856 
L 1984 4856 
z
" transform="scale(0.015625)"/>
      <path id="DejaVuSans-30" d="M 2034 4250 
Q 1547 4250 1301 3770 
Q 1056 3291 1056 2328 
Q 1056 1369 1301 889 
Q 1547 409 2034 409 
Q 2525 409 2770 889 
Q 3016 1369 3016 2328 
Q 3016 3291 2770 3770 
Q 2525 4250 2034 4250 
z
M 2034 4750 
Q 2819 4750 3233 4129 
Q 3647 3509 3647 2328 
Q 3647 1150 3233 529 
Q 2819 -91 2034 -91 
Q 1250 -91 836 529 
Q 422 1150 422 2328 
Q 422 3509 836 4129 
Q 1250 4750 2034 4750 
z
" transform="scale(0.015625)"/>
      <path id="DejaVuSans-29" d="M 513 4856 
L 1013 4856 
Q 1481 4119 1714 3412 
Q 1947 2706 1947 2009 
Q 1947 1309 1714 600 
Q 1481 -109 1013 -844 
L 513 -844 
Q 928 -128 1133 580 
Q 1338 1288 1338 2009 
Q 1338 2731 1133 3434 
Q 928 4138 513 4856 
z
" transform="scale(0.015625)"/>
     </defs>
     <use xlink:href="#DejaVuSans-46"/>
     <use xlink:href="#DejaVuSans-70" x="57.519531"/>
     <use xlink:href="#DejaVuSans-31" x="120.996094"/>
     <use xlink:href="#DejaVuSans-20" x="184.619141"/>
     <use xlink:href="#DejaVuSans-28" x="216.40625"/>
     <use xlink:href="#DejaVuSans-30" x="255.419922"/>
     <use xlink:href="#DejaVuSans-29" x="319.042969"/>
    </g>
   </g>
   <g id="text_2">
    <!-- Fpz (1) -->
    <g transform="translate(227.37914 56.836647) scale(0.09 -0.09)">
     <defs>
      <path id="DejaVuSans-7a" d="M 353 3500 
L 3084 3500 
L 3084 2975 
L 922 459 
L 3084 459 
L 3084 0 
L 275 0 
L 275 525 
L 2438 3041 
L 353 3041 
L 353 3500 
z
" transform="scale(0.015625)"/>
     </defs>
     <use xlink:href="#DejaVuSans-46"/>
     <use xlink:href="#DejaVuSans-70" x="57.519531"/>
     <use xlink:href="#DejaVuSans-7a" x="120.996094"/>
     <use xlink:href="#DejaVuSans-20" x="173.486328"/>
     <use xlink:href="#DejaVuSans-28" x="205.273438"/>
     <use xlink:href="#DejaVuSans-31" x="244.287109"/>
     <use xlink:href="#DejaVuSans-29" x="307.910156"/>
    </g>
   </g>
   <g id="text_3">
    <!-- Fp2 (2) -->
    <g transform="translate(275.55735 59.06976) scale(0.09 -0.09)">
     <defs>
      <path id="DejaVuSans-32" d="M 1228 531 
L 3431 531 
L 3431 0 
L 469 0 
L 469 531 
Q 828 903 1448 1529 
Q 2069 2156 2228 2338 
Q 2531 2678 2651 2914 
Q 2772 3150 2772 3378 
Q 2772 3750 2511 3984 
Q 2250 4219 1831 4219 
Q 1534 4219 1204 4116 
Q 875 4013 500 3803 
L 500 4441 
Q 881 4594 1212 4672 
Q 1544 4750 1819 4750 
Q 2544 4750 2975 4387 
Q 3406 4025 3406 3419 
Q 3406 3131 3298 2873 
Q 3191 2616 2906 2266 
Q 2828 2175 2409 1742 
Q 1991 1309 1228 531 
z
" transform="scale(0.015625)"/>
     </defs>
     <use xlink:href="#DejaVuSans-46"/>
     <use xlink:href="#DejaVuSans-70" x="57.519531"/>
     <use xlink:href="#DejaVuSans-32" x="120.996094"/>
     <use xlink:href="#DejaVuSans-20" x="184.619141"/>
     <use xlink:href="#DejaVuSans-28" x="216.40625"/>
     <use xlink:href="#DejaVuSans-32" x="255.419922"/>
     <use xlink:href="#DejaVuSans-29" x="319.042969"/>
    </g>
   </g>
   <g id="text_4">
    <!-- F7 (3) -->
    <g transform="translate(114.000193 128.578301) scale(0.09 -0.09)">
     <defs>
      <path id="DejaVuSans-37" d="M 525 4666 
L 3525 4666 
L 3525 4397 
L 1831 0 
L 1172 0 
L 2766 4134 
L 525 4134 
L 525 4666 
z
" transform="scale(0.015625)"/>
      <path id="DejaVuSans-33" d="M 2597 2516 
Q 3050 2419 3304 2112 
Q 3559 1806 3559 1356 
Q 3559 666 3084 287 
Q 2609 -91 1734 -91 
Q 1441 -91 1130 -33 
Q 819 25 488 141 
L 488 750 
Q 750 597 1062 519 
Q 1375 441 1716 441 
Q 2309 441 2620 675 
Q 2931 909 2931 1356 
Q 2931 1769 2642 2001 
Q 2353 2234 1838 2234 
L 1294 2234 
L 1294 2753 
L 1863 2753 
Q 2328 2753 2575 2939 
Q 2822 3125 2822 3475 
Q 2822 3834 2567 4026 
Q 2313 4219 1838 4219 
Q 1578 4219 1281 4162 
Q 984 4106 628 3988 
L 628 4550 
Q 988 4650 1302 4700 
Q 1616 4750 1894 4750 
Q 2613 4750 3031 4423 
Q 3450 4097 3450 3541 
Q 3450 3153 3228 2886 
Q 3006 2619 2597 2516 
z
" transform="scale(0.015625)"/>
     </defs>
     <use xlink:href="#DejaVuSans-46"/>
     <use xlink:href="#DejaVuSans-37" x="57.519531"/>
     <use xlink:href="#DejaVuSans-20" x="121.142578"/>
     <use xlink:href="#DejaVuSans-28" x="152.929688"/>
     <use xlink:href="#DejaVuSans-33" x="191.943359"/>
     <use xlink:href="#DejaVuSans-29" x="255.566406"/>
    </g>
   </g>
   <g id="text_5">
    <!-- F3 (4) -->
    <g transform="translate(159.261761 128.523176) scale(0.09 -0.09)">
     <defs>
      <path id="DejaVuSans-34" d="M 2419 4116 
L 825 1625 
L 2419 1625 
L 2419 4116 
z
M 2253 4666 
L 3047 4666 
L 3047 1625 
L 3713 1625 
L 3713 1100 
L 3047 1100 
L 3047 0 
L 2419 0 
L 2419 1100 
L 313 1100 
L 313 1709 
L 2253 4666 
z
" transform="scale(0.015625)"/>
     </defs>
     <use xlink:href="#DejaVuSans-46"/>
     <use xlink:href="#DejaVuSans-33" x="57.519531"/>
     <use xlink:href="#DejaVuSans-20" x="121.142578"/>
     <use xlink:href="#DejaVuSans-28" x="152.929688"/>
     <use xlink:href="#DejaVuSans-34" x="191.943359"/>
     <use xlink:href="#DejaVuSans-29" x="255.566406"/>
    </g>
   </g>
   <g id="text_6">
    <!-- Fz (5) -->
    <g transform="translate(227.917189 125.668379) scale(0.09 -0.09)">
     <defs>
      <path id="DejaVuSans-35" d="M 691 4666 
L 3169 4666 
L 3169 4134 
L 1269 4134 
L 1269 2991 
Q 1406 3038 1543 3061 
Q 1681 3084 1819 3084 
Q 2600 3084 3056 2656 
Q 3513 2228 3513 1497 
Q 3513 744 3044 326 
Q 2575 -91 1722 -91 
Q 1428 -91 1123 -41 
Q 819 9 494 109 
L 494 744 
Q 775 591 1075 516 
Q 1375 441 1709 441 
Q 2250 441 2565 725 
Q 2881 1009 2881 1497 
Q 2881 1984 2565 2268 
Q 2250 2553 1709 2553 
Q 1456 2553 1204 2497 
Q 953 2441 691 2322 
L 691 4666 
z
" transform="scale(0.015625)"/>
     </defs>
     <use xlink:href="#DejaVuSans-46"/>
     <use xlink:href="#DejaVuSans-7a" x="57.519531"/>
     <use xlink:href="#DejaVuSans-20" x="110.009766"/>
     <use xlink:href="#DejaVuSans-28" x="141.796875"/>
     <use xlink:href="#DejaVuSans-35" x="180.810547"/>
     <use xlink:href="#DejaVuSans-29" x="244.433594"/>
    </g>
   </g>
   <g id="text_7">
    <!-- F4 (6) -->
    <g transform="translate(297.848552 127.186327) scale(0.09 -0.09)">
     <defs>
      <path id="DejaVuSans-36" d="M 2113 2584 
Q 1688 2584 1439 2293 
Q 1191 2003 1191 1497 
Q 1191 994 1439 701 
Q 1688 409 2113 409 
Q 2538 409 2786 701 
Q 3034 994 3034 1497 
Q 3034 2003 2786 2293 
Q 2538 2584 2113 2584 
z
M 3366 4563 
L 3366 3988 
Q 3128 4100 2886 4159 
Q 2644 4219 2406 4219 
Q 1781 4219 1451 3797 
Q 1122 3375 1075 2522 
Q 1259 2794 1537 2939 
Q 1816 3084 2150 3084 
Q 2853 3084 3261 2657 
Q 3669 2231 3669 1497 
Q 3669 778 3244 343 
Q 2819 -91 2113 -91 
Q 1303 -91 875 529 
Q 447 1150 447 2328 
Q 447 3434 972 4092 
Q 1497 4750 2381 4750 
Q 2619 4750 2861 4703 
Q 3103 4656 3366 4563 
z
" transform="scale(0.015625)"/>
     </defs>
     <use xlink:href="#DejaVuSans-46"/>
     <use xlink:href="#DejaVuSans-34" x="57.519531"/>
     <use xlink:href="#DejaVuSans-20" x="121.142578"/>
     <use xlink:href="#DejaVuSans-28" x="152.929688"/>
     <use xlink:href="#DejaVuSans-36" x="191.943359"/>
     <use xlink:href="#DejaVuSans-29" x="255.566406"/>
    </g>
   </g>
   <g id="text_8">
    <!-- F8 (7) -->
    <g transform="translate(344.757256 125.847055) scale(0.09 -0.09)">
     <defs>
      <path id="DejaVuSans-38" d="M 2034 2216 
Q 1584 2216 1326 1975 
Q 1069 1734 1069 1313 
Q 1069 891 1326 650 
Q 1584 409 2034 409 
Q 2484 409 2743 651 
Q 3003 894 3003 1313 
Q 3003 1734 2745 1975 
Q 2488 2216 2034 2216 
z
M 1403 2484 
Q 997 2584 770 2862 
Q 544 3141 544 3541 
Q 544 4100 942 4425 
Q 1341 4750 2034 4750 
Q 2731 4750 3128 4425 
Q 3525 4100 3525 3541 
Q 3525 3141 3298 2862 
Q 3072 2584 2669 2484 
Q 3125 2378 3379 2068 
Q 3634 1759 3634 1313 
Q 3634 634 3220 271 
Q 2806 -91 2034 -91 
Q 1263 -91 848 271 
Q 434 634 434 1313 
Q 434 1759 690 2068 
Q 947 2378 1403 2484 
z
M 1172 3481 
Q 1172 3119 1398 2916 
Q 1625 2713 2034 2713 
Q 2441 2713 2670 2916 
Q 2900 3119 2900 3481 
Q 2900 3844 2670 4047 
Q 2441 4250 2034 4250 
Q 1625 4250 1398 4047 
Q 1172 3844 1172 3481 
z
" transform="scale(0.015625)"/>
     </defs>
     <use xlink:href="#DejaVuSans-46"/>
     <use xlink:href="#DejaVuSans-38" x="57.519531"/>
     <use xlink:href="#DejaVuSans-20" x="121.142578"/>
     <use xlink:href="#DejaVuSans-28" x="152.929688"/>
     <use xlink:href="#DejaVuSans-37" x="191.943359"/>
     <use xlink:href="#DejaVuSans-29" x="255.566406"/>
    </g>
   </g>
   <g id="text_9">
    <!-- FT7 (8) -->
    <g transform="translate(99.553188 175.40044) scale(0.09 -0.09)">
     <defs>
      <path id="DejaVuSans-54" d="M -19 4666 
L 3928 4666 
L 3928 4134 
L 2272 4134 
L 2272 0 
L 1638 0 
L 1638 4134 
L -19 4134 
L -19 4666 
z
" transform="scale(0.015625)"/>
     </defs>
     <use xlink:href="#DejaVuSans-46"/>
     <use xlink:href="#DejaVuSans-54" x="55.769531"/>
     <use xlink:href="#DejaVuSans-37" x="116.853516"/>
     <use xlink:href="#DejaVuSans-20" x="180.476562"/>
     <use xlink:href="#DejaVuSans-28" x="212.263672"/>
     <use xlink:href="#DejaVuSans-38" x="251.277344"/>
     <use xlink:href="#DejaVuSans-29" x="314.900391"/>
    </g>
   </g>
   <g id="text_10">
    <!-- FC3 (9) -->
    <g transform="translate(149.794778 172.425909) scale(0.09 -0.09)">
     <defs>
      <path id="DejaVuSans-43" d="M 4122 4306 
L 4122 3641 
Q 3803 3938 3442 4084 
Q 3081 4231 2675 4231 
Q 1875 4231 1450 3742 
Q 1025 3253 1025 2328 
Q 1025 1406 1450 917 
Q 1875 428 2675 428 
Q 3081 428 3442 575 
Q 3803 722 4122 1019 
L 4122 359 
Q 3791 134 3420 21 
Q 3050 -91 2638 -91 
Q 1578 -91 968 557 
Q 359 1206 359 2328 
Q 359 3453 968 4101 
Q 1578 4750 2638 4750 
Q 3056 4750 3426 4639 
Q 3797 4528 4122 4306 
z
" transform="scale(0.015625)"/>
      <path id="DejaVuSans-39" d="M 703 97 
L 703 672 
Q 941 559 1184 500 
Q 1428 441 1663 441 
Q 2288 441 2617 861 
Q 2947 1281 2994 2138 
Q 2813 1869 2534 1725 
Q 2256 1581 1919 1581 
Q 1219 1581 811 2004 
Q 403 2428 403 3163 
Q 403 3881 828 4315 
Q 1253 4750 1959 4750 
Q 2769 4750 3195 4129 
Q 3622 3509 3622 2328 
Q 3622 1225 3098 567 
Q 2575 -91 1691 -91 
Q 1453 -91 1209 -44 
Q 966 3 703 97 
z
M 1959 2075 
Q 2384 2075 2632 2365 
Q 2881 2656 2881 3163 
Q 2881 3666 2632 3958 
Q 2384 4250 1959 4250 
Q 1534 4250 1286 3958 
Q 1038 3666 1038 3163 
Q 1038 2656 1286 2365 
Q 1534 2075 1959 2075 
z
" transform="scale(0.015625)"/>
     </defs>
     <use xlink:href="#DejaVuSans-46"/>
     <use xlink:href="#DejaVuSans-43" x="57.519531"/>
     <use xlink:href="#DejaVuSans-33" x="127.34375"/>
     <use xlink:href="#DejaVuSans-20" x="190.966797"/>
     <use xlink:href="#DejaVuSans-28" x="222.753906"/>
     <use xlink:href="#DejaVuSans-39" x="261.767578"/>
     <use xlink:href="#DejaVuSans-29" x="325.390625"/>
    </g>
   </g>
   <g id="text_11">
    <!-- FCz (10) -->
    <g transform="translate(227.952345 168.61911) scale(0.09 -0.09)">
     <use xlink:href="#DejaVuSans-46"/>
     <use xlink:href="#DejaVuSans-43" x="57.519531"/>
     <use xlink:href="#DejaVuSans-7a" x="127.34375"/>
     <use xlink:href="#DejaVuSans-20" x="179.833984"/>
     <use xlink:href="#DejaVuSans-28" x="211.621094"/>
     <use xlink:href="#DejaVuSans-31" x="250.634766"/>
     <use xlink:href="#DejaVuSans-30" x="314.257812"/>
     <use xlink:href="#DejaVuSans-29" x="377.880859"/>
    </g>
   </g>
   <g id="text_12">
    <!-- FC4 (11) -->
    <g transform="translate(307.570049 171.744692) scale(0.09 -0.09)">
     <use xlink:href="#DejaVuSans-46"/>
     <use xlink:href="#DejaVuSans-43" x="57.519531"/>
     <use xlink:href="#DejaVuSans-34" x="127.34375"/>
     <use xlink:href="#DejaVuSans-20" x="190.966797"/>
     <use xlink:href="#DejaVuSans-28" x="222.753906"/>
     <use xlink:href="#DejaVuSans-31" x="261.767578"/>
     <use xlink:href="#DejaVuSans-31" x="325.390625"/>
     <use xlink:href="#DejaVuSans-29" x="389.013672"/>
    </g>
   </g>
   <g id="text_13">
    <!-- FT8 (12) -->
    <g transform="translate(355.547904 174.374897) scale(0.09 -0.09)">
     <use xlink:href="#DejaVuSans-46"/>
     <use xlink:href="#DejaVuSans-54" x="55.769531"/>
     <use xlink:href="#DejaVuSans-38" x="116.853516"/>
     <use xlink:href="#DejaVuSans-20" x="180.476562"/>
     <use xlink:href="#DejaVuSans-28" x="212.263672"/>
     <use xlink:href="#DejaVuSans-31" x="251.277344"/>
     <use xlink:href="#DejaVuSans-32" x="314.900391"/>
     <use xlink:href="#DejaVuSans-29" x="378.523438"/>
    </g>
   </g>
   <g id="text_14">
    <!-- T3 (13) -->
    <g transform="translate(97.600278 223.239157) scale(0.09 -0.09)">
     <use xlink:href="#DejaVuSans-54"/>
     <use xlink:href="#DejaVuSans-33" x="61.083984"/>
     <use xlink:href="#DejaVuSans-20" x="124.707031"/>
     <use xlink:href="#DejaVuSans-28" x="156.494141"/>
     <use xlink:href="#DejaVuSans-31" x="195.507812"/>
     <use xlink:href="#DejaVuSans-33" x="259.130859"/>
     <use xlink:href="#DejaVuSans-29" x="322.753906"/>
    </g>
   </g>
   <g id="text_15">
    <!-- C3 (14) -->
    <g transform="translate(145.584291 216.861385) scale(0.09 -0.09)">
     <use xlink:href="#DejaVuSans-43"/>
     <use xlink:href="#DejaVuSans-33" x="69.824219"/>
     <use xlink:href="#DejaVuSans-20" x="133.447266"/>
     <use xlink:href="#DejaVuSans-28" x="165.234375"/>
     <use xlink:href="#DejaVuSans-31" x="204.248047"/>
     <use xlink:href="#DejaVuSans-34" x="267.871094"/>
     <use xlink:href="#DejaVuSans-29" x="331.494141"/>
    </g>
   </g>
   <g id="text_16">
    <!-- Cz (15) -->
    <g transform="translate(227.876487 213.348938) scale(0.09 -0.09)">
     <use xlink:href="#DejaVuSans-43"/>
     <use xlink:href="#DejaVuSans-7a" x="69.824219"/>
     <use xlink:href="#DejaVuSans-20" x="122.314453"/>
     <use xlink:href="#DejaVuSans-28" x="154.101562"/>
     <use xlink:href="#DejaVuSans-31" x="193.115234"/>
     <use xlink:href="#DejaVuSans-35" x="256.738281"/>
     <use xlink:href="#DejaVuSans-29" x="320.361328"/>
    </g>
   </g>
   <g id="text_17">
    <!-- C4 (16) -->
    <g transform="translate(311.029747 216.635827) scale(0.09 -0.09)">
     <use xlink:href="#DejaVuSans-43"/>
     <use xlink:href="#DejaVuSans-34" x="69.824219"/>
     <use xlink:href="#DejaVuSans-20" x="133.447266"/>
     <use xlink:href="#DejaVuSans-28" x="165.234375"/>
     <use xlink:href="#DejaVuSans-31" x="204.248047"/>
     <use xlink:href="#DejaVuSans-36" x="267.871094"/>
     <use xlink:href="#DejaVuSans-29" x="331.494141"/>
    </g>
   </g>
   <g id="text_18">
    <!-- T4 (17) -->
    <g transform="translate(356.789058 222.727593) scale(0.09 -0.09)">
     <use xlink:href="#DejaVuSans-54"/>
     <use xlink:href="#DejaVuSans-34" x="61.083984"/>
     <use xlink:href="#DejaVuSans-20" x="124.707031"/>
     <use xlink:href="#DejaVuSans-28" x="156.494141"/>
     <use xlink:href="#DejaVuSans-31" x="195.507812"/>
     <use xlink:href="#DejaVuSans-37" x="259.130859"/>
     <use xlink:href="#DejaVuSans-29" x="322.753906"/>
    </g>
   </g>
   <g id="text_19">
    <!-- TP7 (18) -->
    <g transform="translate(98.593464 268.613368) scale(0.09 -0.09)">
     <defs>
      <path id="DejaVuSans-50" d="M 1259 4147 
L 1259 2394 
L 2053 2394 
Q 2494 2394 2734 2622 
Q 2975 2850 2975 3272 
Q 2975 3691 2734 3919 
Q 2494 4147 2053 4147 
L 1259 4147 
z
M 628 4666 
L 2053 4666 
Q 2838 4666 3239 4311 
Q 3641 3956 3641 3272 
Q 3641 2581 3239 2228 
Q 2838 1875 2053 1875 
L 1259 1875 
L 1259 0 
L 628 0 
L 628 4666 
z
" transform="scale(0.015625)"/>
     </defs>
     <use xlink:href="#DejaVuSans-54"/>
     <use xlink:href="#DejaVuSans-50" x="61.083984"/>
     <use xlink:href="#DejaVuSans-37" x="121.386719"/>
     <use xlink:href="#DejaVuSans-20" x="185.009766"/>
     <use xlink:href="#DejaVuSans-28" x="216.796875"/>
     <use xlink:href="#DejaVuSans-31" x="255.810547"/>
     <use xlink:href="#DejaVuSans-38" x="319.433594"/>
     <use xlink:href="#DejaVuSans-29" x="383.056641"/>
    </g>
   </g>
   <g id="text_20">
    <!-- CP3 (19) -->
    <g transform="translate(148.386224 260.792881) scale(0.09 -0.09)">
     <use xlink:href="#DejaVuSans-43"/>
     <use xlink:href="#DejaVuSans-50" x="69.824219"/>
     <use xlink:href="#DejaVuSans-33" x="130.126953"/>
     <use xlink:href="#DejaVuSans-20" x="193.75"/>
     <use xlink:href="#DejaVuSans-28" x="225.537109"/>
     <use xlink:href="#DejaVuSans-31" x="264.550781"/>
     <use xlink:href="#DejaVuSans-39" x="328.173828"/>
     <use xlink:href="#DejaVuSans-29" x="391.796875"/>
    </g>
   </g>
   <g id="text_21">
    <!-- CPz (20) -->
    <g transform="translate(227.707651 258.442476) scale(0.09 -0.09)">
     <use xlink:href="#DejaVuSans-43"/>
     <use xlink:href="#DejaVuSans-50" x="69.824219"/>
     <use xlink:href="#DejaVuSans-7a" x="130.126953"/>
     <use xlink:href="#DejaVuSans-20" x="182.617188"/>
     <use xlink:href="#DejaVuSans-28" x="214.404297"/>
     <use xlink:href="#DejaVuSans-32" x="253.417969"/>
     <use xlink:href="#DejaVuSans-30" x="317.041016"/>
     <use xlink:href="#DejaVuSans-29" x="380.664062"/>
    </g>
   </g>
   <g id="text_22">
    <!-- CP4 (21) -->
    <g transform="translate(309.588414 260.896806) scale(0.09 -0.09)">
     <use xlink:href="#DejaVuSans-43"/>
     <use xlink:href="#DejaVuSans-50" x="69.824219"/>
     <use xlink:href="#DejaVuSans-34" x="130.126953"/>
     <use xlink:href="#DejaVuSans-20" x="193.75"/>
     <use xlink:href="#DejaVuSans-28" x="225.537109"/>
     <use xlink:href="#DejaVuSans-32" x="264.550781"/>
     <use xlink:href="#DejaVuSans-31" x="328.173828"/>
     <use xlink:href="#DejaVuSans-29" x="391.796875"/>
    </g>
   </g>
   <g id="text_23">
    <!-- TP8 (22) -->
    <g transform="translate(355.058572 268.70385) scale(0.09 -0.09)">
     <use xlink:href="#DejaVuSans-54"/>
     <use xlink:href="#DejaVuSans-50" x="61.083984"/>
     <use xlink:href="#DejaVuSans-38" x="121.386719"/>
     <use xlink:href="#DejaVuSans-20" x="185.009766"/>
     <use xlink:href="#DejaVuSans-28" x="216.796875"/>
     <use xlink:href="#DejaVuSans-32" x="255.810547"/>
     <use xlink:href="#DejaVuSans-32" x="319.433594"/>
     <use xlink:href="#DejaVuSans-29" x="383.056641"/>
    </g>
   </g>
   <g id="text_24">
    <!-- A1 (23) -->
    <g transform="translate(27.476549 240.077321) scale(0.09 -0.09)">
     <defs>
      <path id="DejaVuSans-41" d="M 2188 4044 
L 1331 1722 
L 3047 1722 
L 2188 4044 
z
M 1831 4666 
L 2547 4666 
L 4325 0 
L 3669 0 
L 3244 1197 
L 1141 1197 
L 716 0 
L 50 0 
L 1831 4666 
z
" transform="scale(0.015625)"/>
     </defs>
     <use xlink:href="#DejaVuSans-41"/>
     <use xlink:href="#DejaVuSans-31" x="68.408203"/>
     <use xlink:href="#DejaVuSans-20" x="132.03125"/>
     <use xlink:href="#DejaVuSans-28" x="163.818359"/>
     <use xlink:href="#DejaVuSans-32" x="202.832031"/>
     <use xlink:href="#DejaVuSans-33" x="266.455078"/>
     <use xlink:href="#DejaVuSans-29" x="330.078125"/>
    </g>
   </g>
   <g id="text_25">
    <!-- T5 (24) -->
    <g transform="translate(120.423462 307.763537) scale(0.09 -0.09)">
     <use xlink:href="#DejaVuSans-54"/>
     <use xlink:href="#DejaVuSans-35" x="61.083984"/>
     <use xlink:href="#DejaVuSans-20" x="124.707031"/>
     <use xlink:href="#DejaVuSans-28" x="156.494141"/>
     <use xlink:href="#DejaVuSans-32" x="195.507812"/>
     <use xlink:href="#DejaVuSans-34" x="259.130859"/>
     <use xlink:href="#DejaVuSans-29" x="322.753906"/>
    </g>
   </g>
   <g id="text_26">
    <!-- P3 (25) -->
    <g transform="translate(160.46553 301.509466) scale(0.09 -0.09)">
     <use xlink:href="#DejaVuSans-50"/>
     <use xlink:href="#DejaVuSans-33" x="60.302734"/>
     <use xlink:href="#DejaVuSans-20" x="123.925781"/>
     <use xlink:href="#DejaVuSans-28" x="155.712891"/>
     <use xlink:href="#DejaVuSans-32" x="194.726562"/>
     <use xlink:href="#DejaVuSans-35" x="258.349609"/>
     <use xlink:href="#DejaVuSans-29" x="321.972656"/>
    </g>
   </g>
   <g id="text_27">
    <!-- Pz (26) -->
    <g transform="translate(227.45217 300.315626) scale(0.09 -0.09)">
     <use xlink:href="#DejaVuSans-50"/>
     <use xlink:href="#DejaVuSans-7a" x="60.302734"/>
     <use xlink:href="#DejaVuSans-20" x="112.792969"/>
     <use xlink:href="#DejaVuSans-28" x="144.580078"/>
     <use xlink:href="#DejaVuSans-32" x="183.59375"/>
     <use xlink:href="#DejaVuSans-36" x="247.216797"/>
     <use xlink:href="#DejaVuSans-29" x="310.839844"/>
    </g>
   </g>
   <g id="text_28">
    <!-- P4 (27) -->
    <g transform="translate(296.648381 301.553945) scale(0.09 -0.09)">
     <use xlink:href="#DejaVuSans-50"/>
     <use xlink:href="#DejaVuSans-34" x="60.302734"/>
     <use xlink:href="#DejaVuSans-20" x="123.925781"/>
     <use xlink:href="#DejaVuSans-28" x="155.712891"/>
     <use xlink:href="#DejaVuSans-32" x="194.726562"/>
     <use xlink:href="#DejaVuSans-37" x="258.349609"/>
     <use xlink:href="#DejaVuSans-29" x="321.972656"/>
    </g>
   </g>
   <g id="text_29">
    <!-- T6 (28) -->
    <g transform="translate(333.021813 307.64037) scale(0.09 -0.09)">
     <use xlink:href="#DejaVuSans-54"/>
     <use xlink:href="#DejaVuSans-36" x="61.083984"/>
     <use xlink:href="#DejaVuSans-20" x="124.707031"/>
     <use xlink:href="#DejaVuSans-28" x="156.494141"/>
     <use xlink:href="#DejaVuSans-32" x="195.507812"/>
     <use xlink:href="#DejaVuSans-38" x="259.130859"/>
     <use xlink:href="#DejaVuSans-29" x="322.753906"/>
    </g>
   </g>
   <g id="text_30">
    <!-- A2 (29) -->
    <g transform="translate(424.581552 241.479595) scale(0.09 -0.09)">
     <use xlink:href="#DejaVuSans-41"/>
     <use xlink:href="#DejaVuSans-32" x="68.408203"/>
     <use xlink:href="#DejaVuSans-20" x="132.03125"/>
     <use xlink:href="#DejaVuSans-28" x="163.818359"/>
     <use xlink:href="#DejaVuSans-32" x="202.832031"/>
     <use xlink:href="#DejaVuSans-39" x="266.455078"/>
     <use xlink:href="#DejaVuSans-29" x="330.078125"/>
    </g>
   </g>
   <g id="text_31">
    <!-- P5 (30) -->
    <g transform="translate(137.335076 303.54526) scale(0.09 -0.09)">
     <use xlink:href="#DejaVuSans-50"/>
     <use xlink:href="#DejaVuSans-35" x="60.302734"/>
     <use xlink:href="#DejaVuSans-20" x="123.925781"/>
     <use xlink:href="#DejaVuSans-28" x="155.712891"/>
     <use xlink:href="#DejaVuSans-33" x="194.726562"/>
     <use xlink:href="#DejaVuSans-30" x="258.349609"/>
     <use xlink:href="#DejaVuSans-29" x="321.972656"/>
    </g>
   </g>
   <g id="text_32">
    <!-- PO3 (31) -->
    <g transform="translate(179.420695 333.398669) scale(0.09 -0.09)">
     <defs>
      <path id="DejaVuSans-4f" d="M 2522 4238 
Q 1834 4238 1429 3725 
Q 1025 3213 1025 2328 
Q 1025 1447 1429 934 
Q 1834 422 2522 422 
Q 3209 422 3611 934 
Q 4013 1447 4013 2328 
Q 4013 3213 3611 3725 
Q 3209 4238 2522 4238 
z
M 2522 4750 
Q 3503 4750 4090 4092 
Q 4678 3434 4678 2328 
Q 4678 1225 4090 567 
Q 3503 -91 2522 -91 
Q 1538 -91 948 565 
Q 359 1222 359 2328 
Q 359 3434 948 4092 
Q 1538 4750 2522 4750 
z
" transform="scale(0.015625)"/>
     </defs>
     <use xlink:href="#DejaVuSans-50"/>
     <use xlink:href="#DejaVuSans-4f" x="60.302734"/>
     <use xlink:href="#DejaVuSans-33" x="139.013672"/>
     <use xlink:href="#DejaVuSans-20" x="202.636719"/>
     <use xlink:href="#DejaVuSans-28" x="234.423828"/>
     <use xlink:href="#DejaVuSans-33" x="273.4375"/>
     <use xlink:href="#DejaVuSans-31" x="337.060547"/>
     <use xlink:href="#DejaVuSans-29" x="400.683594"/>
    </g>
   </g>
   <g id="text_33">
    <!-- POz (32) -->
    <g transform="translate(227.11959 331.457189) scale(0.09 -0.09)">
     <use xlink:href="#DejaVuSans-50"/>
     <use xlink:href="#DejaVuSans-4f" x="60.302734"/>
     <use xlink:href="#DejaVuSans-7a" x="139.013672"/>
     <use xlink:href="#DejaVuSans-20" x="191.503906"/>
     <use xlink:href="#DejaVuSans-28" x="223.291016"/>
     <use xlink:href="#DejaVuSans-33" x="262.304688"/>
     <use xlink:href="#DejaVuSans-32" x="325.927734"/>
     <use xlink:href="#DejaVuSans-29" x="389.550781"/>
    </g>
   </g>
   <g id="text_34">
    <!-- PO4 (33) -->
    <g transform="translate(274.387465 333.654294) scale(0.09 -0.09)">
     <use xlink:href="#DejaVuSans-50"/>
     <use xlink:href="#DejaVuSans-4f" x="60.302734"/>
     <use xlink:href="#DejaVuSans-34" x="139.013672"/>
     <use xlink:href="#DejaVuSans-20" x="202.636719"/>
     <use xlink:href="#DejaVuSans-28" x="234.423828"/>
     <use xlink:href="#DejaVuSans-33" x="273.4375"/>
     <use xlink:href="#DejaVuSans-33" x="337.060547"/>
     <use xlink:href="#DejaVuSans-29" x="400.683594"/>
    </g>
   </g>
   <g id="text_35">
    <!-- P6 (34) -->
    <g transform="translate(316.702708 303.433315) scale(0.09 -0.09)">
     <use xlink:href="#DejaVuSans-50"/>
     <use xlink:href="#DejaVuSans-36" x="60.302734"/>
     <use xlink:href="#DejaVuSans-20" x="123.925781"/>
     <use xlink:href="#DejaVuSans-28" x="155.712891"/>
     <use xlink:href="#DejaVuSans-33" x="194.726562"/>
     <use xlink:href="#DejaVuSans-34" x="258.349609"/>
     <use xlink:href="#DejaVuSans-29" x="321.972656"/>
    </g>
   </g>
   <g id="text_36">
    <!-- PO7 (35) -->
    <g transform="translate(147.823992 340.605259) scale(0.09 -0.09)">
     <use xlink:href="#DejaVuSans-50"/>
     <use xlink:href="#DejaVuSans-4f" x="60.302734"/>
     <use xlink:href="#DejaVuSans-37" x="139.013672"/>
     <use xlink:href="#DejaVuSans-20" x="202.636719"/>
     <use xlink:href="#DejaVuSans-28" x="234.423828"/>
     <use xlink:href="#DejaVuSans-33" x="273.4375"/>
     <use xlink:href="#DejaVuSans-35" x="337.060547"/>
     <use xlink:href="#DejaVuSans-29" x="400.683594"/>
    </g>
   </g>
   <g id="text_37">
    <!-- O1 (36) -->
    <g transform="translate(185.24929 358.980521) scale(0.09 -0.09)">
     <use xlink:href="#DejaVuSans-4f"/>
     <use xlink:href="#DejaVuSans-31" x="78.710938"/>
     <use xlink:href="#DejaVuSans-20" x="142.333984"/>
     <use xlink:href="#DejaVuSans-28" x="174.121094"/>
     <use xlink:href="#DejaVuSans-33" x="213.134766"/>
     <use xlink:href="#DejaVuSans-36" x="276.757812"/>
     <use xlink:href="#DejaVuSans-29" x="340.380859"/>
    </g>
   </g>
   <g id="text_38">
    <!-- Oz (37) -->
    <g transform="translate(226.683678 359.367217) scale(0.09 -0.09)">
     <use xlink:href="#DejaVuSans-4f"/>
     <use xlink:href="#DejaVuSans-7a" x="78.710938"/>
     <use xlink:href="#DejaVuSans-20" x="131.201172"/>
     <use xlink:href="#DejaVuSans-28" x="162.988281"/>
     <use xlink:href="#DejaVuSans-33" x="202.001953"/>
     <use xlink:href="#DejaVuSans-37" x="265.625"/>
     <use xlink:href="#DejaVuSans-29" x="329.248047"/>
    </g>
   </g>
   <g id="text_39">
    <!-- O2 (38) -->
    <g transform="translate(268.207406 358.584642) scale(0.09 -0.09)">
     <use xlink:href="#DejaVuSans-4f"/>
     <use xlink:href="#DejaVuSans-32" x="78.710938"/>
     <use xlink:href="#DejaVuSans-20" x="142.333984"/>
     <use xlink:href="#DejaVuSans-28" x="174.121094"/>
     <use xlink:href="#DejaVuSans-33" x="213.134766"/>
     <use xlink:href="#DejaVuSans-38" x="276.757812"/>
     <use xlink:href="#DejaVuSans-29" x="340.380859"/>
    </g>
   </g>
   <g id="text_40">
    <!-- PO8 (39) -->
    <g transform="translate(306.073647 341.008496) scale(0.09 -0.09)">
     <use xlink:href="#DejaVuSans-50"/>
     <use xlink:href="#DejaVuSans-4f" x="60.302734"/>
     <use xlink:href="#DejaVuSans-38" x="139.013672"/>
     <use xlink:href="#DejaVuSans-20" x="202.636719"/>
     <use xlink:href="#DejaVuSans-28" x="234.423828"/>
     <use xlink:href="#DejaVuSans-33" x="273.4375"/>
     <use xlink:href="#DejaVuSans-39" x="337.060547"/>
     <use xlink:href="#DejaVuSans-29" x="400.683594"/>
    </g>
   </g>
  </g>
 </g>
</svg>
