<?xml version="1.0" encoding="utf-8" standalone="no"?>
<!DOCTYPE svg PUBLIC "-//W3C//DTD SVG 1.1//EN"
  "http://www.w3.org/Graphics/SVG/1.1/DTD/svg11.dtd">
<svg xmlns:xlink="http://www.w3.org/1999/xlink" width="864pt" height="432pt" viewBox="0 0 864 432" xmlns="http://www.w3.org/2000/svg" version="1.1">
 <metadata>
  <rdf:RDF xmlns:dc="http://purl.org/dc/elements/1.1/" xmlns:cc="http://creativecommons.org/ns#" xmlns:rdf="http://www.w3.org/1999/02/22-rdf-syntax-ns#">
   <cc:Work>
    <dc:type rdf:resource="http://purl.org/dc/dcmitype/StillImage"/>
    <dc:date>2024-04-06T15:56:29.853918</dc:date>
    <dc:format>image/svg+xml</dc:format>
    <dc:creator>
     <cc:Agent>
      <dc:title>Matplotlib v3.8.2, https://matplotlib.org/</dc:title>
     </cc:Agent>
    </dc:creator>
   </cc:Work>
  </rdf:RDF>
 </metadata>
 <defs>
  <style type="text/css">*{stroke-linejoin: round; stroke-linecap: butt}</style>
 </defs>
 <g id="figure_1">
  <g id="patch_1">
   <path d="M 0 432 
L 864 432 
L 864 0 
L 0 0 
z
" style="fill: #ffffff"/>
  </g>
  <g id="axes_1">
   <g id="patch_2">
    <path d="M 108 384.48 
L 777.6 384.48 
L 777.6 51.84 
L 108 51.84 
z
" style="fill: #ffffff"/>
   </g>
   <g id="matplotlib.axis_1">
    <g id="xtick_1">
     <g id="line2d_1">
      <defs>
       <path id="m5988b385d0" d="M 0 0 
L 0 3.5 
" style="stroke: #000000; stroke-width: 0.8"/>
      </defs>
      <g>
       <use xlink:href="#m5988b385d0" x="138.436364" y="384.48" style="stroke: #000000; stroke-width: 0.8"/>
      </g>
     </g>
     <g id="text_1">
      <!-- 0 -->
      <g transform="translate(135.255114 399.078438) scale(0.1 -0.1)">
       <defs>
        <path id="DejaVuSans-30" d="M 2034 4250 
Q 1547 4250 1301 3770 
Q 1056 3291 1056 2328 
Q 1056 1369 1301 889 
Q 1547 409 2034 409 
Q 2525 409 2770 889 
Q 3016 1369 3016 2328 
Q 3016 3291 2770 3770 
Q 2525 4250 2034 4250 
z
M 2034 4750 
Q 2819 4750 3233 4129 
Q 3647 3509 3647 2328 
Q 3647 1150 3233 529 
Q 2819 -91 2034 -91 
Q 1250 -91 836 529 
Q 422 1150 422 2328 
Q 422 3509 836 4129 
Q 1250 4750 2034 4750 
z
" transform="scale(0.015625)"/>
       </defs>
       <use xlink:href="#DejaVuSans-30"/>
      </g>
     </g>
    </g>
    <g id="xtick_2">
     <g id="line2d_2">
      <g>
       <use xlink:href="#m5988b385d0" x="261.163636" y="384.48" style="stroke: #000000; stroke-width: 0.8"/>
      </g>
     </g>
     <g id="text_2">
      <!-- 50 -->
      <g transform="translate(254.801136 399.078438) scale(0.1 -0.1)">
       <defs>
        <path id="DejaVuSans-35" d="M 691 4666 
L 3169 4666 
L 3169 4134 
L 1269 4134 
L 1269 2991 
Q 1406 3038 1543 3061 
Q 1681 3084 1819 3084 
Q 2600 3084 3056 2656 
Q 3513 2228 3513 1497 
Q 3513 744 3044 326 
Q 2575 -91 1722 -91 
Q 1428 -91 1123 -41 
Q 819 9 494 109 
L 494 744 
Q 775 591 1075 516 
Q 1375 441 1709 441 
Q 2250 441 2565 725 
Q 2881 1009 2881 1497 
Q 2881 1984 2565 2268 
Q 2250 2553 1709 2553 
Q 1456 2553 1204 2497 
Q 953 2441 691 2322 
L 691 4666 
z
" transform="scale(0.015625)"/>
       </defs>
       <use xlink:href="#DejaVuSans-35"/>
       <use xlink:href="#DejaVuSans-30" x="63.623047"/>
      </g>
     </g>
    </g>
    <g id="xtick_3">
     <g id="line2d_3">
      <g>
       <use xlink:href="#m5988b385d0" x="383.890909" y="384.48" style="stroke: #000000; stroke-width: 0.8"/>
      </g>
     </g>
     <g id="text_3">
      <!-- 100 -->
      <g transform="translate(374.347159 399.078438) scale(0.1 -0.1)">
       <defs>
        <path id="DejaVuSans-31" d="M 794 531 
L 1825 531 
L 1825 4091 
L 703 3866 
L 703 4441 
L 1819 4666 
L 2450 4666 
L 2450 531 
L 3481 531 
L 3481 0 
L 794 0 
L 794 531 
z
" transform="scale(0.015625)"/>
       </defs>
       <use xlink:href="#DejaVuSans-31"/>
       <use xlink:href="#DejaVuSans-30" x="63.623047"/>
       <use xlink:href="#DejaVuSans-30" x="127.246094"/>
      </g>
     </g>
    </g>
    <g id="xtick_4">
     <g id="line2d_4">
      <g>
       <use xlink:href="#m5988b385d0" x="506.618182" y="384.48" style="stroke: #000000; stroke-width: 0.8"/>
      </g>
     </g>
     <g id="text_4">
      <!-- 150 -->
      <g transform="translate(497.074432 399.078438) scale(0.1 -0.1)">
       <use xlink:href="#DejaVuSans-31"/>
       <use xlink:href="#DejaVuSans-35" x="63.623047"/>
       <use xlink:href="#DejaVuSans-30" x="127.246094"/>
      </g>
     </g>
    </g>
    <g id="xtick_5">
     <g id="line2d_5">
      <g>
       <use xlink:href="#m5988b385d0" x="629.345455" y="384.48" style="stroke: #000000; stroke-width: 0.8"/>
      </g>
     </g>
     <g id="text_5">
      <!-- 200 -->
      <g transform="translate(619.801705 399.078438) scale(0.1 -0.1)">
       <defs>
        <path id="DejaVuSans-32" d="M 1228 531 
L 3431 531 
L 3431 0 
L 469 0 
L 469 531 
Q 828 903 1448 1529 
Q 2069 2156 2228 2338 
Q 2531 2678 2651 2914 
Q 2772 3150 2772 3378 
Q 2772 3750 2511 3984 
Q 2250 4219 1831 4219 
Q 1534 4219 1204 4116 
Q 875 4013 500 3803 
L 500 4441 
Q 881 4594 1212 4672 
Q 1544 4750 1819 4750 
Q 2544 4750 2975 4387 
Q 3406 4025 3406 3419 
Q 3406 3131 3298 2873 
Q 3191 2616 2906 2266 
Q 2828 2175 2409 1742 
Q 1991 1309 1228 531 
z
" transform="scale(0.015625)"/>
       </defs>
       <use xlink:href="#DejaVuSans-32"/>
       <use xlink:href="#DejaVuSans-30" x="63.623047"/>
       <use xlink:href="#DejaVuSans-30" x="127.246094"/>
      </g>
     </g>
    </g>
    <g id="xtick_6">
     <g id="line2d_6">
      <g>
       <use xlink:href="#m5988b385d0" x="752.072727" y="384.48" style="stroke: #000000; stroke-width: 0.8"/>
      </g>
     </g>
     <g id="text_6">
      <!-- 250 -->
      <g transform="translate(742.528977 399.078438) scale(0.1 -0.1)">
       <use xlink:href="#DejaVuSans-32"/>
       <use xlink:href="#DejaVuSans-35" x="63.623047"/>
       <use xlink:href="#DejaVuSans-30" x="127.246094"/>
      </g>
     </g>
    </g>
   </g>
   <g id="matplotlib.axis_2">
    <g id="ytick_1">
     <g id="line2d_7">
      <defs>
       <path id="mcb05a69c73" d="M 0 0 
L -3.5 0 
" style="stroke: #000000; stroke-width: 0.8"/>
      </defs>
      <g>
       <use xlink:href="#mcb05a69c73" x="108" y="365.344232" style="stroke: #000000; stroke-width: 0.8"/>
      </g>
     </g>
     <g id="text_7">
      <!-- 0.0 -->
      <g transform="translate(85.096875 369.14345) scale(0.1 -0.1)">
       <defs>
        <path id="DejaVuSans-2e" d="M 684 794 
L 1344 794 
L 1344 0 
L 684 0 
L 684 794 
z
" transform="scale(0.015625)"/>
       </defs>
       <use xlink:href="#DejaVuSans-30"/>
       <use xlink:href="#DejaVuSans-2e" x="63.623047"/>
       <use xlink:href="#DejaVuSans-30" x="95.410156"/>
      </g>
     </g>
    </g>
    <g id="ytick_2">
     <g id="line2d_8">
      <g>
       <use xlink:href="#mcb05a69c73" x="108" y="309.011445" style="stroke: #000000; stroke-width: 0.8"/>
      </g>
     </g>
     <g id="text_8">
      <!-- 0.2 -->
      <g transform="translate(85.096875 312.810664) scale(0.1 -0.1)">
       <use xlink:href="#DejaVuSans-30"/>
       <use xlink:href="#DejaVuSans-2e" x="63.623047"/>
       <use xlink:href="#DejaVuSans-32" x="95.410156"/>
      </g>
     </g>
    </g>
    <g id="ytick_3">
     <g id="line2d_9">
      <g>
       <use xlink:href="#mcb05a69c73" x="108" y="252.678658" style="stroke: #000000; stroke-width: 0.8"/>
      </g>
     </g>
     <g id="text_9">
      <!-- 0.4 -->
      <g transform="translate(85.096875 256.477877) scale(0.1 -0.1)">
       <defs>
        <path id="DejaVuSans-34" d="M 2419 4116 
L 825 1625 
L 2419 1625 
L 2419 4116 
z
M 2253 4666 
L 3047 4666 
L 3047 1625 
L 3713 1625 
L 3713 1100 
L 3047 1100 
L 3047 0 
L 2419 0 
L 2419 1100 
L 313 1100 
L 313 1709 
L 2253 4666 
z
" transform="scale(0.015625)"/>
       </defs>
       <use xlink:href="#DejaVuSans-30"/>
       <use xlink:href="#DejaVuSans-2e" x="63.623047"/>
       <use xlink:href="#DejaVuSans-34" x="95.410156"/>
      </g>
     </g>
    </g>
    <g id="ytick_4">
     <g id="line2d_10">
      <g>
       <use xlink:href="#mcb05a69c73" x="108" y="196.345871" style="stroke: #000000; stroke-width: 0.8"/>
      </g>
     </g>
     <g id="text_10">
      <!-- 0.6 -->
      <g transform="translate(85.096875 200.14509) scale(0.1 -0.1)">
       <defs>
        <path id="DejaVuSans-36" d="M 2113 2584 
Q 1688 2584 1439 2293 
Q 1191 2003 1191 1497 
Q 1191 994 1439 701 
Q 1688 409 2113 409 
Q 2538 409 2786 701 
Q 3034 994 3034 1497 
Q 3034 2003 2786 2293 
Q 2538 2584 2113 2584 
z
M 3366 4563 
L 3366 3988 
Q 3128 4100 2886 4159 
Q 2644 4219 2406 4219 
Q 1781 4219 1451 3797 
Q 1122 3375 1075 2522 
Q 1259 2794 1537 2939 
Q 1816 3084 2150 3084 
Q 2853 3084 3261 2657 
Q 3669 2231 3669 1497 
Q 3669 778 3244 343 
Q 2819 -91 2113 -91 
Q 1303 -91 875 529 
Q 447 1150 447 2328 
Q 447 3434 972 4092 
Q 1497 4750 2381 4750 
Q 2619 4750 2861 4703 
Q 3103 4656 3366 4563 
z
" transform="scale(0.015625)"/>
       </defs>
       <use xlink:href="#DejaVuSans-30"/>
       <use xlink:href="#DejaVuSans-2e" x="63.623047"/>
       <use xlink:href="#DejaVuSans-36" x="95.410156"/>
      </g>
     </g>
    </g>
    <g id="ytick_5">
     <g id="line2d_11">
      <g>
       <use xlink:href="#mcb05a69c73" x="108" y="140.013084" style="stroke: #000000; stroke-width: 0.8"/>
      </g>
     </g>
     <g id="text_11">
      <!-- 0.8 -->
      <g transform="translate(85.096875 143.812303) scale(0.1 -0.1)">
       <defs>
        <path id="DejaVuSans-38" d="M 2034 2216 
Q 1584 2216 1326 1975 
Q 1069 1734 1069 1313 
Q 1069 891 1326 650 
Q 1584 409 2034 409 
Q 2484 409 2743 651 
Q 3003 894 3003 1313 
Q 3003 1734 2745 1975 
Q 2488 2216 2034 2216 
z
M 1403 2484 
Q 997 2584 770 2862 
Q 544 3141 544 3541 
Q 544 4100 942 4425 
Q 1341 4750 2034 4750 
Q 2731 4750 3128 4425 
Q 3525 4100 3525 3541 
Q 3525 3141 3298 2862 
Q 3072 2584 2669 2484 
Q 3125 2378 3379 2068 
Q 3634 1759 3634 1313 
Q 3634 634 3220 271 
Q 2806 -91 2034 -91 
Q 1263 -91 848 271 
Q 434 634 434 1313 
Q 434 1759 690 2068 
Q 947 2378 1403 2484 
z
M 1172 3481 
Q 1172 3119 1398 2916 
Q 1625 2713 2034 2713 
Q 2441 2713 2670 2916 
Q 2900 3119 2900 3481 
Q 2900 3844 2670 4047 
Q 2441 4250 2034 4250 
Q 1625 4250 1398 4047 
Q 1172 3844 1172 3481 
z
" transform="scale(0.015625)"/>
       </defs>
       <use xlink:href="#DejaVuSans-30"/>
       <use xlink:href="#DejaVuSans-2e" x="63.623047"/>
       <use xlink:href="#DejaVuSans-38" x="95.410156"/>
      </g>
     </g>
    </g>
    <g id="ytick_6">
     <g id="line2d_12">
      <g>
       <use xlink:href="#mcb05a69c73" x="108" y="83.680298" style="stroke: #000000; stroke-width: 0.8"/>
      </g>
     </g>
     <g id="text_12">
      <!-- 1.0 -->
      <g transform="translate(85.096875 87.479516) scale(0.1 -0.1)">
       <use xlink:href="#DejaVuSans-31"/>
       <use xlink:href="#DejaVuSans-2e" x="63.623047"/>
       <use xlink:href="#DejaVuSans-30" x="95.410156"/>
      </g>
     </g>
    </g>
   </g>
   <g id="line2d_13">
    <path d="M 138.436364 365.344232 
L 140.890909 364.256363 
L 143.345455 363.399329 
L 145.8 360.13641 
L 148.254545 360.07934 
L 150.709091 357.545645 
L 153.163636 356.465352 
L 155.618182 355.889312 
L 158.072727 353.849037 
L 160.527273 354.007474 
L 162.981818 351.168384 
L 165.436364 349.719084 
L 167.890909 350.751939 
L 170.345455 350.796955 
L 172.8 349.406111 
L 175.254545 344.426182 
L 177.709091 340.755367 
L 180.163636 342.537089 
L 182.618182 342.923619 
L 185.072727 337.729035 
L 187.527273 338.273896 
L 189.981818 333.490257 
L 192.436364 338.309548 
L 194.890909 332.266381 
L 197.345455 334.027667 
L 199.8 326.509003 
L 202.254545 329.964122 
L 204.709091 330.081783 
L 207.163636 320.557818 
L 209.618182 329.01236 
L 212.072727 321.248016 
L 214.527273 318.230376 
L 216.981818 319.341721 
L 219.436364 322.469472 
L 221.890909 326.839827 
L 224.345455 312.197699 
L 226.8 320.280248 
L 229.254545 315.935473 
L 231.709091 313.05644 
L 234.163636 311.776866 
L 236.618182 310.64024 
L 239.072727 299.307303 
L 241.527273 306.164612 
L 243.981818 299.409192 
L 246.436364 300.046335 
L 248.890909 303.009124 
L 251.345455 300.315413 
L 253.8 289.213419 
L 256.254545 294.484827 
L 258.709091 287.14201 
L 261.163636 296.695472 
L 263.618182 285.030419 
L 268.527273 287.941348 
L 270.981818 286.399736 
L 273.436364 282.055356 
L 275.890909 292.89195 
L 278.345455 280.09273 
L 280.8 280.834002 
L 283.254545 273.824474 
L 285.709091 275.825087 
L 288.163636 272.013724 
L 290.618182 273.329261 
L 293.072727 270.105669 
L 295.527273 267.124524 
L 297.981818 265.128622 
L 300.436364 268.859122 
L 302.890909 272.93555 
L 305.345455 258.319351 
L 307.8 266.22894 
L 310.254545 257.216874 
L 312.709091 263.039601 
L 315.163636 258.900345 
L 317.618182 257.680762 
L 320.072727 243.96308 
L 322.527273 255.902858 
L 324.981818 252.888052 
L 327.436364 254.085378 
L 329.890909 252.352131 
L 332.345455 252.696652 
L 334.8 240.144733 
L 337.254545 240.224177 
L 339.709091 244.587753 
L 342.163636 247.710854 
L 344.618182 237.879254 
L 347.072727 233.705595 
L 349.527273 231.631681 
L 351.981818 229.233933 
L 354.436364 232.166685 
L 356.890909 227.1997 
L 359.345455 241.649142 
L 361.8 232.618718 
L 364.254545 233.82186 
L 366.709091 223.178456 
L 369.163636 222.484689 
L 371.618182 218.019192 
L 374.072727 225.04544 
L 376.527273 216.784413 
L 378.981818 215.152763 
L 381.436364 212.542686 
L 383.890909 219.605681 
L 386.345455 221.657538 
L 388.8 219.453125 
L 391.254545 212.822361 
L 393.709091 214.588668 
L 396.163636 216.503615 
L 398.618182 217.464689 
L 401.072727 206.852983 
L 403.527273 203.939111 
L 405.981818 199.17459 
L 408.436364 200.376562 
L 410.890909 210.932476 
L 413.345455 210.727656 
L 415.8 203.706261 
L 418.254545 209.202041 
L 420.709091 197.973111 
L 423.163636 195.898155 
L 425.618182 194.450954 
L 428.072727 195.57665 
L 430.527273 196.553361 
L 432.981818 188.729717 
L 435.436364 193.858992 
L 437.890909 184.274161 
L 440.345455 182.627363 
L 442.8 201.118796 
L 445.254545 188.615904 
L 447.709091 170.15326 
L 450.163636 182.184928 
L 452.618182 178.684372 
L 455.072727 181.908224 
L 457.527273 178.110987 
L 459.981818 163.142684 
L 462.436364 180.252353 
L 464.890909 174.723003 
L 467.345455 187.456442 
L 469.8 175.076996 
L 472.254545 172.065688 
L 474.709091 173.747864 
L 477.163636 162.847862 
L 479.618182 171.150338 
L 482.072727 167.205706 
L 484.527273 163.812752 
L 486.981818 157.582889 
L 489.436364 163.975575 
L 491.890909 167.111022 
L 494.345455 159.68872 
L 496.8 165.830024 
L 499.254545 170.862555 
L 501.709091 160.33807 
L 504.163636 158.98657 
L 506.618182 161.835237 
L 509.072727 165.577443 
L 511.527273 155.952851 
L 513.981818 152.996221 
L 516.436364 153.715928 
L 518.890909 155.121797 
L 521.345455 146.123298 
L 523.8 154.166426 
L 526.254545 158.180103 
L 528.709091 148.704568 
L 531.163636 142.56214 
L 536.072727 148.449914 
L 538.527273 145.928417 
L 540.981818 147.157748 
L 543.436364 144.187864 
L 545.890909 142.849272 
L 548.345455 127.717065 
L 550.8 136.979459 
L 553.254545 136.203509 
L 555.709091 139.854813 
L 558.163636 137.443576 
L 560.618182 132.242013 
L 563.072727 132.689716 
L 565.527273 128.669286 
L 567.981818 130.137547 
L 570.436364 130.460958 
L 572.890909 129.222509 
L 575.345455 135.6429 
L 577.8 129.596336 
L 580.254545 122.801234 
L 582.709091 126.031665 
L 585.163636 125.360857 
L 587.618182 126.537434 
L 590.072727 123.914092 
L 592.527273 125.508348 
L 594.981818 124.528743 
L 597.436364 126.170778 
L 599.890909 124.663893 
L 602.345455 126.702633 
L 604.8 114.556062 
L 607.254545 116.465949 
L 609.709091 118.027371 
L 612.163636 113.716271 
L 614.618182 118.198543 
L 617.072727 118.821673 
L 619.527273 112.831105 
L 621.981818 114.80644 
L 624.436364 114.569072 
L 626.890909 120.973617 
L 629.345455 109.52682 
L 631.8 107.276084 
L 634.254545 117.217442 
L 636.709091 102.897082 
L 639.163636 105.30873 
L 641.618182 112.330942 
L 644.072727 107.394222 
L 646.527273 105.985992 
L 648.981818 96.396525 
L 651.436364 110.848905 
L 653.890909 106.51068 
L 656.345455 103.306494 
L 658.8 95.857221 
L 661.254545 98.812806 
L 663.709091 107.144442 
L 666.163636 98.191925 
L 668.618182 99.676512 
L 671.072727 98.112207 
L 673.527273 102.398875 
L 675.981818 91.728455 
L 678.436364 95.361974 
L 680.890909 92.054212 
L 683.345455 97.757628 
L 685.8 101.00816 
L 688.254545 89.294611 
L 690.709091 87.666847 
L 693.163636 91.197387 
L 695.618182 84.575801 
L 698.072727 85.837124 
L 700.527273 84.369789 
L 702.981818 84.802112 
L 705.436364 87.75025 
L 707.890909 93.961715 
L 710.345455 83.095147 
L 712.8 88.21828 
L 715.254545 80.656345 
L 717.709091 83.772218 
L 720.163636 85.669263 
L 722.618182 78.525397 
L 725.072727 79.168109 
L 727.527273 77.378026 
L 729.981818 78.816656 
L 732.436364 66.96 
L 737.345455 77.229787 
L 739.8 80.582929 
L 742.254545 71.87677 
L 744.709091 75.01107 
L 747.163636 73.648842 
L 747.163636 73.648842 
" clip-path="url(#pe077cb88a9)" style="fill: none; stroke: #1f77b4; stroke-width: 1.5; stroke-linecap: square"/>
   </g>
   <g id="line2d_14">
    <path d="M 138.436364 365.344232 
L 143.345455 365.704643 
L 145.8 364.595632 
L 148.254545 365.273714 
L 150.709091 364.664211 
L 153.163636 364.793245 
L 155.618182 365.148386 
L 158.072727 364.82382 
L 160.527273 365.488686 
L 162.981818 364.82879 
L 165.436364 364.788673 
L 167.890909 365.799326 
L 170.345455 366.379327 
L 172.8 366.348666 
L 175.254545 364.871889 
L 177.709091 363.957008 
L 180.163636 365.236431 
L 182.618182 365.949088 
L 185.072727 364.457843 
L 187.527273 365.234166 
L 189.981818 363.954168 
L 192.436364 366.368135 
L 194.890909 364.607915 
L 197.345455 365.854925 
L 199.8 363.571789 
L 202.254545 365.443253 
L 204.709091 366.048729 
L 207.163636 363.064746 
L 209.618182 366.79281 
L 212.072727 364.4704 
L 214.527273 363.939687 
L 216.981818 364.909456 
L 219.436364 366.652177 
L 221.890909 368.805897 
L 224.345455 364.05191 
L 226.8 367.540665 
L 229.254545 366.533197 
L 231.709091 366.074812 
L 236.618182 366.328026 
L 239.072727 362.861751 
L 241.527273 365.86732 
L 243.981818 364.040526 
L 246.436364 364.848043 
L 248.890909 366.458473 
L 251.345455 366.071409 
L 253.8 362.706142 
L 256.254545 365.142212 
L 258.709091 363.09951 
L 261.163636 367.036924 
L 263.618182 363.510474 
L 268.527273 365.624548 
L 270.981818 365.6533 
L 273.436364 364.695141 
L 275.890909 369.043628 
L 278.345455 365.106091 
L 280.8 365.898615 
L 283.254545 364.024624 
L 285.709091 365.28979 
L 288.163636 364.4754 
L 290.618182 365.505007 
L 295.527273 364.415569 
L 297.981818 364.285677 
L 300.436364 365.962168 
L 302.890909 368.025721 
L 305.345455 363.470076 
L 307.8 366.698428 
L 310.254545 364.066495 
L 312.709091 366.72564 
L 315.163636 365.573345 
L 317.618182 365.858811 
L 320.072727 361.677472 
L 322.527273 366.30345 
L 324.981818 365.797634 
L 327.436364 366.625522 
L 329.890909 366.569428 
L 332.345455 367.143341 
L 334.8 363.519192 
L 337.254545 363.785372 
L 339.709091 365.866653 
L 342.163636 367.44152 
L 344.618182 364.480856 
L 347.072727 363.655294 
L 349.527273 363.480965 
L 351.981818 363.066949 
L 354.436364 364.38564 
L 356.890909 363.431571 
L 359.345455 368.706992 
L 361.8 366.374418 
L 364.254545 367.077064 
L 366.709091 364.094481 
L 369.163636 364.333535 
L 371.618182 363.236702 
L 374.072727 365.783186 
L 376.527273 363.549041 
L 378.981818 363.666397 
L 381.436364 363.014282 
L 383.890909 365.711203 
L 386.345455 367.27792 
L 388.8 366.610748 
L 391.254545 365.093422 
L 393.709091 366.134875 
L 396.163636 366.829434 
L 398.618182 367.665437 
L 401.072727 364.18664 
L 403.527273 364.044419 
L 405.981818 362.948087 
L 408.436364 363.745478 
L 410.890909 367.894025 
L 413.345455 367.876365 
L 415.8 366.190472 
L 418.254545 368.322064 
L 420.709091 364.841262 
L 423.163636 364.834678 
L 425.618182 364.692527 
L 428.072727 365.876211 
L 430.527273 366.644379 
L 432.981818 364.024577 
L 435.436364 366.189336 
L 437.890909 363.194684 
L 440.345455 363.190691 
L 442.8 369.36 
L 445.254545 366.191549 
L 447.709091 360.593464 
L 450.163636 364.380732 
L 452.618182 363.431626 
L 455.072727 365.552043 
L 457.527273 364.180207 
L 459.981818 359.534296 
L 462.436364 365.697602 
L 464.890909 364.663645 
L 467.345455 369.252888 
L 469.8 365.701997 
L 472.254545 364.054397 
L 474.709091 365.525827 
L 477.163636 362.631841 
L 479.618182 365.736235 
L 482.072727 364.48029 
L 484.527273 364.353283 
L 486.981818 362.378575 
L 489.436364 364.515978 
L 491.890909 365.685092 
L 494.345455 363.853333 
L 496.8 365.81203 
L 499.254545 368.85003 
L 501.709091 364.700064 
L 504.163636 365.057076 
L 506.618182 366.769694 
L 509.072727 368.0143 
L 511.527273 364.89305 
L 513.981818 364.205135 
L 518.890909 366.15847 
L 521.345455 363.102039 
L 523.8 366.594724 
L 526.254545 368.294149 
L 528.709091 364.948432 
L 531.163636 363.722097 
L 533.618182 365.014598 
L 536.072727 367.169497 
L 538.527273 365.042021 
L 540.981818 367.079009 
L 543.436364 365.659972 
L 545.890909 365.786845 
L 548.345455 360.376358 
L 550.8 364.455146 
L 553.254545 364.117277 
L 555.709091 365.279057 
L 558.163636 365.86564 
L 560.618182 364.115612 
L 563.072727 363.492287 
L 565.527273 363.764387 
L 567.981818 364.360875 
L 570.436364 364.795601 
L 575.345455 366.058392 
L 577.8 365.047893 
L 580.254545 362.488803 
L 582.709091 364.022446 
L 585.163636 363.899291 
L 587.618182 365.211938 
L 590.072727 365.699645 
L 592.527273 365.207468 
L 594.981818 365.34112 
L 597.436364 366.429769 
L 599.890909 366.497629 
L 602.345455 366.800262 
L 604.8 363.797978 
L 607.254545 364.365237 
L 609.709091 366.11172 
L 612.163636 365.076402 
L 614.618182 365.752949 
L 617.072727 366.932652 
L 619.527273 364.940227 
L 621.981818 366.189369 
L 624.436364 366.772003 
L 626.890909 367.813071 
L 629.345455 365.124863 
L 631.8 365.225657 
L 634.254545 366.783603 
L 636.709091 362.804237 
L 639.163636 364.502815 
L 641.618182 366.835638 
L 644.072727 365.175433 
L 646.527273 365.361658 
L 648.981818 362.540917 
L 651.436364 366.564178 
L 653.890909 366.938873 
L 656.345455 366.027414 
L 658.8 363.979254 
L 661.254545 365.269069 
L 663.709091 367.46838 
L 666.163636 364.734239 
L 668.618182 365.69527 
L 671.072727 365.828986 
L 673.527273 367.75484 
L 675.981818 364.50422 
L 678.436364 365.755263 
L 680.890909 364.183767 
L 683.345455 365.996549 
L 685.8 366.932676 
L 688.254545 363.817099 
L 690.709091 363.696642 
L 693.163636 364.60725 
L 695.618182 364.051514 
L 698.072727 365.274989 
L 700.527273 364.567055 
L 702.981818 364.400809 
L 705.436364 364.635881 
L 707.890909 366.820679 
L 710.345455 365.089897 
L 712.8 366.346328 
L 715.254545 365.336052 
L 717.709091 364.99931 
L 720.163636 366.304584 
L 722.618182 364.672374 
L 725.072727 364.395854 
L 727.527273 364.743109 
L 729.981818 365.75177 
L 732.436364 362.426221 
L 734.890909 364.691961 
L 737.345455 365.928078 
L 739.8 367.34222 
L 742.254545 363.405599 
L 744.709091 364.656146 
L 747.163636 364.180835 
L 747.163636 364.180835 
" clip-path="url(#pe077cb88a9)" style="fill: none; stroke: #ff7f0e; stroke-width: 1.5; stroke-linecap: square"/>
   </g>
   <g id="line2d_15">
    <path d="M 138.436364 337.330653 
L 140.890909 224.68256 
L 143.345455 186.968915 
L 145.8 168.037377 
L 148.254545 156.67665 
L 150.709091 149.465038 
L 153.163636 143.745484 
L 155.618182 139.99222 
L 158.072727 136.663567 
L 160.527273 134.141279 
L 162.981818 132.030069 
L 165.436364 130.355874 
L 167.890909 129.088809 
L 170.345455 128.010084 
L 172.8 126.755989 
L 175.254545 125.68967 
L 177.709091 124.829735 
L 182.618182 123.601579 
L 185.072727 122.799725 
L 192.436364 121.549576 
L 194.890909 120.975535 
L 197.345455 120.782684 
L 199.8 120.287023 
L 204.709091 119.750762 
L 207.163636 119.359985 
L 209.618182 119.306415 
L 214.527273 118.647226 
L 216.981818 118.457758 
L 219.436364 118.457758 
L 221.890909 118.293102 
L 224.345455 117.9886 
L 246.436364 116.68601 
L 251.345455 116.562518 
L 253.8 116.299744 
L 256.254545 116.31215 
L 258.709091 116.185274 
L 261.163636 116.194296 
L 263.618182 115.977198 
L 270.981818 115.774761 
L 278.345455 115.593188 
L 285.709091 115.358609 
L 293.072727 115.185494 
L 297.981818 115.077227 
L 302.890909 115.08061 
L 305.345455 114.939073 
L 307.8 114.984749 
L 312.709091 114.816145 
L 315.163636 114.829678 
L 320.072727 114.626677 
L 329.890909 114.591716 
L 337.254545 114.488524 
L 356.890909 114.175 
L 359.345455 114.249434 
L 361.8 114.109589 
L 364.254545 114.135528 
L 369.163636 114.023313 
L 381.436364 113.918429 
L 388.8 113.937038 
L 393.709091 113.853018 
L 401.072727 113.842868 
L 405.981818 113.683286 
L 413.345455 113.758848 
L 418.254545 113.689489 
L 430.527273 113.560358 
L 445.254545 113.493819 
L 447.709091 113.37371 
L 450.163636 113.476902 
L 486.981818 113.219767 
L 491.890909 113.267698 
L 494.345455 113.215256 
L 496.8 113.295329 
L 504.163636 113.201159 
L 533.618182 113.088381 
L 536.072727 113.028044 
L 540.981818 113.062442 
L 563.072727 113.031991 
L 567.981818 112.941769 
L 580.254545 112.951355 
L 624.436364 112.806999 
L 626.890909 112.866207 
L 631.8 112.778804 
L 634.254545 112.865079 
L 639.163636 112.790646 
L 644.072727 112.786135 
L 668.618182 112.748918 
L 680.890909 112.699859 
L 685.8 112.750046 
L 695.618182 112.667717 
L 742.254545 112.607381 
L 747.163636 112.614148 
L 747.163636 112.614148 
" clip-path="url(#pe077cb88a9)" style="fill: none; stroke: #2ca02c; stroke-width: 1.5; stroke-linecap: square"/>
   </g>
   <g id="line2d_16">
    <path d="M 138.436364 365.344232 
L 143.345455 365.569811 
L 145.8 364.917389 
L 148.254545 365.277897 
L 150.709091 365.01261 
L 153.163636 364.979855 
L 155.618182 365.202027 
L 158.072727 365.131329 
L 160.527273 365.492064 
L 165.436364 365.065685 
L 167.890909 365.624064 
L 170.345455 365.835195 
L 172.8 365.724372 
L 175.254545 365.062769 
L 177.709091 364.728132 
L 180.163636 365.431578 
L 182.618182 365.597824 
L 185.072727 364.715969 
L 187.527273 365.38157 
L 189.981818 365.027782 
L 192.436364 365.586036 
L 194.890909 364.993724 
L 197.345455 365.475325 
L 199.8 364.851363 
L 202.254545 365.257476 
L 204.709091 365.470598 
L 207.163636 364.773868 
L 209.618182 365.573496 
L 212.072727 365.326299 
L 214.527273 364.603421 
L 216.981818 365.280005 
L 219.436364 365.80024 
L 221.890909 366.147634 
L 224.345455 365.165775 
L 226.8 365.661421 
L 229.254545 365.689709 
L 231.709091 365.573574 
L 234.163636 365.81404 
L 236.618182 365.49321 
L 239.072727 365.00303 
L 241.527273 365.610373 
L 243.981818 365.019746 
L 248.890909 365.589984 
L 251.345455 365.568376 
L 253.8 364.683352 
L 256.254545 365.23367 
L 258.709091 365.085202 
L 261.163636 365.727219 
L 263.618182 365.195155 
L 266.072727 365.319305 
L 273.436364 365.10568 
L 275.890909 365.909737 
L 278.345455 365.420171 
L 285.709091 365.190671 
L 293.072727 365.237316 
L 295.527273 365.025751 
L 300.436364 365.337334 
L 302.890909 365.739172 
L 305.345455 365.014941 
L 307.8 365.584721 
L 310.254545 365.123835 
L 312.709091 365.511364 
L 315.163636 365.323133 
L 317.618182 365.369451 
L 320.072727 364.710211 
L 322.527273 365.398242 
L 327.436364 365.417123 
L 332.345455 365.644639 
L 334.8 365.064279 
L 337.254545 365.165144 
L 339.709091 365.492107 
L 342.163636 365.704264 
L 344.618182 365.358682 
L 347.072727 365.176734 
L 351.981818 365.119088 
L 354.436364 365.240375 
L 356.890909 365.113065 
L 359.345455 365.724865 
L 361.8 365.368262 
L 364.254545 365.457782 
L 366.709091 365.164996 
L 369.163636 365.31805 
L 371.618182 365.050094 
L 374.072727 365.308418 
L 376.527273 365.077357 
L 378.981818 365.169014 
L 381.436364 364.997815 
L 383.890909 365.273886 
L 386.345455 365.662783 
L 391.254545 365.376957 
L 398.618182 365.665191 
L 401.072727 365.303309 
L 405.981818 364.980112 
L 410.890909 365.688775 
L 415.8 365.399518 
L 418.254545 365.678551 
L 420.709091 365.25147 
L 423.163636 365.369719 
L 425.618182 365.282258 
L 430.527273 365.480115 
L 432.981818 365.169358 
L 435.436364 365.559751 
L 437.890909 365.106875 
L 440.345455 365.017512 
L 442.8 365.777122 
L 445.254545 365.449236 
L 447.709091 364.87242 
L 450.163636 365.314968 
L 452.618182 365.173236 
L 455.072727 365.379559 
L 457.527273 365.121231 
L 459.981818 364.552146 
L 462.436364 365.411859 
L 464.890909 365.237227 
L 467.345455 365.777477 
L 469.8 365.350951 
L 472.254545 365.211249 
L 474.709091 365.316201 
L 477.163636 365.050057 
L 479.618182 365.476016 
L 482.072727 365.243155 
L 484.527273 365.268464 
L 486.981818 365.008313 
L 489.436364 365.35593 
L 491.890909 365.331436 
L 494.345455 365.128706 
L 499.254545 365.752178 
L 501.709091 365.270605 
L 504.163636 365.248256 
L 506.618182 365.525332 
L 509.072727 365.623317 
L 511.527273 365.177347 
L 513.981818 365.165482 
L 516.436364 365.360771 
L 518.890909 365.442055 
L 521.345455 365.048425 
L 523.8 365.472581 
L 526.254545 365.680424 
L 531.163636 365.229118 
L 536.072727 365.52424 
L 538.527273 365.400726 
L 540.981818 365.581044 
L 543.436364 365.398981 
L 545.890909 365.424114 
L 548.345455 364.889674 
L 550.8 365.265287 
L 555.709091 365.30623 
L 558.163636 365.438107 
L 560.618182 365.198419 
L 563.072727 365.141647 
L 575.345455 365.42705 
L 580.254545 364.987051 
L 582.709091 365.251893 
L 585.163636 365.198492 
L 592.527273 365.35971 
L 602.345455 365.49703 
L 604.8 365.262544 
L 607.254545 365.239604 
L 609.709091 365.428413 
L 614.618182 365.378143 
L 617.072727 365.516909 
L 619.527273 365.295508 
L 626.890909 365.580843 
L 629.345455 365.336242 
L 634.254545 365.500102 
L 636.709091 365.114688 
L 641.618182 365.466662 
L 644.072727 365.348474 
L 646.527273 365.378981 
L 648.981818 365.042957 
L 651.436364 365.531229 
L 656.345455 365.515861 
L 658.8 365.207009 
L 663.709091 365.541224 
L 666.163636 365.254867 
L 668.618182 365.364289 
L 671.072727 365.359225 
L 673.527273 365.586093 
L 675.981818 365.293742 
L 678.436364 365.375731 
L 680.890909 365.252098 
L 685.8 365.462802 
L 688.254545 365.232351 
L 695.618182 365.233778 
L 698.072727 365.330415 
L 705.436364 365.295817 
L 707.890909 365.524842 
L 710.345455 365.330587 
L 712.8 365.454178 
L 717.709091 365.237223 
L 720.163636 365.436983 
L 722.618182 365.267115 
L 727.527273 365.302265 
L 729.981818 365.398086 
L 732.436364 365.120283 
L 734.890909 365.330299 
L 739.8 365.506063 
L 742.254545 365.187106 
L 747.163636 365.235379 
L 747.163636 365.235379 
" clip-path="url(#pe077cb88a9)" style="fill: none; stroke: #d62728; stroke-width: 1.5; stroke-linecap: square"/>
   </g>
   <g id="line2d_17">
    <path d="M 138.436364 276.516225 
L 140.890909 302.597463 
L 143.345455 314.293144 
L 145.8 320.499944 
L 148.254545 325.614201 
L 150.709091 328.6634 
L 153.163636 331.497926 
L 155.618182 333.743553 
L 160.527273 337.476479 
L 162.981818 338.663312 
L 165.436364 339.512155 
L 167.890909 340.97029 
L 170.345455 341.970009 
L 172.8 342.795183 
L 175.254545 342.920959 
L 177.709091 343.247487 
L 180.163636 344.494875 
L 182.618182 345.217182 
L 185.072727 344.937264 
L 187.527273 346.039227 
L 189.981818 346.058409 
L 192.436364 347.056934 
L 194.890909 346.920873 
L 197.345455 347.669819 
L 199.8 347.425358 
L 202.254545 348.161131 
L 204.709091 348.711663 
L 207.163636 348.274145 
L 209.618182 349.310037 
L 212.072727 349.417931 
L 214.527273 348.820411 
L 216.981818 349.883098 
L 221.890909 351.186339 
L 224.345455 350.275949 
L 226.8 351.103767 
L 229.254545 351.372008 
L 231.709091 351.361226 
L 234.163636 351.933659 
L 236.618182 351.750116 
L 239.072727 351.141666 
L 241.527273 352.16952 
L 243.981818 351.585655 
L 246.436364 352.024884 
L 248.890909 352.596438 
L 251.345455 352.614134 
L 253.8 351.703524 
L 256.254545 352.476583 
L 258.709091 352.435001 
L 261.163636 353.358979 
L 263.618182 352.884709 
L 266.072727 353.213302 
L 268.527273 353.057318 
L 270.981818 353.224874 
L 273.436364 353.075198 
L 275.890909 354.437666 
L 278.345455 353.783767 
L 285.709091 353.782592 
L 288.163636 353.860565 
L 290.618182 354.137087 
L 293.072727 354.123203 
L 295.527273 353.89129 
L 297.981818 354.242892 
L 300.436364 354.432285 
L 302.890909 355.105133 
L 305.345455 354.150524 
L 307.8 355.012321 
L 310.254545 354.39847 
L 312.709091 355.175643 
L 315.163636 354.837215 
L 317.618182 355.093778 
L 320.072727 354.137724 
L 322.527273 355.279583 
L 327.436364 355.357192 
L 332.345455 355.919646 
L 334.8 355.048967 
L 337.254545 355.145639 
L 339.709091 355.795862 
L 342.163636 356.159011 
L 344.618182 355.708256 
L 347.072727 355.488241 
L 351.981818 355.5376 
L 354.436364 355.670648 
L 356.890909 355.605812 
L 359.345455 356.587062 
L 361.8 356.197866 
L 364.254545 356.31469 
L 366.709091 355.949469 
L 369.163636 356.269298 
L 371.618182 355.832458 
L 374.072727 356.217529 
L 376.527273 355.898482 
L 378.981818 356.201836 
L 381.436364 355.861127 
L 383.890909 356.354766 
L 386.345455 357.160927 
L 388.8 356.874914 
L 391.254545 356.714263 
L 393.709091 356.908912 
L 396.163636 356.926128 
L 398.618182 357.289013 
L 401.072727 356.595398 
L 405.981818 356.27299 
L 408.436364 356.805799 
L 410.890909 357.556907 
L 415.8 357.120143 
L 418.254545 357.67044 
L 420.709091 356.900142 
L 423.163636 357.209755 
L 425.618182 356.966272 
L 428.072727 357.322064 
L 430.527273 357.548624 
L 432.981818 356.91727 
L 435.436364 357.681043 
L 437.890909 356.894462 
L 440.345455 356.768514 
L 442.8 358.122176 
L 445.254545 357.632917 
L 447.709091 356.664804 
L 450.163636 357.385907 
L 452.618182 357.131233 
L 455.072727 357.609014 
L 457.527273 357.128028 
L 459.981818 356.035574 
L 462.436364 357.711793 
L 464.890909 357.511581 
L 467.345455 358.534585 
L 469.8 357.778689 
L 472.254545 357.385033 
L 474.709091 357.620115 
L 477.163636 357.259262 
L 479.618182 358.13591 
L 482.072727 357.660976 
L 484.527273 357.854416 
L 486.981818 357.283226 
L 489.436364 357.910636 
L 491.890909 357.896945 
L 494.345455 357.562768 
L 499.254545 358.937229 
L 501.709091 357.856613 
L 504.163636 357.865397 
L 506.618182 358.510267 
L 509.072727 358.709682 
L 511.527273 357.748727 
L 513.981818 357.715242 
L 516.436364 358.209812 
L 518.890909 358.450786 
L 521.345455 357.649315 
L 523.8 358.562635 
L 526.254545 359.067765 
L 528.709091 358.381457 
L 531.163636 358.17038 
L 533.618182 358.443699 
L 536.072727 358.951127 
L 538.527273 358.489247 
L 540.981818 358.996013 
L 543.436364 358.557211 
L 545.890909 358.654102 
L 548.345455 357.474585 
L 550.8 358.367372 
L 553.254545 358.327212 
L 555.709091 358.412134 
L 558.163636 358.849169 
L 560.618182 358.303754 
L 563.072727 358.018334 
L 565.527273 358.359346 
L 570.436364 358.502846 
L 572.890909 358.954627 
L 575.345455 358.788859 
L 577.8 358.460199 
L 580.254545 357.837795 
L 582.709091 358.513499 
L 585.163636 358.326433 
L 590.072727 358.989143 
L 592.527273 358.825059 
L 594.981818 358.85072 
L 599.890909 359.19328 
L 602.345455 359.199967 
L 604.8 358.762735 
L 607.254545 358.687772 
L 609.709091 359.215246 
L 614.618182 359.069096 
L 617.072727 359.457732 
L 619.527273 358.911279 
L 626.890909 359.55322 
L 629.345455 359.096869 
L 631.8 359.321385 
L 634.254545 359.346449 
L 636.709091 358.512703 
L 641.618182 359.322971 
L 644.072727 359.17519 
L 646.527273 359.236698 
L 648.981818 358.524515 
L 651.436364 359.513683 
L 656.345455 359.633479 
L 658.8 358.977209 
L 661.254545 359.222091 
L 663.709091 359.731205 
L 666.163636 359.024435 
L 668.618182 359.324162 
L 671.072727 359.397712 
L 673.527273 360.010537 
L 675.981818 359.27778 
L 678.436364 359.457837 
L 680.890909 359.160728 
L 685.8 359.587328 
L 688.254545 359.097419 
L 693.163636 358.989732 
L 698.072727 359.496961 
L 705.436364 359.254217 
L 707.890909 359.869131 
L 710.345455 359.538072 
L 712.8 359.787059 
L 715.254545 359.702177 
L 717.709091 359.258157 
L 720.163636 359.809307 
L 722.618182 359.416036 
L 725.072727 359.319361 
L 727.527273 359.515629 
L 729.981818 359.833298 
L 732.436364 359.138488 
L 734.890909 359.732479 
L 737.345455 359.862771 
L 739.8 360.172892 
L 742.254545 359.24372 
L 744.709091 359.394937 
L 747.163636 359.360957 
L 747.163636 359.360957 
" clip-path="url(#pe077cb88a9)" style="fill: none; stroke: #9467bd; stroke-width: 1.5; stroke-linecap: square"/>
   </g>
   <g id="patch_3">
    <path d="M 108 384.48 
L 108 51.84 
" style="fill: none; stroke: #000000; stroke-width: 0.8; stroke-linejoin: miter; stroke-linecap: square"/>
   </g>
   <g id="patch_4">
    <path d="M 777.6 384.48 
L 777.6 51.84 
" style="fill: none; stroke: #000000; stroke-width: 0.8; stroke-linejoin: miter; stroke-linecap: square"/>
   </g>
   <g id="patch_5">
    <path d="M 108 384.48 
L 777.6 384.48 
" style="fill: none; stroke: #000000; stroke-width: 0.8; stroke-linejoin: miter; stroke-linecap: square"/>
   </g>
   <g id="patch_6">
    <path d="M 108 51.84 
L 777.6 51.84 
" style="fill: none; stroke: #000000; stroke-width: 0.8; stroke-linejoin: miter; stroke-linecap: square"/>
   </g>
   <g id="legend_1">
    <g id="patch_7">
     <path d="M 720.18125 256.355312 
L 770.6 256.355312 
Q 772.6 256.355312 772.6 254.355312 
L 772.6 181.964687 
Q 772.6 179.964687 770.6 179.964687 
L 720.18125 179.964687 
Q 718.18125 179.964687 718.18125 181.964687 
L 718.18125 254.355312 
Q 718.18125 256.355312 720.18125 256.355312 
z
" style="fill: #ffffff; opacity: 0.8; stroke: #cccccc; stroke-linejoin: miter"/>
    </g>
    <g id="line2d_18">
     <path d="M 722.18125 188.063125 
L 732.18125 188.063125 
L 742.18125 188.063125 
" style="fill: none; stroke: #1f77b4; stroke-width: 1.5; stroke-linecap: square"/>
    </g>
    <g id="text_13">
     <!-- MI -->
     <g transform="translate(750.18125 191.563125) scale(0.1 -0.1)">
      <defs>
       <path id="DejaVuSans-4d" d="M 628 4666 
L 1569 4666 
L 2759 1491 
L 3956 4666 
L 4897 4666 
L 4897 0 
L 4281 0 
L 4281 4097 
L 3078 897 
L 2444 897 
L 1241 4097 
L 1241 0 
L 628 0 
L 628 4666 
z
" transform="scale(0.015625)"/>
       <path id="DejaVuSans-49" d="M 628 4666 
L 1259 4666 
L 1259 0 
L 628 0 
L 628 4666 
z
" transform="scale(0.015625)"/>
      </defs>
      <use xlink:href="#DejaVuSans-4d"/>
      <use xlink:href="#DejaVuSans-49" x="86.279297"/>
     </g>
    </g>
    <g id="line2d_19">
     <path d="M 722.18125 202.74125 
L 732.18125 202.74125 
L 742.18125 202.74125 
" style="fill: none; stroke: #ff7f0e; stroke-width: 1.5; stroke-linecap: square"/>
    </g>
    <g id="text_14">
     <!-- AMI -->
     <g transform="translate(750.18125 206.24125) scale(0.1 -0.1)">
      <defs>
       <path id="DejaVuSans-41" d="M 2188 4044 
L 1331 1722 
L 3047 1722 
L 2188 4044 
z
M 1831 4666 
L 2547 4666 
L 4325 0 
L 3669 0 
L 3244 1197 
L 1141 1197 
L 716 0 
L 50 0 
L 1831 4666 
z
" transform="scale(0.015625)"/>
      </defs>
      <use xlink:href="#DejaVuSans-41"/>
      <use xlink:href="#DejaVuSans-4d" x="68.408203"/>
      <use xlink:href="#DejaVuSans-49" x="154.6875"/>
     </g>
    </g>
    <g id="line2d_20">
     <path d="M 722.18125 217.419375 
L 732.18125 217.419375 
L 742.18125 217.419375 
" style="fill: none; stroke: #2ca02c; stroke-width: 1.5; stroke-linecap: square"/>
    </g>
    <g id="text_15">
     <!-- RI -->
     <g transform="translate(750.18125 220.919375) scale(0.1 -0.1)">
      <defs>
       <path id="DejaVuSans-52" d="M 2841 2188 
Q 3044 2119 3236 1894 
Q 3428 1669 3622 1275 
L 4263 0 
L 3584 0 
L 2988 1197 
Q 2756 1666 2539 1819 
Q 2322 1972 1947 1972 
L 1259 1972 
L 1259 0 
L 628 0 
L 628 4666 
L 2053 4666 
Q 2853 4666 3247 4331 
Q 3641 3997 3641 3322 
Q 3641 2881 3436 2590 
Q 3231 2300 2841 2188 
z
M 1259 4147 
L 1259 2491 
L 2053 2491 
Q 2509 2491 2742 2702 
Q 2975 2913 2975 3322 
Q 2975 3731 2742 3939 
Q 2509 4147 2053 4147 
L 1259 4147 
z
" transform="scale(0.015625)"/>
      </defs>
      <use xlink:href="#DejaVuSans-52"/>
      <use xlink:href="#DejaVuSans-49" x="69.482422"/>
     </g>
    </g>
    <g id="line2d_21">
     <path d="M 722.18125 232.0975 
L 732.18125 232.0975 
L 742.18125 232.0975 
" style="fill: none; stroke: #d62728; stroke-width: 1.5; stroke-linecap: square"/>
    </g>
    <g id="text_16">
     <!-- ARI -->
     <g transform="translate(750.18125 235.5975) scale(0.1 -0.1)">
      <use xlink:href="#DejaVuSans-41"/>
      <use xlink:href="#DejaVuSans-52" x="68.408203"/>
      <use xlink:href="#DejaVuSans-49" x="137.890625"/>
     </g>
    </g>
    <g id="line2d_22">
     <path d="M 722.18125 246.775625 
L 732.18125 246.775625 
L 742.18125 246.775625 
" style="fill: none; stroke: #9467bd; stroke-width: 1.5; stroke-linecap: square"/>
    </g>
    <g id="text_17">
     <!-- FMI -->
     <g transform="translate(750.18125 250.275625) scale(0.1 -0.1)">
      <defs>
       <path id="DejaVuSans-46" d="M 628 4666 
L 3309 4666 
L 3309 4134 
L 1259 4134 
L 1259 2759 
L 3109 2759 
L 3109 2228 
L 1259 2228 
L 1259 0 
L 628 0 
L 628 4666 
z
" transform="scale(0.015625)"/>
      </defs>
      <use xlink:href="#DejaVuSans-46"/>
      <use xlink:href="#DejaVuSans-4d" x="57.519531"/>
      <use xlink:href="#DejaVuSans-49" x="143.798828"/>
     </g>
    </g>
   </g>
  </g>
 </g>
 <defs>
  <clipPath id="pe077cb88a9">
   <rect x="108" y="51.84" width="669.6" height="332.64"/>
  </clipPath>
 </defs>
</svg>
