<?xml version="1.0" encoding="utf-8" standalone="no"?>
<!DOCTYPE svg PUBLIC "-//W3C//DTD SVG 1.1//EN"
  "http://www.w3.org/Graphics/SVG/1.1/DTD/svg11.dtd">
<svg xmlns:xlink="http://www.w3.org/1999/xlink" width="1440pt" height="792pt" viewBox="0 0 1440 792" xmlns="http://www.w3.org/2000/svg" version="1.1">
 <metadata>
  <rdf:RDF xmlns:dc="http://purl.org/dc/elements/1.1/" xmlns:cc="http://creativecommons.org/ns#" xmlns:rdf="http://www.w3.org/1999/02/22-rdf-syntax-ns#">
   <cc:Work>
    <dc:type rdf:resource="http://purl.org/dc/dcmitype/StillImage"/>
    <dc:date>2025-02-17T22:58:10.515958</dc:date>
    <dc:format>image/svg+xml</dc:format>
    <dc:creator>
     <cc:Agent>
      <dc:title>Matplotlib v3.10.0, https://matplotlib.org/</dc:title>
     </cc:Agent>
    </dc:creator>
   </cc:Work>
  </rdf:RDF>
 </metadata>
 <defs>
  <style type="text/css">*{stroke-linejoin: round; stroke-linecap: butt}</style>
 </defs>
 <g id="figure_1">
  <g id="patch_1">
   <path d="M 0 792 
L 1440 792 
L 1440 0 
L 0 0 
z
" style="fill: #ffffff"/>
  </g>
  <g id="axes_1">
   <g id="patch_2">
    <path d="M 180 372.24 
L 508.235294 372.24 
L 508.235294 95.04 
L 180 95.04 
z
" style="fill: #ffffff"/>
   </g>
   <g id="matplotlib.axis_1">
    <g id="xtick_1">
     <g id="line2d_1">
      <defs>
       <path id="m2f128c61b2" d="M 0 0 
L 0 3.5 
" style="stroke: #000000; stroke-width: 0.8"/>
      </defs>
      <g>
       <use xlink:href="#m2f128c61b2" x="257.739938" y="372.24" style="stroke: #000000; stroke-width: 0.8"/>
      </g>
     </g>
     <g id="text_1">
      <!-- 50 -->
      <g transform="translate(245.014938 394.436875) scale(0.2 -0.2)">
       <defs>
        <path id="DejaVuSans-35" d="M 691 4666 
L 3169 4666 
L 3169 4134 
L 1269 4134 
L 1269 2991 
Q 1406 3038 1543 3061 
Q 1681 3084 1819 3084 
Q 2600 3084 3056 2656 
Q 3513 2228 3513 1497 
Q 3513 744 3044 326 
Q 2575 -91 1722 -91 
Q 1428 -91 1123 -41 
Q 819 9 494 109 
L 494 744 
Q 775 591 1075 516 
Q 1375 441 1709 441 
Q 2250 441 2565 725 
Q 2881 1009 2881 1497 
Q 2881 1984 2565 2268 
Q 2250 2553 1709 2553 
Q 1456 2553 1204 2497 
Q 953 2441 691 2322 
L 691 4666 
z
" transform="scale(0.015625)"/>
        <path id="DejaVuSans-30" d="M 2034 4250 
Q 1547 4250 1301 3770 
Q 1056 3291 1056 2328 
Q 1056 1369 1301 889 
Q 1547 409 2034 409 
Q 2525 409 2770 889 
Q 3016 1369 3016 2328 
Q 3016 3291 2770 3770 
Q 2525 4250 2034 4250 
z
M 2034 4750 
Q 2819 4750 3233 4129 
Q 3647 3509 3647 2328 
Q 3647 1150 3233 529 
Q 2819 -91 2034 -91 
Q 1250 -91 836 529 
Q 422 1150 422 2328 
Q 422 3509 836 4129 
Q 1250 4750 2034 4750 
z
" transform="scale(0.015625)"/>
       </defs>
       <use xlink:href="#DejaVuSans-35"/>
       <use xlink:href="#DejaVuSans-30" transform="translate(63.623047 0)"/>
      </g>
     </g>
    </g>
    <g id="xtick_2">
     <g id="line2d_2">
      <g>
       <use xlink:href="#m2f128c61b2" x="336.265128" y="372.24" style="stroke: #000000; stroke-width: 0.8"/>
      </g>
     </g>
     <g id="text_2">
      <!-- 100 -->
      <g transform="translate(317.177628 394.436875) scale(0.2 -0.2)">
       <defs>
        <path id="DejaVuSans-31" d="M 794 531 
L 1825 531 
L 1825 4091 
L 703 3866 
L 703 4441 
L 1819 4666 
L 2450 4666 
L 2450 531 
L 3481 531 
L 3481 0 
L 794 0 
L 794 531 
z
" transform="scale(0.015625)"/>
       </defs>
       <use xlink:href="#DejaVuSans-31"/>
       <use xlink:href="#DejaVuSans-30" transform="translate(63.623047 0)"/>
       <use xlink:href="#DejaVuSans-30" transform="translate(127.246094 0)"/>
      </g>
     </g>
    </g>
    <g id="xtick_3">
     <g id="line2d_3">
      <g>
       <use xlink:href="#m2f128c61b2" x="414.790318" y="372.24" style="stroke: #000000; stroke-width: 0.8"/>
      </g>
     </g>
     <g id="text_3">
      <!-- 150 -->
      <g transform="translate(395.702818 394.436875) scale(0.2 -0.2)">
       <use xlink:href="#DejaVuSans-31"/>
       <use xlink:href="#DejaVuSans-35" transform="translate(63.623047 0)"/>
       <use xlink:href="#DejaVuSans-30" transform="translate(127.246094 0)"/>
      </g>
     </g>
    </g>
    <g id="xtick_4">
     <g id="line2d_4">
      <g>
       <use xlink:href="#m2f128c61b2" x="493.315508" y="372.24" style="stroke: #000000; stroke-width: 0.8"/>
      </g>
     </g>
     <g id="text_4">
      <!-- 200 -->
      <g transform="translate(474.228008 394.436875) scale(0.2 -0.2)">
       <defs>
        <path id="DejaVuSans-32" d="M 1228 531 
L 3431 531 
L 3431 0 
L 469 0 
L 469 531 
Q 828 903 1448 1529 
Q 2069 2156 2228 2338 
Q 2531 2678 2651 2914 
Q 2772 3150 2772 3378 
Q 2772 3750 2511 3984 
Q 2250 4219 1831 4219 
Q 1534 4219 1204 4116 
Q 875 4013 500 3803 
L 500 4441 
Q 881 4594 1212 4672 
Q 1544 4750 1819 4750 
Q 2544 4750 2975 4387 
Q 3406 4025 3406 3419 
Q 3406 3131 3298 2873 
Q 3191 2616 2906 2266 
Q 2828 2175 2409 1742 
Q 1991 1309 1228 531 
z
" transform="scale(0.015625)"/>
       </defs>
       <use xlink:href="#DejaVuSans-32"/>
       <use xlink:href="#DejaVuSans-30" transform="translate(63.623047 0)"/>
       <use xlink:href="#DejaVuSans-30" transform="translate(127.246094 0)"/>
      </g>
     </g>
    </g>
    <g id="text_5">
     <!-- Number of components -->
     <g transform="translate(226.167647 417.793125) scale(0.2 -0.2)">
      <defs>
       <path id="DejaVuSans-4e" d="M 628 4666 
L 1478 4666 
L 3547 763 
L 3547 4666 
L 4159 4666 
L 4159 0 
L 3309 0 
L 1241 3903 
L 1241 0 
L 628 0 
L 628 4666 
z
" transform="scale(0.015625)"/>
       <path id="DejaVuSans-75" d="M 544 1381 
L 544 3500 
L 1119 3500 
L 1119 1403 
Q 1119 906 1312 657 
Q 1506 409 1894 409 
Q 2359 409 2629 706 
Q 2900 1003 2900 1516 
L 2900 3500 
L 3475 3500 
L 3475 0 
L 2900 0 
L 2900 538 
Q 2691 219 2414 64 
Q 2138 -91 1772 -91 
Q 1169 -91 856 284 
Q 544 659 544 1381 
z
M 1991 3584 
L 1991 3584 
z
" transform="scale(0.015625)"/>
       <path id="DejaVuSans-6d" d="M 3328 2828 
Q 3544 3216 3844 3400 
Q 4144 3584 4550 3584 
Q 5097 3584 5394 3201 
Q 5691 2819 5691 2113 
L 5691 0 
L 5113 0 
L 5113 2094 
Q 5113 2597 4934 2840 
Q 4756 3084 4391 3084 
Q 3944 3084 3684 2787 
Q 3425 2491 3425 1978 
L 3425 0 
L 2847 0 
L 2847 2094 
Q 2847 2600 2669 2842 
Q 2491 3084 2119 3084 
Q 1678 3084 1418 2786 
Q 1159 2488 1159 1978 
L 1159 0 
L 581 0 
L 581 3500 
L 1159 3500 
L 1159 2956 
Q 1356 3278 1631 3431 
Q 1906 3584 2284 3584 
Q 2666 3584 2933 3390 
Q 3200 3197 3328 2828 
z
" transform="scale(0.015625)"/>
       <path id="DejaVuSans-62" d="M 3116 1747 
Q 3116 2381 2855 2742 
Q 2594 3103 2138 3103 
Q 1681 3103 1420 2742 
Q 1159 2381 1159 1747 
Q 1159 1113 1420 752 
Q 1681 391 2138 391 
Q 2594 391 2855 752 
Q 3116 1113 3116 1747 
z
M 1159 2969 
Q 1341 3281 1617 3432 
Q 1894 3584 2278 3584 
Q 2916 3584 3314 3078 
Q 3713 2572 3713 1747 
Q 3713 922 3314 415 
Q 2916 -91 2278 -91 
Q 1894 -91 1617 61 
Q 1341 213 1159 525 
L 1159 0 
L 581 0 
L 581 4863 
L 1159 4863 
L 1159 2969 
z
" transform="scale(0.015625)"/>
       <path id="DejaVuSans-65" d="M 3597 1894 
L 3597 1613 
L 953 1613 
Q 991 1019 1311 708 
Q 1631 397 2203 397 
Q 2534 397 2845 478 
Q 3156 559 3463 722 
L 3463 178 
Q 3153 47 2828 -22 
Q 2503 -91 2169 -91 
Q 1331 -91 842 396 
Q 353 884 353 1716 
Q 353 2575 817 3079 
Q 1281 3584 2069 3584 
Q 2775 3584 3186 3129 
Q 3597 2675 3597 1894 
z
M 3022 2063 
Q 3016 2534 2758 2815 
Q 2500 3097 2075 3097 
Q 1594 3097 1305 2825 
Q 1016 2553 972 2059 
L 3022 2063 
z
" transform="scale(0.015625)"/>
       <path id="DejaVuSans-72" d="M 2631 2963 
Q 2534 3019 2420 3045 
Q 2306 3072 2169 3072 
Q 1681 3072 1420 2755 
Q 1159 2438 1159 1844 
L 1159 0 
L 581 0 
L 581 3500 
L 1159 3500 
L 1159 2956 
Q 1341 3275 1631 3429 
Q 1922 3584 2338 3584 
Q 2397 3584 2469 3576 
Q 2541 3569 2628 3553 
L 2631 2963 
z
" transform="scale(0.015625)"/>
       <path id="DejaVuSans-20" transform="scale(0.015625)"/>
       <path id="DejaVuSans-6f" d="M 1959 3097 
Q 1497 3097 1228 2736 
Q 959 2375 959 1747 
Q 959 1119 1226 758 
Q 1494 397 1959 397 
Q 2419 397 2687 759 
Q 2956 1122 2956 1747 
Q 2956 2369 2687 2733 
Q 2419 3097 1959 3097 
z
M 1959 3584 
Q 2709 3584 3137 3096 
Q 3566 2609 3566 1747 
Q 3566 888 3137 398 
Q 2709 -91 1959 -91 
Q 1206 -91 779 398 
Q 353 888 353 1747 
Q 353 2609 779 3096 
Q 1206 3584 1959 3584 
z
" transform="scale(0.015625)"/>
       <path id="DejaVuSans-66" d="M 2375 4863 
L 2375 4384 
L 1825 4384 
Q 1516 4384 1395 4259 
Q 1275 4134 1275 3809 
L 1275 3500 
L 2222 3500 
L 2222 3053 
L 1275 3053 
L 1275 0 
L 697 0 
L 697 3053 
L 147 3053 
L 147 3500 
L 697 3500 
L 697 3744 
Q 697 4328 969 4595 
Q 1241 4863 1831 4863 
L 2375 4863 
z
" transform="scale(0.015625)"/>
       <path id="DejaVuSans-63" d="M 3122 3366 
L 3122 2828 
Q 2878 2963 2633 3030 
Q 2388 3097 2138 3097 
Q 1578 3097 1268 2742 
Q 959 2388 959 1747 
Q 959 1106 1268 751 
Q 1578 397 2138 397 
Q 2388 397 2633 464 
Q 2878 531 3122 666 
L 3122 134 
Q 2881 22 2623 -34 
Q 2366 -91 2075 -91 
Q 1284 -91 818 406 
Q 353 903 353 1747 
Q 353 2603 823 3093 
Q 1294 3584 2113 3584 
Q 2378 3584 2631 3529 
Q 2884 3475 3122 3366 
z
" transform="scale(0.015625)"/>
       <path id="DejaVuSans-70" d="M 1159 525 
L 1159 -1331 
L 581 -1331 
L 581 3500 
L 1159 3500 
L 1159 2969 
Q 1341 3281 1617 3432 
Q 1894 3584 2278 3584 
Q 2916 3584 3314 3078 
Q 3713 2572 3713 1747 
Q 3713 922 3314 415 
Q 2916 -91 2278 -91 
Q 1894 -91 1617 61 
Q 1341 213 1159 525 
z
M 3116 1747 
Q 3116 2381 2855 2742 
Q 2594 3103 2138 3103 
Q 1681 3103 1420 2742 
Q 1159 2381 1159 1747 
Q 1159 1113 1420 752 
Q 1681 391 2138 391 
Q 2594 391 2855 752 
Q 3116 1113 3116 1747 
z
" transform="scale(0.015625)"/>
       <path id="DejaVuSans-6e" d="M 3513 2113 
L 3513 0 
L 2938 0 
L 2938 2094 
Q 2938 2591 2744 2837 
Q 2550 3084 2163 3084 
Q 1697 3084 1428 2787 
Q 1159 2491 1159 1978 
L 1159 0 
L 581 0 
L 581 3500 
L 1159 3500 
L 1159 2956 
Q 1366 3272 1645 3428 
Q 1925 3584 2291 3584 
Q 2894 3584 3203 3211 
Q 3513 2838 3513 2113 
z
" transform="scale(0.015625)"/>
       <path id="DejaVuSans-74" d="M 1172 4494 
L 1172 3500 
L 2356 3500 
L 2356 3053 
L 1172 3053 
L 1172 1153 
Q 1172 725 1289 603 
Q 1406 481 1766 481 
L 2356 481 
L 2356 0 
L 1766 0 
Q 1100 0 847 248 
Q 594 497 594 1153 
L 594 3053 
L 172 3053 
L 172 3500 
L 594 3500 
L 594 4494 
L 1172 4494 
z
" transform="scale(0.015625)"/>
       <path id="DejaVuSans-73" d="M 2834 3397 
L 2834 2853 
Q 2591 2978 2328 3040 
Q 2066 3103 1784 3103 
Q 1356 3103 1142 2972 
Q 928 2841 928 2578 
Q 928 2378 1081 2264 
Q 1234 2150 1697 2047 
L 1894 2003 
Q 2506 1872 2764 1633 
Q 3022 1394 3022 966 
Q 3022 478 2636 193 
Q 2250 -91 1575 -91 
Q 1294 -91 989 -36 
Q 684 19 347 128 
L 347 722 
Q 666 556 975 473 
Q 1284 391 1588 391 
Q 1994 391 2212 530 
Q 2431 669 2431 922 
Q 2431 1156 2273 1281 
Q 2116 1406 1581 1522 
L 1381 1569 
Q 847 1681 609 1914 
Q 372 2147 372 2553 
Q 372 3047 722 3315 
Q 1072 3584 1716 3584 
Q 2034 3584 2315 3537 
Q 2597 3491 2834 3397 
z
" transform="scale(0.015625)"/>
      </defs>
      <use xlink:href="#DejaVuSans-4e"/>
      <use xlink:href="#DejaVuSans-75" transform="translate(74.804688 0)"/>
      <use xlink:href="#DejaVuSans-6d" transform="translate(138.183594 0)"/>
      <use xlink:href="#DejaVuSans-62" transform="translate(235.595703 0)"/>
      <use xlink:href="#DejaVuSans-65" transform="translate(299.072266 0)"/>
      <use xlink:href="#DejaVuSans-72" transform="translate(360.595703 0)"/>
      <use xlink:href="#DejaVuSans-20" transform="translate(401.708984 0)"/>
      <use xlink:href="#DejaVuSans-6f" transform="translate(433.496094 0)"/>
      <use xlink:href="#DejaVuSans-66" transform="translate(494.677734 0)"/>
      <use xlink:href="#DejaVuSans-20" transform="translate(529.882812 0)"/>
      <use xlink:href="#DejaVuSans-63" transform="translate(561.669922 0)"/>
      <use xlink:href="#DejaVuSans-6f" transform="translate(616.650391 0)"/>
      <use xlink:href="#DejaVuSans-6d" transform="translate(677.832031 0)"/>
      <use xlink:href="#DejaVuSans-70" transform="translate(775.244141 0)"/>
      <use xlink:href="#DejaVuSans-6f" transform="translate(838.720703 0)"/>
      <use xlink:href="#DejaVuSans-6e" transform="translate(899.902344 0)"/>
      <use xlink:href="#DejaVuSans-65" transform="translate(963.28125 0)"/>
      <use xlink:href="#DejaVuSans-6e" transform="translate(1024.804688 0)"/>
      <use xlink:href="#DejaVuSans-74" transform="translate(1088.183594 0)"/>
      <use xlink:href="#DejaVuSans-73" transform="translate(1127.392578 0)"/>
     </g>
    </g>
   </g>
   <g id="matplotlib.axis_2">
    <g id="ytick_1">
     <g id="line2d_5">
      <defs>
       <path id="ma6603070e9" d="M 0 0 
L -3.5 0 
" style="stroke: #000000; stroke-width: 0.8"/>
      </defs>
      <g>
       <use xlink:href="#ma6603070e9" x="180" y="372.24" style="stroke: #000000; stroke-width: 0.8"/>
      </g>
     </g>
     <g id="text_6">
      <!-- 0.0 -->
      <g transform="translate(141.19375 379.838437) scale(0.2 -0.2)">
       <defs>
        <path id="DejaVuSans-2e" d="M 684 794 
L 1344 794 
L 1344 0 
L 684 0 
L 684 794 
z
" transform="scale(0.015625)"/>
       </defs>
       <use xlink:href="#DejaVuSans-30"/>
       <use xlink:href="#DejaVuSans-2e" transform="translate(63.623047 0)"/>
       <use xlink:href="#DejaVuSans-30" transform="translate(95.410156 0)"/>
      </g>
     </g>
    </g>
    <g id="ytick_2">
     <g id="line2d_6">
      <g>
       <use xlink:href="#ma6603070e9" x="180" y="316.8" style="stroke: #000000; stroke-width: 0.8"/>
      </g>
     </g>
     <g id="text_7">
      <!-- 0.2 -->
      <g transform="translate(141.19375 324.398437) scale(0.2 -0.2)">
       <use xlink:href="#DejaVuSans-30"/>
       <use xlink:href="#DejaVuSans-2e" transform="translate(63.623047 0)"/>
       <use xlink:href="#DejaVuSans-32" transform="translate(95.410156 0)"/>
      </g>
     </g>
    </g>
    <g id="ytick_3">
     <g id="line2d_7">
      <g>
       <use xlink:href="#ma6603070e9" x="180" y="261.36" style="stroke: #000000; stroke-width: 0.8"/>
      </g>
     </g>
     <g id="text_8">
      <!-- 0.4 -->
      <g transform="translate(141.19375 268.958437) scale(0.2 -0.2)">
       <defs>
        <path id="DejaVuSans-34" d="M 2419 4116 
L 825 1625 
L 2419 1625 
L 2419 4116 
z
M 2253 4666 
L 3047 4666 
L 3047 1625 
L 3713 1625 
L 3713 1100 
L 3047 1100 
L 3047 0 
L 2419 0 
L 2419 1100 
L 313 1100 
L 313 1709 
L 2253 4666 
z
" transform="scale(0.015625)"/>
       </defs>
       <use xlink:href="#DejaVuSans-30"/>
       <use xlink:href="#DejaVuSans-2e" transform="translate(63.623047 0)"/>
       <use xlink:href="#DejaVuSans-34" transform="translate(95.410156 0)"/>
      </g>
     </g>
    </g>
    <g id="ytick_4">
     <g id="line2d_8">
      <g>
       <use xlink:href="#ma6603070e9" x="180" y="205.92" style="stroke: #000000; stroke-width: 0.8"/>
      </g>
     </g>
     <g id="text_9">
      <!-- 0.6 -->
      <g transform="translate(141.19375 213.518438) scale(0.2 -0.2)">
       <defs>
        <path id="DejaVuSans-36" d="M 2113 2584 
Q 1688 2584 1439 2293 
Q 1191 2003 1191 1497 
Q 1191 994 1439 701 
Q 1688 409 2113 409 
Q 2538 409 2786 701 
Q 3034 994 3034 1497 
Q 3034 2003 2786 2293 
Q 2538 2584 2113 2584 
z
M 3366 4563 
L 3366 3988 
Q 3128 4100 2886 4159 
Q 2644 4219 2406 4219 
Q 1781 4219 1451 3797 
Q 1122 3375 1075 2522 
Q 1259 2794 1537 2939 
Q 1816 3084 2150 3084 
Q 2853 3084 3261 2657 
Q 3669 2231 3669 1497 
Q 3669 778 3244 343 
Q 2819 -91 2113 -91 
Q 1303 -91 875 529 
Q 447 1150 447 2328 
Q 447 3434 972 4092 
Q 1497 4750 2381 4750 
Q 2619 4750 2861 4703 
Q 3103 4656 3366 4563 
z
" transform="scale(0.015625)"/>
       </defs>
       <use xlink:href="#DejaVuSans-30"/>
       <use xlink:href="#DejaVuSans-2e" transform="translate(63.623047 0)"/>
       <use xlink:href="#DejaVuSans-36" transform="translate(95.410156 0)"/>
      </g>
     </g>
    </g>
    <g id="ytick_5">
     <g id="line2d_9">
      <g>
       <use xlink:href="#ma6603070e9" x="180" y="150.48" style="stroke: #000000; stroke-width: 0.8"/>
      </g>
     </g>
     <g id="text_10">
      <!-- 0.8 -->
      <g transform="translate(141.19375 158.078438) scale(0.2 -0.2)">
       <defs>
        <path id="DejaVuSans-38" d="M 2034 2216 
Q 1584 2216 1326 1975 
Q 1069 1734 1069 1313 
Q 1069 891 1326 650 
Q 1584 409 2034 409 
Q 2484 409 2743 651 
Q 3003 894 3003 1313 
Q 3003 1734 2745 1975 
Q 2488 2216 2034 2216 
z
M 1403 2484 
Q 997 2584 770 2862 
Q 544 3141 544 3541 
Q 544 4100 942 4425 
Q 1341 4750 2034 4750 
Q 2731 4750 3128 4425 
Q 3525 4100 3525 3541 
Q 3525 3141 3298 2862 
Q 3072 2584 2669 2484 
Q 3125 2378 3379 2068 
Q 3634 1759 3634 1313 
Q 3634 634 3220 271 
Q 2806 -91 2034 -91 
Q 1263 -91 848 271 
Q 434 634 434 1313 
Q 434 1759 690 2068 
Q 947 2378 1403 2484 
z
M 1172 3481 
Q 1172 3119 1398 2916 
Q 1625 2713 2034 2713 
Q 2441 2713 2670 2916 
Q 2900 3119 2900 3481 
Q 2900 3844 2670 4047 
Q 2441 4250 2034 4250 
Q 1625 4250 1398 4047 
Q 1172 3844 1172 3481 
z
" transform="scale(0.015625)"/>
       </defs>
       <use xlink:href="#DejaVuSans-30"/>
       <use xlink:href="#DejaVuSans-2e" transform="translate(63.623047 0)"/>
       <use xlink:href="#DejaVuSans-38" transform="translate(95.410156 0)"/>
      </g>
     </g>
    </g>
    <g id="ytick_6">
     <g id="line2d_10">
      <g>
       <use xlink:href="#ma6603070e9" x="180" y="95.04" style="stroke: #000000; stroke-width: 0.8"/>
      </g>
     </g>
     <g id="text_11">
      <!-- 1.0 -->
      <g transform="translate(141.19375 102.638438) scale(0.2 -0.2)">
       <use xlink:href="#DejaVuSans-31"/>
       <use xlink:href="#DejaVuSans-2e" transform="translate(63.623047 0)"/>
       <use xlink:href="#DejaVuSans-30" transform="translate(95.410156 0)"/>
      </g>
     </g>
    </g>
    <g id="text_12">
     <!-- Explained variance -->
     <g transform="translate(133.034375 328.980625) rotate(-90) scale(0.2 -0.2)">
      <defs>
       <path id="DejaVuSans-45" d="M 628 4666 
L 3578 4666 
L 3578 4134 
L 1259 4134 
L 1259 2753 
L 3481 2753 
L 3481 2222 
L 1259 2222 
L 1259 531 
L 3634 531 
L 3634 0 
L 628 0 
L 628 4666 
z
" transform="scale(0.015625)"/>
       <path id="DejaVuSans-78" d="M 3513 3500 
L 2247 1797 
L 3578 0 
L 2900 0 
L 1881 1375 
L 863 0 
L 184 0 
L 1544 1831 
L 300 3500 
L 978 3500 
L 1906 2253 
L 2834 3500 
L 3513 3500 
z
" transform="scale(0.015625)"/>
       <path id="DejaVuSans-6c" d="M 603 4863 
L 1178 4863 
L 1178 0 
L 603 0 
L 603 4863 
z
" transform="scale(0.015625)"/>
       <path id="DejaVuSans-61" d="M 2194 1759 
Q 1497 1759 1228 1600 
Q 959 1441 959 1056 
Q 959 750 1161 570 
Q 1363 391 1709 391 
Q 2188 391 2477 730 
Q 2766 1069 2766 1631 
L 2766 1759 
L 2194 1759 
z
M 3341 1997 
L 3341 0 
L 2766 0 
L 2766 531 
Q 2569 213 2275 61 
Q 1981 -91 1556 -91 
Q 1019 -91 701 211 
Q 384 513 384 1019 
Q 384 1609 779 1909 
Q 1175 2209 1959 2209 
L 2766 2209 
L 2766 2266 
Q 2766 2663 2505 2880 
Q 2244 3097 1772 3097 
Q 1472 3097 1187 3025 
Q 903 2953 641 2809 
L 641 3341 
Q 956 3463 1253 3523 
Q 1550 3584 1831 3584 
Q 2591 3584 2966 3190 
Q 3341 2797 3341 1997 
z
" transform="scale(0.015625)"/>
       <path id="DejaVuSans-69" d="M 603 3500 
L 1178 3500 
L 1178 0 
L 603 0 
L 603 3500 
z
M 603 4863 
L 1178 4863 
L 1178 4134 
L 603 4134 
L 603 4863 
z
" transform="scale(0.015625)"/>
       <path id="DejaVuSans-64" d="M 2906 2969 
L 2906 4863 
L 3481 4863 
L 3481 0 
L 2906 0 
L 2906 525 
Q 2725 213 2448 61 
Q 2172 -91 1784 -91 
Q 1150 -91 751 415 
Q 353 922 353 1747 
Q 353 2572 751 3078 
Q 1150 3584 1784 3584 
Q 2172 3584 2448 3432 
Q 2725 3281 2906 2969 
z
M 947 1747 
Q 947 1113 1208 752 
Q 1469 391 1925 391 
Q 2381 391 2643 752 
Q 2906 1113 2906 1747 
Q 2906 2381 2643 2742 
Q 2381 3103 1925 3103 
Q 1469 3103 1208 2742 
Q 947 2381 947 1747 
z
" transform="scale(0.015625)"/>
       <path id="DejaVuSans-76" d="M 191 3500 
L 800 3500 
L 1894 563 
L 2988 3500 
L 3597 3500 
L 2284 0 
L 1503 0 
L 191 3500 
z
" transform="scale(0.015625)"/>
      </defs>
      <use xlink:href="#DejaVuSans-45"/>
      <use xlink:href="#DejaVuSans-78" transform="translate(63.183594 0)"/>
      <use xlink:href="#DejaVuSans-70" transform="translate(122.363281 0)"/>
      <use xlink:href="#DejaVuSans-6c" transform="translate(185.839844 0)"/>
      <use xlink:href="#DejaVuSans-61" transform="translate(213.623047 0)"/>
      <use xlink:href="#DejaVuSans-69" transform="translate(274.902344 0)"/>
      <use xlink:href="#DejaVuSans-6e" transform="translate(302.685547 0)"/>
      <use xlink:href="#DejaVuSans-65" transform="translate(366.064453 0)"/>
      <use xlink:href="#DejaVuSans-64" transform="translate(427.587891 0)"/>
      <use xlink:href="#DejaVuSans-20" transform="translate(491.064453 0)"/>
      <use xlink:href="#DejaVuSans-76" transform="translate(522.851562 0)"/>
      <use xlink:href="#DejaVuSans-61" transform="translate(582.03125 0)"/>
      <use xlink:href="#DejaVuSans-72" transform="translate(643.310547 0)"/>
      <use xlink:href="#DejaVuSans-69" transform="translate(684.423828 0)"/>
      <use xlink:href="#DejaVuSans-61" transform="translate(712.207031 0)"/>
      <use xlink:href="#DejaVuSans-6e" transform="translate(773.486328 0)"/>
      <use xlink:href="#DejaVuSans-63" transform="translate(836.865234 0)"/>
      <use xlink:href="#DejaVuSans-65" transform="translate(891.845703 0)"/>
     </g>
    </g>
   </g>
   <g id="line2d_11">
    <path d="M 194.919786 222.226014 
L 210.624824 181.745191 
L 226.329862 157.710222 
L 242.0349 144.08879 
L 257.739938 134.950455 
L 273.444976 128.137394 
L 289.150014 123.015997 
L 304.855052 119.036432 
L 320.56009 115.85702 
L 336.265128 113.293088 
L 351.970166 111.050606 
L 367.675204 109.116969 
L 383.380242 107.38603 
L 399.08528 105.82652 
L 414.790318 104.435403 
L 430.495356 103.197896 
L 446.200394 102.106234 
L 461.905432 101.145755 
L 477.61047 100.309399 
L 493.315508 99.585449 
" clip-path="url(#pc6087164ed)" style="fill: none; stroke: #1f77b4; stroke-width: 1.5; stroke-linecap: square"/>
   </g>
   <g id="line2d_12">
    <path d="M 194.919786 271.524056 
L 210.624824 254.795818 
L 226.329862 243.321631 
L 242.0349 235.082768 
L 257.739938 226.274239 
L 273.444976 225.725284 
L 289.150014 221.500054 
L 304.855052 218.017455 
L 320.56009 212.735138 
L 336.265128 207.153226 
L 351.970166 205.818251 
L 367.675204 202.763993 
L 383.380242 200.316236 
L 399.08528 201.122289 
L 414.790318 200.832925 
L 430.495356 197.762999 
L 446.200394 200.078812 
L 461.905432 198.518309 
L 477.61047 198.017571 
L 493.315508 196.011133 
" clip-path="url(#pc6087164ed)" style="fill: none; stroke: #ff7f0e; stroke-width: 1.5; stroke-linecap: square"/>
   </g>
   <g id="line2d_13">
    <path d="M 194.919786 245.43654 
L 210.624824 204.392092 
L 226.329862 180.463109 
L 242.0349 161.975034 
L 257.739938 150.484679 
L 273.444976 143.029863 
L 289.150014 137.218456 
L 304.855052 133.129267 
L 320.56009 129.977707 
L 336.265128 127.356801 
L 351.970166 124.963586 
L 367.675204 123.57426 
L 383.380242 122.319311 
L 399.08528 121.43749 
L 414.790318 120.417571 
L 430.495356 119.352753 
L 446.200394 118.558995 
L 461.905432 118.096987 
L 477.61047 117.588126 
L 493.315508 116.849883 
" clip-path="url(#pc6087164ed)" style="fill: none; stroke: #2ca02c; stroke-width: 1.5; stroke-linecap: square"/>
   </g>
   <g id="line2d_14">
    <path d="M 194.919786 297.383099 
L 210.624824 272.874956 
L 226.329862 260.845235 
L 242.0349 252.584608 
L 257.739938 248.169067 
L 273.444976 242.274573 
L 289.150014 237.838795 
L 304.855052 236.71974 
L 320.56009 233.657999 
L 336.265128 227.921817 
L 351.970166 226.502449 
L 367.675204 222.13088 
L 383.380242 219.092349 
L 399.08528 218.077079 
L 414.790318 213.237841 
L 430.495356 212.597096 
L 446.200394 210.300872 
L 461.905432 205.50582 
L 477.61047 204.623083 
L 493.315508 202.742307 
" clip-path="url(#pc6087164ed)" style="fill: none; stroke: #d62728; stroke-width: 1.5; stroke-linecap: square"/>
   </g>
   <g id="patch_3">
    <path d="M 180 372.24 
L 180 95.04 
" style="fill: none; stroke: #000000; stroke-width: 0.8; stroke-linejoin: miter; stroke-linecap: square"/>
   </g>
   <g id="patch_4">
    <path d="M 508.235294 372.24 
L 508.235294 95.04 
" style="fill: none; stroke: #000000; stroke-width: 0.8; stroke-linejoin: miter; stroke-linecap: square"/>
   </g>
   <g id="patch_5">
    <path d="M 180 372.24 
L 508.235294 372.24 
" style="fill: none; stroke: #000000; stroke-width: 0.8; stroke-linejoin: miter; stroke-linecap: square"/>
   </g>
   <g id="patch_6">
    <path d="M 180 95.04 
L 508.235294 95.04 
" style="fill: none; stroke: #000000; stroke-width: 0.8; stroke-linejoin: miter; stroke-linecap: square"/>
   </g>
   <g id="text_13">
    <!-- Subject – 1 -->
    <g transform="translate(277.993897 89.04) scale(0.24 -0.24)">
     <defs>
      <path id="DejaVuSans-53" d="M 3425 4513 
L 3425 3897 
Q 3066 4069 2747 4153 
Q 2428 4238 2131 4238 
Q 1616 4238 1336 4038 
Q 1056 3838 1056 3469 
Q 1056 3159 1242 3001 
Q 1428 2844 1947 2747 
L 2328 2669 
Q 3034 2534 3370 2195 
Q 3706 1856 3706 1288 
Q 3706 609 3251 259 
Q 2797 -91 1919 -91 
Q 1588 -91 1214 -16 
Q 841 59 441 206 
L 441 856 
Q 825 641 1194 531 
Q 1563 422 1919 422 
Q 2459 422 2753 634 
Q 3047 847 3047 1241 
Q 3047 1584 2836 1778 
Q 2625 1972 2144 2069 
L 1759 2144 
Q 1053 2284 737 2584 
Q 422 2884 422 3419 
Q 422 4038 858 4394 
Q 1294 4750 2059 4750 
Q 2388 4750 2728 4690 
Q 3069 4631 3425 4513 
z
" transform="scale(0.015625)"/>
      <path id="DejaVuSans-6a" d="M 603 3500 
L 1178 3500 
L 1178 -63 
Q 1178 -731 923 -1031 
Q 669 -1331 103 -1331 
L -116 -1331 
L -116 -844 
L 38 -844 
Q 366 -844 484 -692 
Q 603 -541 603 -63 
L 603 3500 
z
M 603 4863 
L 1178 4863 
L 1178 4134 
L 603 4134 
L 603 4863 
z
" transform="scale(0.015625)"/>
      <path id="DejaVuSans-2013" d="M 313 1978 
L 2888 1978 
L 2888 1528 
L 313 1528 
L 313 1978 
z
" transform="scale(0.015625)"/>
     </defs>
     <use xlink:href="#DejaVuSans-53"/>
     <use xlink:href="#DejaVuSans-75" transform="translate(63.476562 0)"/>
     <use xlink:href="#DejaVuSans-62" transform="translate(126.855469 0)"/>
     <use xlink:href="#DejaVuSans-6a" transform="translate(190.332031 0)"/>
     <use xlink:href="#DejaVuSans-65" transform="translate(218.115234 0)"/>
     <use xlink:href="#DejaVuSans-63" transform="translate(279.638672 0)"/>
     <use xlink:href="#DejaVuSans-74" transform="translate(334.619141 0)"/>
     <use xlink:href="#DejaVuSans-20" transform="translate(373.828125 0)"/>
     <use xlink:href="#DejaVuSans-2013" transform="translate(405.615234 0)"/>
     <use xlink:href="#DejaVuSans-20" transform="translate(455.615234 0)"/>
     <use xlink:href="#DejaVuSans-31" transform="translate(487.402344 0)"/>
    </g>
   </g>
  </g>
  <g id="axes_2">
   <g id="patch_7">
    <path d="M 573.882353 372.24 
L 902.117647 372.24 
L 902.117647 95.04 
L 573.882353 95.04 
z
" style="fill: #ffffff"/>
   </g>
   <g id="matplotlib.axis_3">
    <g id="xtick_5">
     <g id="line2d_15">
      <g>
       <use xlink:href="#m2f128c61b2" x="651.622291" y="372.24" style="stroke: #000000; stroke-width: 0.8"/>
      </g>
     </g>
     <g id="text_14">
      <!-- 50 -->
      <g transform="translate(638.897291 394.436875) scale(0.2 -0.2)">
       <use xlink:href="#DejaVuSans-35"/>
       <use xlink:href="#DejaVuSans-30" transform="translate(63.623047 0)"/>
      </g>
     </g>
    </g>
    <g id="xtick_6">
     <g id="line2d_16">
      <g>
       <use xlink:href="#m2f128c61b2" x="730.147481" y="372.24" style="stroke: #000000; stroke-width: 0.8"/>
      </g>
     </g>
     <g id="text_15">
      <!-- 100 -->
      <g transform="translate(711.059981 394.436875) scale(0.2 -0.2)">
       <use xlink:href="#DejaVuSans-31"/>
       <use xlink:href="#DejaVuSans-30" transform="translate(63.623047 0)"/>
       <use xlink:href="#DejaVuSans-30" transform="translate(127.246094 0)"/>
      </g>
     </g>
    </g>
    <g id="xtick_7">
     <g id="line2d_17">
      <g>
       <use xlink:href="#m2f128c61b2" x="808.672671" y="372.24" style="stroke: #000000; stroke-width: 0.8"/>
      </g>
     </g>
     <g id="text_16">
      <!-- 150 -->
      <g transform="translate(789.585171 394.436875) scale(0.2 -0.2)">
       <use xlink:href="#DejaVuSans-31"/>
       <use xlink:href="#DejaVuSans-35" transform="translate(63.623047 0)"/>
       <use xlink:href="#DejaVuSans-30" transform="translate(127.246094 0)"/>
      </g>
     </g>
    </g>
    <g id="xtick_8">
     <g id="line2d_18">
      <g>
       <use xlink:href="#m2f128c61b2" x="887.197861" y="372.24" style="stroke: #000000; stroke-width: 0.8"/>
      </g>
     </g>
     <g id="text_17">
      <!-- 200 -->
      <g transform="translate(868.110361 394.436875) scale(0.2 -0.2)">
       <use xlink:href="#DejaVuSans-32"/>
       <use xlink:href="#DejaVuSans-30" transform="translate(63.623047 0)"/>
       <use xlink:href="#DejaVuSans-30" transform="translate(127.246094 0)"/>
      </g>
     </g>
    </g>
    <g id="text_18">
     <!-- Number of components -->
     <g transform="translate(620.05 417.793125) scale(0.2 -0.2)">
      <use xlink:href="#DejaVuSans-4e"/>
      <use xlink:href="#DejaVuSans-75" transform="translate(74.804688 0)"/>
      <use xlink:href="#DejaVuSans-6d" transform="translate(138.183594 0)"/>
      <use xlink:href="#DejaVuSans-62" transform="translate(235.595703 0)"/>
      <use xlink:href="#DejaVuSans-65" transform="translate(299.072266 0)"/>
      <use xlink:href="#DejaVuSans-72" transform="translate(360.595703 0)"/>
      <use xlink:href="#DejaVuSans-20" transform="translate(401.708984 0)"/>
      <use xlink:href="#DejaVuSans-6f" transform="translate(433.496094 0)"/>
      <use xlink:href="#DejaVuSans-66" transform="translate(494.677734 0)"/>
      <use xlink:href="#DejaVuSans-20" transform="translate(529.882812 0)"/>
      <use xlink:href="#DejaVuSans-63" transform="translate(561.669922 0)"/>
      <use xlink:href="#DejaVuSans-6f" transform="translate(616.650391 0)"/>
      <use xlink:href="#DejaVuSans-6d" transform="translate(677.832031 0)"/>
      <use xlink:href="#DejaVuSans-70" transform="translate(775.244141 0)"/>
      <use xlink:href="#DejaVuSans-6f" transform="translate(838.720703 0)"/>
      <use xlink:href="#DejaVuSans-6e" transform="translate(899.902344 0)"/>
      <use xlink:href="#DejaVuSans-65" transform="translate(963.28125 0)"/>
      <use xlink:href="#DejaVuSans-6e" transform="translate(1024.804688 0)"/>
      <use xlink:href="#DejaVuSans-74" transform="translate(1088.183594 0)"/>
      <use xlink:href="#DejaVuSans-73" transform="translate(1127.392578 0)"/>
     </g>
    </g>
   </g>
   <g id="matplotlib.axis_4">
    <g id="ytick_7">
     <g id="line2d_19">
      <g>
       <use xlink:href="#ma6603070e9" x="573.882353" y="372.24" style="stroke: #000000; stroke-width: 0.8"/>
      </g>
     </g>
     <g id="text_19">
      <!-- 0.0 -->
      <g transform="translate(535.076103 379.838437) scale(0.2 -0.2)">
       <use xlink:href="#DejaVuSans-30"/>
       <use xlink:href="#DejaVuSans-2e" transform="translate(63.623047 0)"/>
       <use xlink:href="#DejaVuSans-30" transform="translate(95.410156 0)"/>
      </g>
     </g>
    </g>
    <g id="ytick_8">
     <g id="line2d_20">
      <g>
       <use xlink:href="#ma6603070e9" x="573.882353" y="316.8" style="stroke: #000000; stroke-width: 0.8"/>
      </g>
     </g>
     <g id="text_20">
      <!-- 0.2 -->
      <g transform="translate(535.076103 324.398437) scale(0.2 -0.2)">
       <use xlink:href="#DejaVuSans-30"/>
       <use xlink:href="#DejaVuSans-2e" transform="translate(63.623047 0)"/>
       <use xlink:href="#DejaVuSans-32" transform="translate(95.410156 0)"/>
      </g>
     </g>
    </g>
    <g id="ytick_9">
     <g id="line2d_21">
      <g>
       <use xlink:href="#ma6603070e9" x="573.882353" y="261.36" style="stroke: #000000; stroke-width: 0.8"/>
      </g>
     </g>
     <g id="text_21">
      <!-- 0.4 -->
      <g transform="translate(535.076103 268.958437) scale(0.2 -0.2)">
       <use xlink:href="#DejaVuSans-30"/>
       <use xlink:href="#DejaVuSans-2e" transform="translate(63.623047 0)"/>
       <use xlink:href="#DejaVuSans-34" transform="translate(95.410156 0)"/>
      </g>
     </g>
    </g>
    <g id="ytick_10">
     <g id="line2d_22">
      <g>
       <use xlink:href="#ma6603070e9" x="573.882353" y="205.92" style="stroke: #000000; stroke-width: 0.8"/>
      </g>
     </g>
     <g id="text_22">
      <!-- 0.6 -->
      <g transform="translate(535.076103 213.518438) scale(0.2 -0.2)">
       <use xlink:href="#DejaVuSans-30"/>
       <use xlink:href="#DejaVuSans-2e" transform="translate(63.623047 0)"/>
       <use xlink:href="#DejaVuSans-36" transform="translate(95.410156 0)"/>
      </g>
     </g>
    </g>
    <g id="ytick_11">
     <g id="line2d_23">
      <g>
       <use xlink:href="#ma6603070e9" x="573.882353" y="150.48" style="stroke: #000000; stroke-width: 0.8"/>
      </g>
     </g>
     <g id="text_23">
      <!-- 0.8 -->
      <g transform="translate(535.076103 158.078438) scale(0.2 -0.2)">
       <use xlink:href="#DejaVuSans-30"/>
       <use xlink:href="#DejaVuSans-2e" transform="translate(63.623047 0)"/>
       <use xlink:href="#DejaVuSans-38" transform="translate(95.410156 0)"/>
      </g>
     </g>
    </g>
    <g id="ytick_12">
     <g id="line2d_24">
      <g>
       <use xlink:href="#ma6603070e9" x="573.882353" y="95.04" style="stroke: #000000; stroke-width: 0.8"/>
      </g>
     </g>
     <g id="text_24">
      <!-- 1.0 -->
      <g transform="translate(535.076103 102.638438) scale(0.2 -0.2)">
       <use xlink:href="#DejaVuSans-31"/>
       <use xlink:href="#DejaVuSans-2e" transform="translate(63.623047 0)"/>
       <use xlink:href="#DejaVuSans-30" transform="translate(95.410156 0)"/>
      </g>
     </g>
    </g>
   </g>
   <g id="line2d_25">
    <path d="M 588.802139 267.009947 
L 604.507177 208.533074 
L 620.212215 171.898035 
L 635.917253 147.529504 
L 651.622291 132.88465 
L 667.327329 125.123068 
L 683.032367 120.083423 
L 698.737405 116.299558 
L 714.442443 113.248106 
L 730.147481 110.818824 
L 745.852519 108.81416 
L 761.557557 107.017806 
L 777.262595 105.362436 
L 792.967633 103.842326 
L 808.672671 102.462673 
L 824.377709 101.251461 
L 840.082747 100.233064 
L 855.787785 99.400072 
L 871.492823 98.712576 
L 887.197861 98.167864 
" clip-path="url(#p91178058d1)" style="fill: none; stroke: #1f77b4; stroke-width: 1.5; stroke-linecap: square"/>
   </g>
   <g id="line2d_26">
    <path d="M 588.802139 321.214882 
L 604.507177 292.758295 
L 620.212215 271.31232 
L 635.917253 258.306729 
L 651.622291 249.375469 
L 667.327329 240.343309 
L 683.032367 233.683252 
L 698.737405 233.472977 
L 714.442443 232.02774 
L 730.147481 230.285049 
L 745.852519 225.331763 
L 761.557557 228.013857 
L 777.262595 224.560259 
L 792.967633 224.103282 
L 808.672671 220.635022 
L 824.377709 220.454882 
L 840.082747 221.500336 
L 855.787785 218.713952 
L 871.492823 217.48006 
L 887.197861 217.302962 
" clip-path="url(#p91178058d1)" style="fill: none; stroke: #ff7f0e; stroke-width: 1.5; stroke-linecap: square"/>
   </g>
   <g id="line2d_27">
    <path d="M 588.802139 288.725908 
L 604.507177 230.459251 
L 620.212215 190.589361 
L 635.917253 164.862859 
L 651.622291 147.34732 
L 667.327329 137.450977 
L 683.032367 130.882077 
L 698.737405 126.839261 
L 714.442443 123.854246 
L 730.147481 121.902397 
L 745.852519 120.137251 
L 761.557557 119.079131 
L 777.262595 117.930373 
L 792.967633 117.472506 
L 808.672671 116.379375 
L 824.377709 116.008312 
L 840.082747 115.580517 
L 855.787785 115.176281 
L 871.492823 114.359129 
L 887.197861 114.215875 
" clip-path="url(#p91178058d1)" style="fill: none; stroke: #2ca02c; stroke-width: 1.5; stroke-linecap: square"/>
   </g>
   <g id="line2d_28">
    <path d="M 588.802139 333.629434 
L 604.507177 318.588158 
L 620.212215 308.670402 
L 635.917253 302.267698 
L 651.622291 296.700639 
L 667.327329 291.050692 
L 683.032367 283.448086 
L 698.737405 281.481302 
L 714.442443 278.25828 
L 730.147481 272.667324 
L 745.852519 269.998885 
L 761.557557 267.200054 
L 777.262595 264.955778 
L 792.967633 260.41388 
L 808.672671 258.1017 
L 824.377709 257.004788 
L 840.082747 252.139884 
L 855.787785 251.517983 
L 871.492823 246.466678 
L 887.197861 244.616413 
" clip-path="url(#p91178058d1)" style="fill: none; stroke: #d62728; stroke-width: 1.5; stroke-linecap: square"/>
   </g>
   <g id="patch_8">
    <path d="M 573.882353 372.24 
L 573.882353 95.04 
" style="fill: none; stroke: #000000; stroke-width: 0.8; stroke-linejoin: miter; stroke-linecap: square"/>
   </g>
   <g id="patch_9">
    <path d="M 902.117647 372.24 
L 902.117647 95.04 
" style="fill: none; stroke: #000000; stroke-width: 0.8; stroke-linejoin: miter; stroke-linecap: square"/>
   </g>
   <g id="patch_10">
    <path d="M 573.882353 372.24 
L 902.117647 372.24 
" style="fill: none; stroke: #000000; stroke-width: 0.8; stroke-linejoin: miter; stroke-linecap: square"/>
   </g>
   <g id="patch_11">
    <path d="M 573.882353 95.04 
L 902.117647 95.04 
" style="fill: none; stroke: #000000; stroke-width: 0.8; stroke-linejoin: miter; stroke-linecap: square"/>
   </g>
   <g id="text_25">
    <!-- Subject – 2 -->
    <g transform="translate(671.87625 89.04) scale(0.24 -0.24)">
     <use xlink:href="#DejaVuSans-53"/>
     <use xlink:href="#DejaVuSans-75" transform="translate(63.476562 0)"/>
     <use xlink:href="#DejaVuSans-62" transform="translate(126.855469 0)"/>
     <use xlink:href="#DejaVuSans-6a" transform="translate(190.332031 0)"/>
     <use xlink:href="#DejaVuSans-65" transform="translate(218.115234 0)"/>
     <use xlink:href="#DejaVuSans-63" transform="translate(279.638672 0)"/>
     <use xlink:href="#DejaVuSans-74" transform="translate(334.619141 0)"/>
     <use xlink:href="#DejaVuSans-20" transform="translate(373.828125 0)"/>
     <use xlink:href="#DejaVuSans-2013" transform="translate(405.615234 0)"/>
     <use xlink:href="#DejaVuSans-20" transform="translate(455.615234 0)"/>
     <use xlink:href="#DejaVuSans-32" transform="translate(487.402344 0)"/>
    </g>
   </g>
  </g>
  <g id="axes_3">
   <g id="patch_12">
    <path d="M 967.764706 372.24 
L 1296 372.24 
L 1296 95.04 
L 967.764706 95.04 
z
" style="fill: #ffffff"/>
   </g>
   <g id="matplotlib.axis_5">
    <g id="xtick_9">
     <g id="line2d_29">
      <g>
       <use xlink:href="#m2f128c61b2" x="1045.504644" y="372.24" style="stroke: #000000; stroke-width: 0.8"/>
      </g>
     </g>
     <g id="text_26">
      <!-- 50 -->
      <g transform="translate(1032.779644 394.436875) scale(0.2 -0.2)">
       <use xlink:href="#DejaVuSans-35"/>
       <use xlink:href="#DejaVuSans-30" transform="translate(63.623047 0)"/>
      </g>
     </g>
    </g>
    <g id="xtick_10">
     <g id="line2d_30">
      <g>
       <use xlink:href="#m2f128c61b2" x="1124.029834" y="372.24" style="stroke: #000000; stroke-width: 0.8"/>
      </g>
     </g>
     <g id="text_27">
      <!-- 100 -->
      <g transform="translate(1104.942334 394.436875) scale(0.2 -0.2)">
       <use xlink:href="#DejaVuSans-31"/>
       <use xlink:href="#DejaVuSans-30" transform="translate(63.623047 0)"/>
       <use xlink:href="#DejaVuSans-30" transform="translate(127.246094 0)"/>
      </g>
     </g>
    </g>
    <g id="xtick_11">
     <g id="line2d_31">
      <g>
       <use xlink:href="#m2f128c61b2" x="1202.555024" y="372.24" style="stroke: #000000; stroke-width: 0.8"/>
      </g>
     </g>
     <g id="text_28">
      <!-- 150 -->
      <g transform="translate(1183.467524 394.436875) scale(0.2 -0.2)">
       <use xlink:href="#DejaVuSans-31"/>
       <use xlink:href="#DejaVuSans-35" transform="translate(63.623047 0)"/>
       <use xlink:href="#DejaVuSans-30" transform="translate(127.246094 0)"/>
      </g>
     </g>
    </g>
    <g id="xtick_12">
     <g id="line2d_32">
      <g>
       <use xlink:href="#m2f128c61b2" x="1281.080214" y="372.24" style="stroke: #000000; stroke-width: 0.8"/>
      </g>
     </g>
     <g id="text_29">
      <!-- 200 -->
      <g transform="translate(1261.992714 394.436875) scale(0.2 -0.2)">
       <use xlink:href="#DejaVuSans-32"/>
       <use xlink:href="#DejaVuSans-30" transform="translate(63.623047 0)"/>
       <use xlink:href="#DejaVuSans-30" transform="translate(127.246094 0)"/>
      </g>
     </g>
    </g>
    <g id="text_30">
     <!-- Number of components -->
     <g transform="translate(1013.932353 417.793125) scale(0.2 -0.2)">
      <use xlink:href="#DejaVuSans-4e"/>
      <use xlink:href="#DejaVuSans-75" transform="translate(74.804688 0)"/>
      <use xlink:href="#DejaVuSans-6d" transform="translate(138.183594 0)"/>
      <use xlink:href="#DejaVuSans-62" transform="translate(235.595703 0)"/>
      <use xlink:href="#DejaVuSans-65" transform="translate(299.072266 0)"/>
      <use xlink:href="#DejaVuSans-72" transform="translate(360.595703 0)"/>
      <use xlink:href="#DejaVuSans-20" transform="translate(401.708984 0)"/>
      <use xlink:href="#DejaVuSans-6f" transform="translate(433.496094 0)"/>
      <use xlink:href="#DejaVuSans-66" transform="translate(494.677734 0)"/>
      <use xlink:href="#DejaVuSans-20" transform="translate(529.882812 0)"/>
      <use xlink:href="#DejaVuSans-63" transform="translate(561.669922 0)"/>
      <use xlink:href="#DejaVuSans-6f" transform="translate(616.650391 0)"/>
      <use xlink:href="#DejaVuSans-6d" transform="translate(677.832031 0)"/>
      <use xlink:href="#DejaVuSans-70" transform="translate(775.244141 0)"/>
      <use xlink:href="#DejaVuSans-6f" transform="translate(838.720703 0)"/>
      <use xlink:href="#DejaVuSans-6e" transform="translate(899.902344 0)"/>
      <use xlink:href="#DejaVuSans-65" transform="translate(963.28125 0)"/>
      <use xlink:href="#DejaVuSans-6e" transform="translate(1024.804688 0)"/>
      <use xlink:href="#DejaVuSans-74" transform="translate(1088.183594 0)"/>
      <use xlink:href="#DejaVuSans-73" transform="translate(1127.392578 0)"/>
     </g>
    </g>
   </g>
   <g id="matplotlib.axis_6">
    <g id="ytick_13">
     <g id="line2d_33">
      <g>
       <use xlink:href="#ma6603070e9" x="967.764706" y="372.24" style="stroke: #000000; stroke-width: 0.8"/>
      </g>
     </g>
     <g id="text_31">
      <!-- 0.0 -->
      <g transform="translate(928.958456 379.838437) scale(0.2 -0.2)">
       <use xlink:href="#DejaVuSans-30"/>
       <use xlink:href="#DejaVuSans-2e" transform="translate(63.623047 0)"/>
       <use xlink:href="#DejaVuSans-30" transform="translate(95.410156 0)"/>
      </g>
     </g>
    </g>
    <g id="ytick_14">
     <g id="line2d_34">
      <g>
       <use xlink:href="#ma6603070e9" x="967.764706" y="316.8" style="stroke: #000000; stroke-width: 0.8"/>
      </g>
     </g>
     <g id="text_32">
      <!-- 0.2 -->
      <g transform="translate(928.958456 324.398437) scale(0.2 -0.2)">
       <use xlink:href="#DejaVuSans-30"/>
       <use xlink:href="#DejaVuSans-2e" transform="translate(63.623047 0)"/>
       <use xlink:href="#DejaVuSans-32" transform="translate(95.410156 0)"/>
      </g>
     </g>
    </g>
    <g id="ytick_15">
     <g id="line2d_35">
      <g>
       <use xlink:href="#ma6603070e9" x="967.764706" y="261.36" style="stroke: #000000; stroke-width: 0.8"/>
      </g>
     </g>
     <g id="text_33">
      <!-- 0.4 -->
      <g transform="translate(928.958456 268.958437) scale(0.2 -0.2)">
       <use xlink:href="#DejaVuSans-30"/>
       <use xlink:href="#DejaVuSans-2e" transform="translate(63.623047 0)"/>
       <use xlink:href="#DejaVuSans-34" transform="translate(95.410156 0)"/>
      </g>
     </g>
    </g>
    <g id="ytick_16">
     <g id="line2d_36">
      <g>
       <use xlink:href="#ma6603070e9" x="967.764706" y="205.92" style="stroke: #000000; stroke-width: 0.8"/>
      </g>
     </g>
     <g id="text_34">
      <!-- 0.6 -->
      <g transform="translate(928.958456 213.518438) scale(0.2 -0.2)">
       <use xlink:href="#DejaVuSans-30"/>
       <use xlink:href="#DejaVuSans-2e" transform="translate(63.623047 0)"/>
       <use xlink:href="#DejaVuSans-36" transform="translate(95.410156 0)"/>
      </g>
     </g>
    </g>
    <g id="ytick_17">
     <g id="line2d_37">
      <g>
       <use xlink:href="#ma6603070e9" x="967.764706" y="150.48" style="stroke: #000000; stroke-width: 0.8"/>
      </g>
     </g>
     <g id="text_35">
      <!-- 0.8 -->
      <g transform="translate(928.958456 158.078438) scale(0.2 -0.2)">
       <use xlink:href="#DejaVuSans-30"/>
       <use xlink:href="#DejaVuSans-2e" transform="translate(63.623047 0)"/>
       <use xlink:href="#DejaVuSans-38" transform="translate(95.410156 0)"/>
      </g>
     </g>
    </g>
    <g id="ytick_18">
     <g id="line2d_38">
      <g>
       <use xlink:href="#ma6603070e9" x="967.764706" y="95.04" style="stroke: #000000; stroke-width: 0.8"/>
      </g>
     </g>
     <g id="text_36">
      <!-- 1.0 -->
      <g transform="translate(928.958456 102.638438) scale(0.2 -0.2)">
       <use xlink:href="#DejaVuSans-31"/>
       <use xlink:href="#DejaVuSans-2e" transform="translate(63.623047 0)"/>
       <use xlink:href="#DejaVuSans-30" transform="translate(95.410156 0)"/>
      </g>
     </g>
    </g>
   </g>
   <g id="line2d_39">
    <path d="M 982.684492 195.253266 
L 998.38953 170.144917 
L 1014.094568 154.692838 
L 1029.799606 143.702088 
L 1045.504644 135.54726 
L 1061.209682 129.120367 
L 1076.91472 124.089452 
L 1092.619758 120.118797 
L 1108.324796 116.929613 
L 1124.029834 114.284359 
L 1139.734872 112.017164 
L 1155.43991 110.027895 
L 1171.144948 108.25743 
L 1186.849986 106.661501 
L 1202.555024 105.221838 
L 1218.260062 103.962265 
L 1233.9651 102.867391 
L 1249.670138 101.915957 
L 1265.375176 101.079924 
L 1281.080214 100.361615 
" clip-path="url(#pbd310a21a4)" style="fill: none; stroke: #1f77b4; stroke-width: 1.5; stroke-linecap: square"/>
   </g>
   <g id="line2d_40">
    <path d="M 982.684492 250.528298 
L 998.38953 239.891016 
L 1014.094568 232.008642 
L 1029.799606 225.618349 
L 1045.504644 219.737758 
L 1061.209682 216.207309 
L 1076.91472 210.68498 
L 1092.619758 209.531265 
L 1108.324796 205.103132 
L 1124.029834 200.758979 
L 1139.734872 201.642109 
L 1155.43991 202.114052 
L 1171.144948 200.160201 
L 1186.849986 197.10226 
L 1202.555024 196.066774 
L 1218.260062 195.20273 
L 1233.9651 196.196079 
L 1249.670138 194.093787 
L 1265.375176 194.448102 
L 1281.080214 191.360337 
" clip-path="url(#pbd310a21a4)" style="fill: none; stroke: #ff7f0e; stroke-width: 1.5; stroke-linecap: square"/>
   </g>
   <g id="line2d_41">
    <path d="M 982.684492 218.434194 
L 998.38953 190.088214 
L 1014.094568 173.366653 
L 1029.799606 160.403892 
L 1045.504644 151.76222 
L 1061.209682 145.016961 
L 1076.91472 140.338484 
L 1092.619758 136.024538 
L 1108.324796 132.612214 
L 1124.029834 130.525095 
L 1139.734872 128.284342 
L 1155.43991 127.050729 
L 1171.144948 125.171681 
L 1186.849986 124.30541 
L 1202.555024 123.013006 
L 1218.260062 122.313558 
L 1233.9651 121.532505 
L 1249.670138 120.740919 
L 1265.375176 120.128284 
L 1281.080214 119.56646 
" clip-path="url(#pbd310a21a4)" style="fill: none; stroke: #2ca02c; stroke-width: 1.5; stroke-linecap: square"/>
   </g>
   <g id="line2d_42">
    <path d="M 982.684492 263.719263 
L 998.38953 239.988496 
L 1014.094568 231.734065 
L 1029.799606 226.223502 
L 1045.504644 224.189514 
L 1061.209682 219.528774 
L 1076.91472 216.398728 
L 1092.619758 213.677465 
L 1108.324796 211.038251 
L 1124.029834 210.808275 
L 1139.734872 207.354298 
L 1155.43991 205.856787 
L 1171.144948 202.670272 
L 1186.849986 200.629849 
L 1202.555024 197.91462 
L 1218.260062 197.37978 
L 1233.9651 195.401016 
L 1249.670138 194.901218 
L 1265.375176 191.931903 
L 1281.080214 190.579634 
" clip-path="url(#pbd310a21a4)" style="fill: none; stroke: #d62728; stroke-width: 1.5; stroke-linecap: square"/>
   </g>
   <g id="patch_13">
    <path d="M 967.764706 372.24 
L 967.764706 95.04 
" style="fill: none; stroke: #000000; stroke-width: 0.8; stroke-linejoin: miter; stroke-linecap: square"/>
   </g>
   <g id="patch_14">
    <path d="M 1296 372.24 
L 1296 95.04 
" style="fill: none; stroke: #000000; stroke-width: 0.8; stroke-linejoin: miter; stroke-linecap: square"/>
   </g>
   <g id="patch_15">
    <path d="M 967.764706 372.24 
L 1296 372.24 
" style="fill: none; stroke: #000000; stroke-width: 0.8; stroke-linejoin: miter; stroke-linecap: square"/>
   </g>
   <g id="patch_16">
    <path d="M 967.764706 95.04 
L 1296 95.04 
" style="fill: none; stroke: #000000; stroke-width: 0.8; stroke-linejoin: miter; stroke-linecap: square"/>
   </g>
   <g id="text_37">
    <!-- Subject – 3 -->
    <g transform="translate(1065.758603 89.04) scale(0.24 -0.24)">
     <defs>
      <path id="DejaVuSans-33" d="M 2597 2516 
Q 3050 2419 3304 2112 
Q 3559 1806 3559 1356 
Q 3559 666 3084 287 
Q 2609 -91 1734 -91 
Q 1441 -91 1130 -33 
Q 819 25 488 141 
L 488 750 
Q 750 597 1062 519 
Q 1375 441 1716 441 
Q 2309 441 2620 675 
Q 2931 909 2931 1356 
Q 2931 1769 2642 2001 
Q 2353 2234 1838 2234 
L 1294 2234 
L 1294 2753 
L 1863 2753 
Q 2328 2753 2575 2939 
Q 2822 3125 2822 3475 
Q 2822 3834 2567 4026 
Q 2313 4219 1838 4219 
Q 1578 4219 1281 4162 
Q 984 4106 628 3988 
L 628 4550 
Q 988 4650 1302 4700 
Q 1616 4750 1894 4750 
Q 2613 4750 3031 4423 
Q 3450 4097 3450 3541 
Q 3450 3153 3228 2886 
Q 3006 2619 2597 2516 
z
" transform="scale(0.015625)"/>
     </defs>
     <use xlink:href="#DejaVuSans-53"/>
     <use xlink:href="#DejaVuSans-75" transform="translate(63.476562 0)"/>
     <use xlink:href="#DejaVuSans-62" transform="translate(126.855469 0)"/>
     <use xlink:href="#DejaVuSans-6a" transform="translate(190.332031 0)"/>
     <use xlink:href="#DejaVuSans-65" transform="translate(218.115234 0)"/>
     <use xlink:href="#DejaVuSans-63" transform="translate(279.638672 0)"/>
     <use xlink:href="#DejaVuSans-74" transform="translate(334.619141 0)"/>
     <use xlink:href="#DejaVuSans-20" transform="translate(373.828125 0)"/>
     <use xlink:href="#DejaVuSans-2013" transform="translate(405.615234 0)"/>
     <use xlink:href="#DejaVuSans-20" transform="translate(455.615234 0)"/>
     <use xlink:href="#DejaVuSans-33" transform="translate(487.402344 0)"/>
    </g>
   </g>
  </g>
  <g id="axes_4">
   <g id="patch_17">
    <path d="M 180 704.88 
L 508.235294 704.88 
L 508.235294 427.68 
L 180 427.68 
z
" style="fill: #ffffff"/>
   </g>
   <g id="matplotlib.axis_7">
    <g id="xtick_13">
     <g id="line2d_43">
      <g>
       <use xlink:href="#m2f128c61b2" x="257.739938" y="704.88" style="stroke: #000000; stroke-width: 0.8"/>
      </g>
     </g>
     <g id="text_38">
      <!-- 50 -->
      <g transform="translate(245.014938 727.076875) scale(0.2 -0.2)">
       <use xlink:href="#DejaVuSans-35"/>
       <use xlink:href="#DejaVuSans-30" transform="translate(63.623047 0)"/>
      </g>
     </g>
    </g>
    <g id="xtick_14">
     <g id="line2d_44">
      <g>
       <use xlink:href="#m2f128c61b2" x="336.265128" y="704.88" style="stroke: #000000; stroke-width: 0.8"/>
      </g>
     </g>
     <g id="text_39">
      <!-- 100 -->
      <g transform="translate(317.177628 727.076875) scale(0.2 -0.2)">
       <use xlink:href="#DejaVuSans-31"/>
       <use xlink:href="#DejaVuSans-30" transform="translate(63.623047 0)"/>
       <use xlink:href="#DejaVuSans-30" transform="translate(127.246094 0)"/>
      </g>
     </g>
    </g>
    <g id="xtick_15">
     <g id="line2d_45">
      <g>
       <use xlink:href="#m2f128c61b2" x="414.790318" y="704.88" style="stroke: #000000; stroke-width: 0.8"/>
      </g>
     </g>
     <g id="text_40">
      <!-- 150 -->
      <g transform="translate(395.702818 727.076875) scale(0.2 -0.2)">
       <use xlink:href="#DejaVuSans-31"/>
       <use xlink:href="#DejaVuSans-35" transform="translate(63.623047 0)"/>
       <use xlink:href="#DejaVuSans-30" transform="translate(127.246094 0)"/>
      </g>
     </g>
    </g>
    <g id="xtick_16">
     <g id="line2d_46">
      <g>
       <use xlink:href="#m2f128c61b2" x="493.315508" y="704.88" style="stroke: #000000; stroke-width: 0.8"/>
      </g>
     </g>
     <g id="text_41">
      <!-- 200 -->
      <g transform="translate(474.228008 727.076875) scale(0.2 -0.2)">
       <use xlink:href="#DejaVuSans-32"/>
       <use xlink:href="#DejaVuSans-30" transform="translate(63.623047 0)"/>
       <use xlink:href="#DejaVuSans-30" transform="translate(127.246094 0)"/>
      </g>
     </g>
    </g>
    <g id="text_42">
     <!-- Number of components -->
     <g transform="translate(226.167647 750.433125) scale(0.2 -0.2)">
      <use xlink:href="#DejaVuSans-4e"/>
      <use xlink:href="#DejaVuSans-75" transform="translate(74.804688 0)"/>
      <use xlink:href="#DejaVuSans-6d" transform="translate(138.183594 0)"/>
      <use xlink:href="#DejaVuSans-62" transform="translate(235.595703 0)"/>
      <use xlink:href="#DejaVuSans-65" transform="translate(299.072266 0)"/>
      <use xlink:href="#DejaVuSans-72" transform="translate(360.595703 0)"/>
      <use xlink:href="#DejaVuSans-20" transform="translate(401.708984 0)"/>
      <use xlink:href="#DejaVuSans-6f" transform="translate(433.496094 0)"/>
      <use xlink:href="#DejaVuSans-66" transform="translate(494.677734 0)"/>
      <use xlink:href="#DejaVuSans-20" transform="translate(529.882812 0)"/>
      <use xlink:href="#DejaVuSans-63" transform="translate(561.669922 0)"/>
      <use xlink:href="#DejaVuSans-6f" transform="translate(616.650391 0)"/>
      <use xlink:href="#DejaVuSans-6d" transform="translate(677.832031 0)"/>
      <use xlink:href="#DejaVuSans-70" transform="translate(775.244141 0)"/>
      <use xlink:href="#DejaVuSans-6f" transform="translate(838.720703 0)"/>
      <use xlink:href="#DejaVuSans-6e" transform="translate(899.902344 0)"/>
      <use xlink:href="#DejaVuSans-65" transform="translate(963.28125 0)"/>
      <use xlink:href="#DejaVuSans-6e" transform="translate(1024.804688 0)"/>
      <use xlink:href="#DejaVuSans-74" transform="translate(1088.183594 0)"/>
      <use xlink:href="#DejaVuSans-73" transform="translate(1127.392578 0)"/>
     </g>
    </g>
   </g>
   <g id="matplotlib.axis_8">
    <g id="ytick_19">
     <g id="line2d_47">
      <g>
       <use xlink:href="#ma6603070e9" x="180" y="704.88" style="stroke: #000000; stroke-width: 0.8"/>
      </g>
     </g>
     <g id="text_43">
      <!-- 0.0 -->
      <g transform="translate(141.19375 712.478438) scale(0.2 -0.2)">
       <use xlink:href="#DejaVuSans-30"/>
       <use xlink:href="#DejaVuSans-2e" transform="translate(63.623047 0)"/>
       <use xlink:href="#DejaVuSans-30" transform="translate(95.410156 0)"/>
      </g>
     </g>
    </g>
    <g id="ytick_20">
     <g id="line2d_48">
      <g>
       <use xlink:href="#ma6603070e9" x="180" y="643.28" style="stroke: #000000; stroke-width: 0.8"/>
      </g>
     </g>
     <g id="text_44">
      <!-- 0.1 -->
      <g transform="translate(141.19375 650.878438) scale(0.2 -0.2)">
       <use xlink:href="#DejaVuSans-30"/>
       <use xlink:href="#DejaVuSans-2e" transform="translate(63.623047 0)"/>
       <use xlink:href="#DejaVuSans-31" transform="translate(95.410156 0)"/>
      </g>
     </g>
    </g>
    <g id="ytick_21">
     <g id="line2d_49">
      <g>
       <use xlink:href="#ma6603070e9" x="180" y="581.68" style="stroke: #000000; stroke-width: 0.8"/>
      </g>
     </g>
     <g id="text_45">
      <!-- 0.2 -->
      <g transform="translate(141.19375 589.278437) scale(0.2 -0.2)">
       <use xlink:href="#DejaVuSans-30"/>
       <use xlink:href="#DejaVuSans-2e" transform="translate(63.623047 0)"/>
       <use xlink:href="#DejaVuSans-32" transform="translate(95.410156 0)"/>
      </g>
     </g>
    </g>
    <g id="ytick_22">
     <g id="line2d_50">
      <g>
       <use xlink:href="#ma6603070e9" x="180" y="520.08" style="stroke: #000000; stroke-width: 0.8"/>
      </g>
     </g>
     <g id="text_46">
      <!-- 0.3 -->
      <g transform="translate(141.19375 527.678437) scale(0.2 -0.2)">
       <use xlink:href="#DejaVuSans-30"/>
       <use xlink:href="#DejaVuSans-2e" transform="translate(63.623047 0)"/>
       <use xlink:href="#DejaVuSans-33" transform="translate(95.410156 0)"/>
      </g>
     </g>
    </g>
    <g id="ytick_23">
     <g id="line2d_51">
      <g>
       <use xlink:href="#ma6603070e9" x="180" y="458.48" style="stroke: #000000; stroke-width: 0.8"/>
      </g>
     </g>
     <g id="text_47">
      <!-- 0.4 -->
      <g transform="translate(141.19375 466.078438) scale(0.2 -0.2)">
       <use xlink:href="#DejaVuSans-30"/>
       <use xlink:href="#DejaVuSans-2e" transform="translate(63.623047 0)"/>
       <use xlink:href="#DejaVuSans-34" transform="translate(95.410156 0)"/>
      </g>
     </g>
    </g>
    <g id="text_48">
     <!-- Silhouette coefficient -->
     <g transform="translate(133.034375 672.58) rotate(-90) scale(0.2 -0.2)">
      <defs>
       <path id="DejaVuSans-68" d="M 3513 2113 
L 3513 0 
L 2938 0 
L 2938 2094 
Q 2938 2591 2744 2837 
Q 2550 3084 2163 3084 
Q 1697 3084 1428 2787 
Q 1159 2491 1159 1978 
L 1159 0 
L 581 0 
L 581 4863 
L 1159 4863 
L 1159 2956 
Q 1366 3272 1645 3428 
Q 1925 3584 2291 3584 
Q 2894 3584 3203 3211 
Q 3513 2838 3513 2113 
z
" transform="scale(0.015625)"/>
      </defs>
      <use xlink:href="#DejaVuSans-53"/>
      <use xlink:href="#DejaVuSans-69" transform="translate(63.476562 0)"/>
      <use xlink:href="#DejaVuSans-6c" transform="translate(91.259766 0)"/>
      <use xlink:href="#DejaVuSans-68" transform="translate(119.042969 0)"/>
      <use xlink:href="#DejaVuSans-6f" transform="translate(182.421875 0)"/>
      <use xlink:href="#DejaVuSans-75" transform="translate(243.603516 0)"/>
      <use xlink:href="#DejaVuSans-65" transform="translate(306.982422 0)"/>
      <use xlink:href="#DejaVuSans-74" transform="translate(368.505859 0)"/>
      <use xlink:href="#DejaVuSans-74" transform="translate(407.714844 0)"/>
      <use xlink:href="#DejaVuSans-65" transform="translate(446.923828 0)"/>
      <use xlink:href="#DejaVuSans-20" transform="translate(508.447266 0)"/>
      <use xlink:href="#DejaVuSans-63" transform="translate(540.234375 0)"/>
      <use xlink:href="#DejaVuSans-6f" transform="translate(595.214844 0)"/>
      <use xlink:href="#DejaVuSans-65" transform="translate(656.396484 0)"/>
      <use xlink:href="#DejaVuSans-66" transform="translate(717.919922 0)"/>
      <use xlink:href="#DejaVuSans-66" transform="translate(753.125 0)"/>
      <use xlink:href="#DejaVuSans-69" transform="translate(788.330078 0)"/>
      <use xlink:href="#DejaVuSans-63" transform="translate(816.113281 0)"/>
      <use xlink:href="#DejaVuSans-69" transform="translate(871.09375 0)"/>
      <use xlink:href="#DejaVuSans-65" transform="translate(898.876953 0)"/>
      <use xlink:href="#DejaVuSans-6e" transform="translate(960.400391 0)"/>
      <use xlink:href="#DejaVuSans-74" transform="translate(1023.779297 0)"/>
     </g>
    </g>
   </g>
   <g id="line2d_52">
    <path d="M 194.919786 569.25341 
L 210.624824 588.875338 
L 226.329862 599.226442 
L 242.0349 617.78395 
L 257.739938 608.344639 
L 273.444976 614.644354 
L 289.150014 614.221163 
L 304.855052 630.8398 
L 320.56009 631.654402 
L 336.265128 630.667157 
L 351.970166 628.171573 
L 367.675204 634.112655 
L 383.380242 630.51311 
L 399.08528 624.214631 
L 414.790318 622.584449 
L 430.495356 630.726715 
L 446.200394 630.446833 
L 461.905432 635.267491 
L 477.61047 636.532808 
L 493.315508 640.89635 
" clip-path="url(#p3473f23bb2)" style="fill: none; stroke: #1f77b4; stroke-width: 1.5; stroke-linecap: square"/>
   </g>
   <g id="line2d_53">
    <path d="M 194.919786 474.527605 
L 210.624824 473.459707 
L 226.329862 470.748582 
L 242.0349 466.785462 
L 257.739938 465.84306 
L 273.444976 470.871545 
L 289.150014 455.346944 
L 304.855052 471.172895 
L 320.56009 471.778588 
L 336.265128 469.11088 
L 351.970166 460.400928 
L 367.675204 460.351453 
L 383.380242 470.659159 
L 399.08528 470.289277 
L 414.790318 472.481195 
L 430.495356 469.740035 
L 446.200394 470.586589 
L 461.905432 472.847992 
L 477.61047 474.293299 
L 493.315508 464.437407 
" clip-path="url(#p3473f23bb2)" style="fill: none; stroke: #ff7f0e; stroke-width: 1.5; stroke-linecap: square"/>
   </g>
   <g id="line2d_54">
    <path d="M 194.919786 526.063124 
L 210.624824 544.896392 
L 226.329862 580.359601 
L 242.0349 591.097706 
L 257.739938 584.992456 
L 273.444976 606.343134 
L 289.150014 601.235966 
L 304.855052 601.723918 
L 320.56009 610.978835 
L 336.265128 623.380673 
L 351.970166 608.291566 
L 367.675204 629.873658 
L 383.380242 627.740147 
L 399.08528 629.770255 
L 414.790318 625.301476 
L 430.495356 635.133282 
L 446.200394 627.043801 
L 461.905432 632.188906 
L 477.61047 633.848362 
L 493.315508 632.097501 
" clip-path="url(#p3473f23bb2)" style="fill: none; stroke: #2ca02c; stroke-width: 1.5; stroke-linecap: square"/>
   </g>
   <g id="line2d_55">
    <path d="M 194.919786 659.384215 
L 210.624824 661.548095 
L 226.329862 659.734394 
L 242.0349 655.69198 
L 257.739938 658.387125 
L 273.444976 658.100713 
L 289.150014 656.055983 
L 304.855052 660.531779 
L 320.56009 660.862287 
L 336.265128 663.278294 
L 351.970166 664.923954 
L 367.675204 663.540459 
L 383.380242 664.740532 
L 399.08528 662.523473 
L 414.790318 659.366853 
L 430.495356 662.131359 
L 446.200394 663.920993 
L 461.905432 662.077423 
L 477.61047 659.329838 
L 493.315508 665.369632 
" clip-path="url(#p3473f23bb2)" style="fill: none; stroke: #d62728; stroke-width: 1.5; stroke-linecap: square"/>
   </g>
   <g id="patch_18">
    <path d="M 180 704.88 
L 180 427.68 
" style="fill: none; stroke: #000000; stroke-width: 0.8; stroke-linejoin: miter; stroke-linecap: square"/>
   </g>
   <g id="patch_19">
    <path d="M 508.235294 704.88 
L 508.235294 427.68 
" style="fill: none; stroke: #000000; stroke-width: 0.8; stroke-linejoin: miter; stroke-linecap: square"/>
   </g>
   <g id="patch_20">
    <path d="M 180 704.88 
L 508.235294 704.88 
" style="fill: none; stroke: #000000; stroke-width: 0.8; stroke-linejoin: miter; stroke-linecap: square"/>
   </g>
   <g id="patch_21">
    <path d="M 180 427.68 
L 508.235294 427.68 
" style="fill: none; stroke: #000000; stroke-width: 0.8; stroke-linejoin: miter; stroke-linecap: square"/>
   </g>
  </g>
  <g id="axes_5">
   <g id="patch_22">
    <path d="M 573.882353 704.88 
L 902.117647 704.88 
L 902.117647 427.68 
L 573.882353 427.68 
z
" style="fill: #ffffff"/>
   </g>
   <g id="matplotlib.axis_9">
    <g id="xtick_17">
     <g id="line2d_56">
      <g>
       <use xlink:href="#m2f128c61b2" x="651.622291" y="704.88" style="stroke: #000000; stroke-width: 0.8"/>
      </g>
     </g>
     <g id="text_49">
      <!-- 50 -->
      <g transform="translate(638.897291 727.076875) scale(0.2 -0.2)">
       <use xlink:href="#DejaVuSans-35"/>
       <use xlink:href="#DejaVuSans-30" transform="translate(63.623047 0)"/>
      </g>
     </g>
    </g>
    <g id="xtick_18">
     <g id="line2d_57">
      <g>
       <use xlink:href="#m2f128c61b2" x="730.147481" y="704.88" style="stroke: #000000; stroke-width: 0.8"/>
      </g>
     </g>
     <g id="text_50">
      <!-- 100 -->
      <g transform="translate(711.059981 727.076875) scale(0.2 -0.2)">
       <use xlink:href="#DejaVuSans-31"/>
       <use xlink:href="#DejaVuSans-30" transform="translate(63.623047 0)"/>
       <use xlink:href="#DejaVuSans-30" transform="translate(127.246094 0)"/>
      </g>
     </g>
    </g>
    <g id="xtick_19">
     <g id="line2d_58">
      <g>
       <use xlink:href="#m2f128c61b2" x="808.672671" y="704.88" style="stroke: #000000; stroke-width: 0.8"/>
      </g>
     </g>
     <g id="text_51">
      <!-- 150 -->
      <g transform="translate(789.585171 727.076875) scale(0.2 -0.2)">
       <use xlink:href="#DejaVuSans-31"/>
       <use xlink:href="#DejaVuSans-35" transform="translate(63.623047 0)"/>
       <use xlink:href="#DejaVuSans-30" transform="translate(127.246094 0)"/>
      </g>
     </g>
    </g>
    <g id="xtick_20">
     <g id="line2d_59">
      <g>
       <use xlink:href="#m2f128c61b2" x="887.197861" y="704.88" style="stroke: #000000; stroke-width: 0.8"/>
      </g>
     </g>
     <g id="text_52">
      <!-- 200 -->
      <g transform="translate(868.110361 727.076875) scale(0.2 -0.2)">
       <use xlink:href="#DejaVuSans-32"/>
       <use xlink:href="#DejaVuSans-30" transform="translate(63.623047 0)"/>
       <use xlink:href="#DejaVuSans-30" transform="translate(127.246094 0)"/>
      </g>
     </g>
    </g>
    <g id="text_53">
     <!-- Number of components -->
     <g transform="translate(620.05 750.433125) scale(0.2 -0.2)">
      <use xlink:href="#DejaVuSans-4e"/>
      <use xlink:href="#DejaVuSans-75" transform="translate(74.804688 0)"/>
      <use xlink:href="#DejaVuSans-6d" transform="translate(138.183594 0)"/>
      <use xlink:href="#DejaVuSans-62" transform="translate(235.595703 0)"/>
      <use xlink:href="#DejaVuSans-65" transform="translate(299.072266 0)"/>
      <use xlink:href="#DejaVuSans-72" transform="translate(360.595703 0)"/>
      <use xlink:href="#DejaVuSans-20" transform="translate(401.708984 0)"/>
      <use xlink:href="#DejaVuSans-6f" transform="translate(433.496094 0)"/>
      <use xlink:href="#DejaVuSans-66" transform="translate(494.677734 0)"/>
      <use xlink:href="#DejaVuSans-20" transform="translate(529.882812 0)"/>
      <use xlink:href="#DejaVuSans-63" transform="translate(561.669922 0)"/>
      <use xlink:href="#DejaVuSans-6f" transform="translate(616.650391 0)"/>
      <use xlink:href="#DejaVuSans-6d" transform="translate(677.832031 0)"/>
      <use xlink:href="#DejaVuSans-70" transform="translate(775.244141 0)"/>
      <use xlink:href="#DejaVuSans-6f" transform="translate(838.720703 0)"/>
      <use xlink:href="#DejaVuSans-6e" transform="translate(899.902344 0)"/>
      <use xlink:href="#DejaVuSans-65" transform="translate(963.28125 0)"/>
      <use xlink:href="#DejaVuSans-6e" transform="translate(1024.804688 0)"/>
      <use xlink:href="#DejaVuSans-74" transform="translate(1088.183594 0)"/>
      <use xlink:href="#DejaVuSans-73" transform="translate(1127.392578 0)"/>
     </g>
    </g>
   </g>
   <g id="matplotlib.axis_10">
    <g id="ytick_24">
     <g id="line2d_60">
      <g>
       <use xlink:href="#ma6603070e9" x="573.882353" y="704.88" style="stroke: #000000; stroke-width: 0.8"/>
      </g>
     </g>
     <g id="text_54">
      <!-- 0.0 -->
      <g transform="translate(535.076103 712.478438) scale(0.2 -0.2)">
       <use xlink:href="#DejaVuSans-30"/>
       <use xlink:href="#DejaVuSans-2e" transform="translate(63.623047 0)"/>
       <use xlink:href="#DejaVuSans-30" transform="translate(95.410156 0)"/>
      </g>
     </g>
    </g>
    <g id="ytick_25">
     <g id="line2d_61">
      <g>
       <use xlink:href="#ma6603070e9" x="573.882353" y="643.28" style="stroke: #000000; stroke-width: 0.8"/>
      </g>
     </g>
     <g id="text_55">
      <!-- 0.1 -->
      <g transform="translate(535.076103 650.878438) scale(0.2 -0.2)">
       <use xlink:href="#DejaVuSans-30"/>
       <use xlink:href="#DejaVuSans-2e" transform="translate(63.623047 0)"/>
       <use xlink:href="#DejaVuSans-31" transform="translate(95.410156 0)"/>
      </g>
     </g>
    </g>
    <g id="ytick_26">
     <g id="line2d_62">
      <g>
       <use xlink:href="#ma6603070e9" x="573.882353" y="581.68" style="stroke: #000000; stroke-width: 0.8"/>
      </g>
     </g>
     <g id="text_56">
      <!-- 0.2 -->
      <g transform="translate(535.076103 589.278437) scale(0.2 -0.2)">
       <use xlink:href="#DejaVuSans-30"/>
       <use xlink:href="#DejaVuSans-2e" transform="translate(63.623047 0)"/>
       <use xlink:href="#DejaVuSans-32" transform="translate(95.410156 0)"/>
      </g>
     </g>
    </g>
    <g id="ytick_27">
     <g id="line2d_63">
      <g>
       <use xlink:href="#ma6603070e9" x="573.882353" y="520.08" style="stroke: #000000; stroke-width: 0.8"/>
      </g>
     </g>
     <g id="text_57">
      <!-- 0.3 -->
      <g transform="translate(535.076103 527.678437) scale(0.2 -0.2)">
       <use xlink:href="#DejaVuSans-30"/>
       <use xlink:href="#DejaVuSans-2e" transform="translate(63.623047 0)"/>
       <use xlink:href="#DejaVuSans-33" transform="translate(95.410156 0)"/>
      </g>
     </g>
    </g>
    <g id="ytick_28">
     <g id="line2d_64">
      <g>
       <use xlink:href="#ma6603070e9" x="573.882353" y="458.48" style="stroke: #000000; stroke-width: 0.8"/>
      </g>
     </g>
     <g id="text_58">
      <!-- 0.4 -->
      <g transform="translate(535.076103 466.078438) scale(0.2 -0.2)">
       <use xlink:href="#DejaVuSans-30"/>
       <use xlink:href="#DejaVuSans-2e" transform="translate(63.623047 0)"/>
       <use xlink:href="#DejaVuSans-34" transform="translate(95.410156 0)"/>
      </g>
     </g>
    </g>
   </g>
   <g id="line2d_65">
    <path d="M 588.802139 616.152194 
L 604.507177 618.729981 
L 620.212215 629.18908 
L 635.917253 634.868892 
L 651.622291 645.166909 
L 667.327329 637.272132 
L 683.032367 650.156877 
L 698.737405 649.486724 
L 714.442443 646.748259 
L 730.147481 648.633781 
L 745.852519 653.605711 
L 761.557557 651.517583 
L 777.262595 651.998952 
L 792.967633 652.042076 
L 808.672671 644.004208 
L 824.377709 655.21602 
L 840.082747 654.913235 
L 855.787785 656.608345 
L 871.492823 653.560833 
L 887.197861 653.390598 
" clip-path="url(#pfe3eb9ce57)" style="fill: none; stroke: #1f77b4; stroke-width: 1.5; stroke-linecap: square"/>
   </g>
   <g id="line2d_66">
    <path d="M 588.802139 655.107087 
L 604.507177 655.637585 
L 620.212215 653.306085 
L 635.917253 653.508301 
L 651.622291 656.520575 
L 667.327329 640.394108 
L 683.032367 653.516154 
L 698.737405 652.283201 
L 714.442443 655.897294 
L 730.147481 656.298775 
L 745.852519 659.809635 
L 761.557557 651.09396 
L 777.262595 653.864249 
L 792.967633 646.101898 
L 808.672671 655.532475 
L 824.377709 655.586577 
L 840.082747 647.228864 
L 855.787785 656.265602 
L 871.492823 653.072311 
L 887.197861 654.083152 
" clip-path="url(#pfe3eb9ce57)" style="fill: none; stroke: #ff7f0e; stroke-width: 1.5; stroke-linecap: square"/>
   </g>
   <g id="line2d_67">
    <path d="M 588.802139 618.353152 
L 604.507177 634.490175 
L 620.212215 637.674736 
L 635.917253 620.252614 
L 651.622291 617.07072 
L 667.327329 622.377671 
L 683.032367 623.377635 
L 698.737405 626.872968 
L 714.442443 627.773862 
L 730.147481 627.075239 
L 745.852519 633.631895 
L 761.557557 632.173582 
L 777.262595 636.469775 
L 792.967633 636.208716 
L 808.672671 644.004947 
L 824.377709 645.795861 
L 840.082747 645.909742 
L 855.787785 648.530471 
L 871.492823 649.261514 
L 887.197861 645.954444 
" clip-path="url(#pfe3eb9ce57)" style="fill: none; stroke: #2ca02c; stroke-width: 1.5; stroke-linecap: square"/>
   </g>
   <g id="line2d_68">
    <path d="M 588.802139 679.557733 
L 604.507177 686.407645 
L 620.212215 678.070067 
L 635.917253 686.802799 
L 651.622291 680.570651 
L 667.327329 688.770288 
L 683.032367 684.315863 
L 698.737405 683.620228 
L 714.442443 684.520497 
L 730.147481 688.675822 
L 745.852519 684.989881 
L 761.557557 685.034395 
L 777.262595 689.790563 
L 792.967633 687.795126 
L 808.672671 688.11072 
L 824.377709 685.254218 
L 840.082747 688.203837 
L 855.787785 687.410673 
L 871.492823 686.945973 
L 887.197861 687.497488 
" clip-path="url(#pfe3eb9ce57)" style="fill: none; stroke: #d62728; stroke-width: 1.5; stroke-linecap: square"/>
   </g>
   <g id="patch_23">
    <path d="M 573.882353 704.88 
L 573.882353 427.68 
" style="fill: none; stroke: #000000; stroke-width: 0.8; stroke-linejoin: miter; stroke-linecap: square"/>
   </g>
   <g id="patch_24">
    <path d="M 902.117647 704.88 
L 902.117647 427.68 
" style="fill: none; stroke: #000000; stroke-width: 0.8; stroke-linejoin: miter; stroke-linecap: square"/>
   </g>
   <g id="patch_25">
    <path d="M 573.882353 704.88 
L 902.117647 704.88 
" style="fill: none; stroke: #000000; stroke-width: 0.8; stroke-linejoin: miter; stroke-linecap: square"/>
   </g>
   <g id="patch_26">
    <path d="M 573.882353 427.68 
L 902.117647 427.68 
" style="fill: none; stroke: #000000; stroke-width: 0.8; stroke-linejoin: miter; stroke-linecap: square"/>
   </g>
  </g>
  <g id="axes_6">
   <g id="patch_27">
    <path d="M 967.764706 704.88 
L 1296 704.88 
L 1296 427.68 
L 967.764706 427.68 
z
" style="fill: #ffffff"/>
   </g>
   <g id="matplotlib.axis_11">
    <g id="xtick_21">
     <g id="line2d_69">
      <g>
       <use xlink:href="#m2f128c61b2" x="1045.504644" y="704.88" style="stroke: #000000; stroke-width: 0.8"/>
      </g>
     </g>
     <g id="text_59">
      <!-- 50 -->
      <g transform="translate(1032.779644 727.076875) scale(0.2 -0.2)">
       <use xlink:href="#DejaVuSans-35"/>
       <use xlink:href="#DejaVuSans-30" transform="translate(63.623047 0)"/>
      </g>
     </g>
    </g>
    <g id="xtick_22">
     <g id="line2d_70">
      <g>
       <use xlink:href="#m2f128c61b2" x="1124.029834" y="704.88" style="stroke: #000000; stroke-width: 0.8"/>
      </g>
     </g>
     <g id="text_60">
      <!-- 100 -->
      <g transform="translate(1104.942334 727.076875) scale(0.2 -0.2)">
       <use xlink:href="#DejaVuSans-31"/>
       <use xlink:href="#DejaVuSans-30" transform="translate(63.623047 0)"/>
       <use xlink:href="#DejaVuSans-30" transform="translate(127.246094 0)"/>
      </g>
     </g>
    </g>
    <g id="xtick_23">
     <g id="line2d_71">
      <g>
       <use xlink:href="#m2f128c61b2" x="1202.555024" y="704.88" style="stroke: #000000; stroke-width: 0.8"/>
      </g>
     </g>
     <g id="text_61">
      <!-- 150 -->
      <g transform="translate(1183.467524 727.076875) scale(0.2 -0.2)">
       <use xlink:href="#DejaVuSans-31"/>
       <use xlink:href="#DejaVuSans-35" transform="translate(63.623047 0)"/>
       <use xlink:href="#DejaVuSans-30" transform="translate(127.246094 0)"/>
      </g>
     </g>
    </g>
    <g id="xtick_24">
     <g id="line2d_72">
      <g>
       <use xlink:href="#m2f128c61b2" x="1281.080214" y="704.88" style="stroke: #000000; stroke-width: 0.8"/>
      </g>
     </g>
     <g id="text_62">
      <!-- 200 -->
      <g transform="translate(1261.992714 727.076875) scale(0.2 -0.2)">
       <use xlink:href="#DejaVuSans-32"/>
       <use xlink:href="#DejaVuSans-30" transform="translate(63.623047 0)"/>
       <use xlink:href="#DejaVuSans-30" transform="translate(127.246094 0)"/>
      </g>
     </g>
    </g>
    <g id="text_63">
     <!-- Number of components -->
     <g transform="translate(1013.932353 750.433125) scale(0.2 -0.2)">
      <use xlink:href="#DejaVuSans-4e"/>
      <use xlink:href="#DejaVuSans-75" transform="translate(74.804688 0)"/>
      <use xlink:href="#DejaVuSans-6d" transform="translate(138.183594 0)"/>
      <use xlink:href="#DejaVuSans-62" transform="translate(235.595703 0)"/>
      <use xlink:href="#DejaVuSans-65" transform="translate(299.072266 0)"/>
      <use xlink:href="#DejaVuSans-72" transform="translate(360.595703 0)"/>
      <use xlink:href="#DejaVuSans-20" transform="translate(401.708984 0)"/>
      <use xlink:href="#DejaVuSans-6f" transform="translate(433.496094 0)"/>
      <use xlink:href="#DejaVuSans-66" transform="translate(494.677734 0)"/>
      <use xlink:href="#DejaVuSans-20" transform="translate(529.882812 0)"/>
      <use xlink:href="#DejaVuSans-63" transform="translate(561.669922 0)"/>
      <use xlink:href="#DejaVuSans-6f" transform="translate(616.650391 0)"/>
      <use xlink:href="#DejaVuSans-6d" transform="translate(677.832031 0)"/>
      <use xlink:href="#DejaVuSans-70" transform="translate(775.244141 0)"/>
      <use xlink:href="#DejaVuSans-6f" transform="translate(838.720703 0)"/>
      <use xlink:href="#DejaVuSans-6e" transform="translate(899.902344 0)"/>
      <use xlink:href="#DejaVuSans-65" transform="translate(963.28125 0)"/>
      <use xlink:href="#DejaVuSans-6e" transform="translate(1024.804688 0)"/>
      <use xlink:href="#DejaVuSans-74" transform="translate(1088.183594 0)"/>
      <use xlink:href="#DejaVuSans-73" transform="translate(1127.392578 0)"/>
     </g>
    </g>
   </g>
   <g id="matplotlib.axis_12">
    <g id="ytick_29">
     <g id="line2d_73">
      <g>
       <use xlink:href="#ma6603070e9" x="967.764706" y="704.88" style="stroke: #000000; stroke-width: 0.8"/>
      </g>
     </g>
     <g id="text_64">
      <!-- 0.0 -->
      <g transform="translate(928.958456 712.478438) scale(0.2 -0.2)">
       <use xlink:href="#DejaVuSans-30"/>
       <use xlink:href="#DejaVuSans-2e" transform="translate(63.623047 0)"/>
       <use xlink:href="#DejaVuSans-30" transform="translate(95.410156 0)"/>
      </g>
     </g>
    </g>
    <g id="ytick_30">
     <g id="line2d_74">
      <g>
       <use xlink:href="#ma6603070e9" x="967.764706" y="643.28" style="stroke: #000000; stroke-width: 0.8"/>
      </g>
     </g>
     <g id="text_65">
      <!-- 0.1 -->
      <g transform="translate(928.958456 650.878438) scale(0.2 -0.2)">
       <use xlink:href="#DejaVuSans-30"/>
       <use xlink:href="#DejaVuSans-2e" transform="translate(63.623047 0)"/>
       <use xlink:href="#DejaVuSans-31" transform="translate(95.410156 0)"/>
      </g>
     </g>
    </g>
    <g id="ytick_31">
     <g id="line2d_75">
      <g>
       <use xlink:href="#ma6603070e9" x="967.764706" y="581.68" style="stroke: #000000; stroke-width: 0.8"/>
      </g>
     </g>
     <g id="text_66">
      <!-- 0.2 -->
      <g transform="translate(928.958456 589.278437) scale(0.2 -0.2)">
       <use xlink:href="#DejaVuSans-30"/>
       <use xlink:href="#DejaVuSans-2e" transform="translate(63.623047 0)"/>
       <use xlink:href="#DejaVuSans-32" transform="translate(95.410156 0)"/>
      </g>
     </g>
    </g>
    <g id="ytick_32">
     <g id="line2d_76">
      <g>
       <use xlink:href="#ma6603070e9" x="967.764706" y="520.08" style="stroke: #000000; stroke-width: 0.8"/>
      </g>
     </g>
     <g id="text_67">
      <!-- 0.3 -->
      <g transform="translate(928.958456 527.678437) scale(0.2 -0.2)">
       <use xlink:href="#DejaVuSans-30"/>
       <use xlink:href="#DejaVuSans-2e" transform="translate(63.623047 0)"/>
       <use xlink:href="#DejaVuSans-33" transform="translate(95.410156 0)"/>
      </g>
     </g>
    </g>
    <g id="ytick_33">
     <g id="line2d_77">
      <g>
       <use xlink:href="#ma6603070e9" x="967.764706" y="458.48" style="stroke: #000000; stroke-width: 0.8"/>
      </g>
     </g>
     <g id="text_68">
      <!-- 0.4 -->
      <g transform="translate(928.958456 466.078438) scale(0.2 -0.2)">
       <use xlink:href="#DejaVuSans-30"/>
       <use xlink:href="#DejaVuSans-2e" transform="translate(63.623047 0)"/>
       <use xlink:href="#DejaVuSans-34" transform="translate(95.410156 0)"/>
      </g>
     </g>
    </g>
   </g>
   <g id="line2d_78">
    <path d="M 982.684492 560.24383 
L 998.38953 578.540722 
L 1014.094568 590.952299 
L 1029.799606 606.980816 
L 1045.504644 618.942379 
L 1061.209682 623.979005 
L 1076.91472 603.629703 
L 1092.619758 622.461793 
L 1108.324796 625.38495 
L 1124.029834 615.830261 
L 1139.734872 611.708123 
L 1155.43991 616.647539 
L 1171.144948 624.140252 
L 1186.849986 612.146997 
L 1202.555024 616.998881 
L 1218.260062 609.026095 
L 1233.9651 627.469493 
L 1249.670138 620.899412 
L 1265.375176 625.9888 
L 1281.080214 610.988736 
" clip-path="url(#pf5d37dc201)" style="fill: none; stroke: #1f77b4; stroke-width: 1.5; stroke-linecap: square"/>
   </g>
   <g id="line2d_79">
    <path d="M 982.684492 489.11478 
L 998.38953 489.11478 
L 1014.094568 489.962801 
L 1029.799606 485.534062 
L 1045.504644 489.562592 
L 1061.209682 489.562592 
L 1076.91472 483.179343 
L 1092.619758 489.590955 
L 1108.324796 487.557084 
L 1124.029834 486.768433 
L 1139.734872 491.164549 
L 1155.43991 491.18366 
L 1171.144948 491.884302 
L 1186.849986 492.289872 
L 1202.555024 492.958938 
L 1218.260062 492.958938 
L 1233.9651 492.872195 
L 1249.670138 489.958799 
L 1265.375176 488.082019 
L 1281.080214 490.954807 
" clip-path="url(#pf5d37dc201)" style="fill: none; stroke: #ff7f0e; stroke-width: 1.5; stroke-linecap: square"/>
   </g>
   <g id="line2d_80">
    <path d="M 982.684492 516.693064 
L 998.38953 531.722434 
L 1014.094568 549.34885 
L 1029.799606 552.311501 
L 1045.504644 565.822507 
L 1061.209682 580.816913 
L 1076.91472 583.701524 
L 1092.619758 585.895672 
L 1108.324796 589.985675 
L 1124.029834 584.403827 
L 1139.734872 593.69356 
L 1155.43991 602.562421 
L 1171.144948 611.595377 
L 1186.849986 593.986539 
L 1202.555024 608.624722 
L 1218.260062 616.687767 
L 1233.9651 605.967175 
L 1249.670138 614.534934 
L 1265.375176 609.589906 
L 1281.080214 626.797268 
" clip-path="url(#pf5d37dc201)" style="fill: none; stroke: #2ca02c; stroke-width: 1.5; stroke-linecap: square"/>
   </g>
   <g id="line2d_81">
    <path d="M 982.684492 669.31057 
L 998.38953 668.127802 
L 1014.094568 669.278533 
L 1029.799606 666.641531 
L 1045.504644 665.749078 
L 1061.209682 669.116205 
L 1076.91472 666.963702 
L 1092.619758 670.060731 
L 1108.324796 667.722076 
L 1124.029834 666.558945 
L 1139.734872 666.168054 
L 1155.43991 669.824454 
L 1171.144948 666.676017 
L 1186.849986 667.500465 
L 1202.555024 667.01189 
L 1218.260062 666.851949 
L 1233.9651 667.485689 
L 1249.670138 672.212047 
L 1265.375176 669.674621 
L 1281.080214 666.800734 
" clip-path="url(#pf5d37dc201)" style="fill: none; stroke: #d62728; stroke-width: 1.5; stroke-linecap: square"/>
   </g>
   <g id="patch_28">
    <path d="M 967.764706 704.88 
L 967.764706 427.68 
" style="fill: none; stroke: #000000; stroke-width: 0.8; stroke-linejoin: miter; stroke-linecap: square"/>
   </g>
   <g id="patch_29">
    <path d="M 1296 704.88 
L 1296 427.68 
" style="fill: none; stroke: #000000; stroke-width: 0.8; stroke-linejoin: miter; stroke-linecap: square"/>
   </g>
   <g id="patch_30">
    <path d="M 967.764706 704.88 
L 1296 704.88 
" style="fill: none; stroke: #000000; stroke-width: 0.8; stroke-linejoin: miter; stroke-linecap: square"/>
   </g>
   <g id="patch_31">
    <path d="M 967.764706 427.68 
L 1296 427.68 
" style="fill: none; stroke: #000000; stroke-width: 0.8; stroke-linejoin: miter; stroke-linecap: square"/>
   </g>
  </g>
  <g id="legend_1">
   <g id="patch_32">
    <path d="M 709.6 570.24 
L 836.921875 570.24 
Q 840.921875 570.24 840.921875 566.24 
L 840.921875 450.25875 
Q 840.921875 446.25875 836.921875 446.25875 
L 709.6 446.25875 
Q 705.6 446.25875 705.6 450.25875 
L 705.6 566.24 
Q 705.6 570.24 709.6 570.24 
z
" style="fill: #ffffff; opacity: 0.8; stroke: #cccccc; stroke-linejoin: miter"/>
   </g>
   <g id="line2d_82">
    <path d="M 713.6 462.455625 
L 733.6 462.455625 
L 753.6 462.455625 
" style="fill: none; stroke: #1f77b4; stroke-width: 1.5; stroke-linecap: square"/>
   </g>
   <g id="text_69">
    <!-- pca -->
    <g transform="translate(769.6 469.455625) scale(0.2 -0.2)">
     <use xlink:href="#DejaVuSans-70"/>
     <use xlink:href="#DejaVuSans-63" transform="translate(63.476562 0)"/>
     <use xlink:href="#DejaVuSans-61" transform="translate(118.457031 0)"/>
    </g>
   </g>
   <g id="line2d_83">
    <path d="M 713.6 491.811875 
L 733.6 491.811875 
L 753.6 491.811875 
" style="fill: none; stroke: #ff7f0e; stroke-width: 1.5; stroke-linecap: square"/>
   </g>
   <g id="text_70">
    <!-- umap -->
    <g transform="translate(769.6 498.811875) scale(0.2 -0.2)">
     <use xlink:href="#DejaVuSans-75"/>
     <use xlink:href="#DejaVuSans-6d" transform="translate(63.378906 0)"/>
     <use xlink:href="#DejaVuSans-61" transform="translate(160.791016 0)"/>
     <use xlink:href="#DejaVuSans-70" transform="translate(222.070312 0)"/>
    </g>
   </g>
   <g id="line2d_84">
    <path d="M 713.6 521.168125 
L 733.6 521.168125 
L 753.6 521.168125 
" style="fill: none; stroke: #2ca02c; stroke-width: 1.5; stroke-linecap: square"/>
   </g>
   <g id="text_71">
    <!-- ae -->
    <g transform="translate(769.6 528.168125) scale(0.2 -0.2)">
     <use xlink:href="#DejaVuSans-61"/>
     <use xlink:href="#DejaVuSans-65" transform="translate(61.279297 0)"/>
    </g>
   </g>
   <g id="line2d_85">
    <path d="M 713.6 550.524375 
L 733.6 550.524375 
L 753.6 550.524375 
" style="fill: none; stroke: #d62728; stroke-width: 1.5; stroke-linecap: square"/>
   </g>
   <g id="text_72">
    <!-- rtd_ae -->
    <g transform="translate(769.6 557.524375) scale(0.2 -0.2)">
     <defs>
      <path id="DejaVuSans-5f" d="M 3263 -1063 
L 3263 -1509 
L -63 -1509 
L -63 -1063 
L 3263 -1063 
z
" transform="scale(0.015625)"/>
     </defs>
     <use xlink:href="#DejaVuSans-72"/>
     <use xlink:href="#DejaVuSans-74" transform="translate(41.113281 0)"/>
     <use xlink:href="#DejaVuSans-64" transform="translate(80.322266 0)"/>
     <use xlink:href="#DejaVuSans-5f" transform="translate(143.798828 0)"/>
     <use xlink:href="#DejaVuSans-61" transform="translate(193.798828 0)"/>
     <use xlink:href="#DejaVuSans-65" transform="translate(255.078125 0)"/>
    </g>
   </g>
  </g>
 </g>
 <defs>
  <clipPath id="pc6087164ed">
   <rect x="180" y="95.04" width="328.235294" height="277.2"/>
  </clipPath>
  <clipPath id="p91178058d1">
   <rect x="573.882353" y="95.04" width="328.235294" height="277.2"/>
  </clipPath>
  <clipPath id="pbd310a21a4">
   <rect x="967.764706" y="95.04" width="328.235294" height="277.2"/>
  </clipPath>
  <clipPath id="p3473f23bb2">
   <rect x="180" y="427.68" width="328.235294" height="277.2"/>
  </clipPath>
  <clipPath id="pfe3eb9ce57">
   <rect x="573.882353" y="427.68" width="328.235294" height="277.2"/>
  </clipPath>
  <clipPath id="pf5d37dc201">
   <rect x="967.764706" y="427.68" width="328.235294" height="277.2"/>
  </clipPath>
 </defs>
</svg>
