<?xml version="1.0" encoding="UTF-8"?>
    <svg class="logo" xmlns="http://www.w3.org/2000/svg" width="600" height="600" viewBox="0 0 600 600">
        <style>
            .logo { --brand-color: hsl(214, 90%, 50%); }
            .logo .brand { fill: var(--brand-color); }
        </style>
        <path class="brand" d="M581.67 235.499C542.91 172.372 454.742 66.4609 300 66.4609C145.257 66.4609 57.09 172.372 18.3294 235.499C-6.10916 275.026 -6.10916 324.972 18.3294 364.501C57.09 427.628 145.257 533.539 300 533.539C454.742 533.539 542.91 427.628 581.67 364.501C606.109 324.972 606.109 275.026 581.67 235.499ZM300 449.944C217.188 449.944 150.056 382.811 150.056 299.999C150.056 217.188 217.188 150.055 300 150.055C382.811 150.055 449.944 217.188 449.944 299.999C449.861 382.777 382.777 449.86 300 449.944Z"></path>
        <path class="brand" d="M223.879 343.945C229.938 354.46 243.373 358.072 253.887 352.014C253.895 352.01 253.901 352.006 253.909 352.002L257.168 350.119C263.32 355.383 270.392 359.465 278.027 362.16V365.918C278.027 378.053 287.865 387.891 300 387.891C312.135 387.891 321.972 378.053 321.972 365.918V362.161C329.609 359.461 336.681 355.374 342.832 350.105L346.106 351.995C356.623 358.062 370.067 354.455 376.135 343.938C382.203 333.421 378.596 319.976 368.078 313.908L364.826 312.033C366.29 304.068 366.29 295.902 364.826 287.937L368.078 286.062C378.595 279.994 382.203 266.55 376.135 256.032C370.067 245.515 356.623 241.908 346.106 247.976L342.846 249.858C336.688 244.601 329.611 240.526 321.972 237.839V234.082C321.972 221.947 312.135 212.109 300 212.109C287.865 212.109 278.027 221.947 278.027 234.082V237.839C270.391 240.539 263.319 244.626 257.168 249.895L253.894 247.998C243.377 241.93 229.932 245.538 223.865 256.055C217.797 266.572 221.404 280.017 231.921 286.084L235.173 287.959C233.709 295.924 233.709 304.09 235.173 312.056L231.921 313.931C221.433 320.014 217.838 333.433 223.879 343.945ZM300 270.703C316.18 270.703 329.297 283.82 329.297 300C329.297 316.18 316.18 329.297 300 329.297C283.82 329.297 270.703 316.18 270.703 300C270.703 283.82 283.82 270.703 300 270.703Z"></path>
    </svg>